<svg width="82" height="82" viewBox="0 0 82 82" fill="none" xmlns="http://www.w3.org/2000/svg">
<path d="M0 5C0 2.23858 2.23858 0 5 0H77C79.7614 0 82 2.23858 82 5V77C82 79.7614 79.7614 82 77 82H5C2.23858 82 0 79.7614 0 77V5Z" fill="white"/>
<path d="M17.05 70V63H20.19C20.9967 63 21.6167 63.1633 22.05 63.49C22.4833 63.81 22.7 64.25 22.7 64.81C22.7 65.19 22.6133 65.51 22.44 65.77C22.2733 66.03 22.0467 66.23 21.76 66.37C21.4733 66.51 21.1633 66.58 20.83 66.58L21.01 66.28C21.41 66.28 21.7633 66.35 22.07 66.49C22.3767 66.63 22.62 66.8367 22.8 67.11C22.98 67.3767 23.07 67.71 23.07 68.11C23.07 68.71 22.8433 69.1767 22.39 69.51C21.9433 69.8367 21.2767 70 20.39 70H17.05ZM18.05 69.19H20.35C20.9033 69.19 21.3267 69.0967 21.62 68.91C21.9133 68.7233 22.06 68.43 22.06 68.03C22.06 67.6233 21.9133 67.3267 21.62 67.14C21.3267 66.9533 20.9033 66.86 20.35 66.86H17.96V66.05H20.1C20.6067 66.05 21 65.9567 21.28 65.77C21.56 65.5833 21.7 65.3033 21.7 64.93C21.7 64.5567 21.56 64.2767 21.28 64.09C21 63.9033 20.6067 63.81 20.1 63.81H18.05V69.19ZM26.7084 70.06C26.255 70.06 25.855 69.9767 25.5084 69.81C25.1684 69.6433 24.9017 69.39 24.7084 69.05C24.5217 68.7033 24.4284 68.27 24.4284 67.75V64.7H25.3884V67.64C25.3884 68.16 25.5117 68.55 25.7584 68.81C26.0117 69.07 26.365 69.2 26.8184 69.2C27.1517 69.2 27.4417 69.1333 27.6884 69C27.935 68.86 28.125 68.66 28.2584 68.4C28.3917 68.1333 28.4584 67.8133 28.4584 67.44V64.7H29.4184V70H28.5084V68.57L28.6584 68.95C28.485 69.3033 28.225 69.5767 27.8784 69.77C27.5317 69.9633 27.1417 70.06 26.7084 70.06ZM32.7659 70.06C32.3259 70.06 31.9059 70 31.5059 69.88C31.1126 69.76 30.8026 69.6133 30.5759 69.44L30.9759 68.68C31.2026 68.8333 31.4826 68.9633 31.8159 69.07C32.1493 69.1767 32.4893 69.23 32.8359 69.23C33.2826 69.23 33.6026 69.1667 33.7959 69.04C33.9959 68.9133 34.0959 68.7367 34.0959 68.51C34.0959 68.3433 34.0359 68.2133 33.9159 68.12C33.7959 68.0267 33.6359 67.9567 33.4359 67.91C33.2426 67.8633 33.0259 67.8233 32.7859 67.79C32.5459 67.75 32.3059 67.7033 32.0659 67.65C31.8259 67.59 31.6059 67.51 31.4059 67.41C31.2059 67.3033 31.0459 67.16 30.9259 66.98C30.8059 66.7933 30.7459 66.5467 30.7459 66.24C30.7459 65.92 30.8359 65.64 31.0159 65.4C31.1959 65.16 31.4493 64.9767 31.7759 64.85C32.1093 64.7167 32.5026 64.65 32.9559 64.65C33.3026 64.65 33.6526 64.6933 34.0059 64.78C34.3659 64.86 34.6593 64.9767 34.8859 65.13L34.4759 65.89C34.2359 65.73 33.9859 65.62 33.7259 65.56C33.4659 65.5 33.2059 65.47 32.9459 65.47C32.5259 65.47 32.2126 65.54 32.0059 65.68C31.7993 65.8133 31.6959 65.9867 31.6959 66.2C31.6959 66.38 31.7559 66.52 31.8759 66.62C32.0026 66.7133 32.1626 66.7867 32.3559 66.84C32.5559 66.8933 32.7759 66.94 33.0159 66.98C33.2559 67.0133 33.4959 67.06 33.7359 67.12C33.9759 67.1733 34.1926 67.25 34.3859 67.35C34.5859 67.45 34.7459 67.59 34.8659 67.77C34.9926 67.95 35.0559 68.19 35.0559 68.49C35.0559 68.81 34.9626 69.0867 34.7759 69.32C34.5893 69.5533 34.3259 69.7367 33.9859 69.87C33.6459 69.9967 33.2393 70.06 32.7659 70.06ZM36.2557 70V64.7H37.2157V70H36.2557ZM36.7357 63.68C36.549 63.68 36.3924 63.62 36.2657 63.5C36.1457 63.38 36.0857 63.2333 36.0857 63.06C36.0857 62.88 36.1457 62.73 36.2657 62.61C36.3924 62.49 36.549 62.43 36.7357 62.43C36.9224 62.43 37.0757 62.49 37.1957 62.61C37.3224 62.7233 37.3857 62.8667 37.3857 63.04C37.3857 63.22 37.3257 63.3733 37.2057 63.5C37.0857 63.62 36.929 63.68 36.7357 63.68ZM41.8787 64.65C42.312 64.65 42.692 64.7333 43.0187 64.9C43.352 65.0667 43.612 65.32 43.7987 65.66C43.9853 66 44.0787 66.43 44.0787 66.95V70H43.1187V67.06C43.1187 66.5467 42.992 66.16 42.7387 65.9C42.492 65.64 42.142 65.51 41.6887 65.51C41.3487 65.51 41.052 65.5767 40.7987 65.71C40.5453 65.8433 40.3487 66.04 40.2087 66.3C40.0753 66.56 40.0087 66.8833 40.0087 67.27V70H39.0487V64.7H39.9687V66.13L39.8187 65.75C39.992 65.4033 40.2587 65.1333 40.6187 64.94C40.9787 64.7467 41.3987 64.65 41.8787 64.65ZM48.2153 70.06C47.6486 70.06 47.1486 69.9433 46.7153 69.71C46.2886 69.4767 45.9553 69.1567 45.7153 68.75C45.482 68.3433 45.3653 67.8767 45.3653 67.35C45.3653 66.8233 45.4786 66.3567 45.7053 65.95C45.9386 65.5433 46.2553 65.2267 46.6553 65C47.062 64.7667 47.5186 64.65 48.0253 64.65C48.5386 64.65 48.992 64.7633 49.3853 64.99C49.7786 65.2167 50.0853 65.5367 50.3053 65.95C50.532 66.3567 50.6453 66.8333 50.6453 67.38C50.6453 67.42 50.642 67.4667 50.6353 67.52C50.6353 67.5733 50.632 67.6233 50.6253 67.67H46.1153V66.98H50.1253L49.7353 67.22C49.742 66.88 49.672 66.5767 49.5253 66.31C49.3786 66.0433 49.1753 65.8367 48.9153 65.69C48.662 65.5367 48.3653 65.46 48.0253 65.46C47.692 65.46 47.3953 65.5367 47.1353 65.69C46.8753 65.8367 46.672 66.0467 46.5253 66.32C46.3786 66.5867 46.3053 66.8933 46.3053 67.24V67.4C46.3053 67.7533 46.3853 68.07 46.5453 68.35C46.712 68.6233 46.942 68.8367 47.2353 68.99C47.5286 69.1433 47.8653 69.22 48.2453 69.22C48.5586 69.22 48.842 69.1667 49.0953 69.06C49.3553 68.9533 49.582 68.7933 49.7753 68.58L50.3053 69.2C50.0653 69.48 49.7653 69.6933 49.4053 69.84C49.052 69.9867 48.6553 70.06 48.2153 70.06ZM53.4984 70.06C53.0584 70.06 52.6384 70 52.2384 69.88C51.845 69.76 51.535 69.6133 51.3084 69.44L51.7084 68.68C51.935 68.8333 52.215 68.9633 52.5484 69.07C52.8817 69.1767 53.2217 69.23 53.5684 69.23C54.015 69.23 54.335 69.1667 54.5284 69.04C54.7284 68.9133 54.8284 68.7367 54.8284 68.51C54.8284 68.3433 54.7684 68.2133 54.6484 68.12C54.5284 68.0267 54.3684 67.9567 54.1684 67.91C53.975 67.8633 53.7584 67.8233 53.5184 67.79C53.2784 67.75 53.0384 67.7033 52.7984 67.65C52.5584 67.59 52.3384 67.51 52.1384 67.41C51.9384 67.3033 51.7784 67.16 51.6584 66.98C51.5384 66.7933 51.4784 66.5467 51.4784 66.24C51.4784 65.92 51.5684 65.64 51.7484 65.4C51.9284 65.16 52.1817 64.9767 52.5084 64.85C52.8417 64.7167 53.235 64.65 53.6884 64.65C54.035 64.65 54.385 64.6933 54.7384 64.78C55.0984 64.86 55.3917 64.9767 55.6184 65.13L55.2084 65.89C54.9684 65.73 54.7184 65.62 54.4584 65.56C54.1984 65.5 53.9384 65.47 53.6784 65.47C53.2584 65.47 52.945 65.54 52.7384 65.68C52.5317 65.8133 52.4284 65.9867 52.4284 66.2C52.4284 66.38 52.4884 66.52 52.6084 66.62C52.735 66.7133 52.895 66.7867 53.0884 66.84C53.2884 66.8933 53.5084 66.94 53.7484 66.98C53.9884 67.0133 54.2284 67.06 54.4684 67.12C54.7084 67.1733 54.925 67.25 55.1184 67.35C55.3184 67.45 55.4784 67.59 55.5984 67.77C55.725 67.95 55.7884 68.19 55.7884 68.49C55.7884 68.81 55.695 69.0867 55.5084 69.32C55.3217 69.5533 55.0584 69.7367 54.7184 69.87C54.3784 69.9967 53.9717 70.06 53.4984 70.06ZM58.5081 70.06C58.0681 70.06 57.6481 70 57.2481 69.88C56.8548 69.76 56.5448 69.6133 56.3181 69.44L56.7181 68.68C56.9448 68.8333 57.2248 68.9633 57.5581 69.07C57.8915 69.1767 58.2315 69.23 58.5781 69.23C59.0248 69.23 59.3448 69.1667 59.5381 69.04C59.7381 68.9133 59.8381 68.7367 59.8381 68.51C59.8381 68.3433 59.7781 68.2133 59.6581 68.12C59.5381 68.0267 59.3781 67.9567 59.1781 67.91C58.9848 67.8633 58.7681 67.8233 58.5281 67.79C58.2881 67.75 58.0481 67.7033 57.8081 67.65C57.5681 67.59 57.3481 67.51 57.1481 67.41C56.9481 67.3033 56.7881 67.16 56.6681 66.98C56.5481 66.7933 56.4881 66.5467 56.4881 66.24C56.4881 65.92 56.5781 65.64 56.7581 65.4C56.9381 65.16 57.1915 64.9767 57.5181 64.85C57.8515 64.7167 58.2448 64.65 58.6981 64.65C59.0448 64.65 59.3948 64.6933 59.7481 64.78C60.1081 64.86 60.4015 64.9767 60.6281 65.13L60.2181 65.89C59.9781 65.73 59.7281 65.62 59.4681 65.56C59.2081 65.5 58.9481 65.47 58.6881 65.47C58.2681 65.47 57.9548 65.54 57.7481 65.68C57.5415 65.8133 57.4381 65.9867 57.4381 66.2C57.4381 66.38 57.4981 66.52 57.6181 66.62C57.7448 66.7133 57.9048 66.7867 58.0981 66.84C58.2981 66.8933 58.5181 66.94 58.7581 66.98C58.9981 67.0133 59.2381 67.06 59.4781 67.12C59.7181 67.1733 59.9348 67.25 60.1281 67.35C60.3281 67.45 60.4881 67.59 60.6081 67.77C60.7348 67.95 60.7981 68.19 60.7981 68.49C60.7981 68.81 60.7048 69.0867 60.5181 69.32C60.3315 69.5533 60.0681 69.7367 59.7281 69.87C59.3881 69.9967 58.9815 70.06 58.5081 70.06ZM63.5179 70.06C63.0779 70.06 62.6579 70 62.2579 69.88C61.8646 69.76 61.5546 69.6133 61.3279 69.44L61.7279 68.68C61.9546 68.8333 62.2346 68.9633 62.5679 69.07C62.9012 69.1767 63.2412 69.23 63.5879 69.23C64.0346 69.23 64.3546 69.1667 64.5479 69.04C64.7479 68.9133 64.8479 68.7367 64.8479 68.51C64.8479 68.3433 64.7879 68.2133 64.6679 68.12C64.5479 68.0267 64.3879 67.9567 64.1879 67.91C63.9946 67.8633 63.7779 67.8233 63.5379 67.79C63.2979 67.75 63.0579 67.7033 62.8179 67.65C62.5779 67.59 62.3579 67.51 62.1579 67.41C61.9579 67.3033 61.7979 67.16 61.6779 66.98C61.5579 66.7933 61.4979 66.5467 61.4979 66.24C61.4979 65.92 61.5879 65.64 61.7679 65.4C61.9479 65.16 62.2012 64.9767 62.5279 64.85C62.8612 64.7167 63.2546 64.65 63.7079 64.65C64.0546 64.65 64.4046 64.6933 64.7579 64.78C65.1179 64.86 65.4112 64.9767 65.6379 65.13L65.2279 65.89C64.9879 65.73 64.7379 65.62 64.4779 65.56C64.2179 65.5 63.9579 65.47 63.6979 65.47C63.2779 65.47 62.9646 65.54 62.7579 65.68C62.5512 65.8133 62.4479 65.9867 62.4479 66.2C62.4479 66.38 62.5079 66.52 62.6279 66.62C62.7546 66.7133 62.9146 66.7867 63.1079 66.84C63.3079 66.8933 63.5279 66.94 63.7679 66.98C64.0079 67.0133 64.2479 67.06 64.4879 67.12C64.7279 67.1733 64.9446 67.25 65.1379 67.35C65.3379 67.45 65.4979 67.59 65.6179 67.77C65.7446 67.95 65.8079 68.19 65.8079 68.49C65.8079 68.81 65.7146 69.0867 65.5279 69.32C65.3412 69.5533 65.0779 69.7367 64.7379 69.87C64.3979 69.9967 63.9912 70.06 63.5179 70.06Z" fill="#1A1A1A"/>
<path d="M17.05 70V63H20.19C20.9967 63 21.6167 63.1633 22.05 63.49C22.4833 63.81 22.7 64.25 22.7 64.81C22.7 65.19 22.6133 65.51 22.44 65.77C22.2733 66.03 22.0467 66.23 21.76 66.37C21.4733 66.51 21.1633 66.58 20.83 66.58L21.01 66.28C21.41 66.28 21.7633 66.35 22.07 66.49C22.3767 66.63 22.62 66.8367 22.8 67.11C22.98 67.3767 23.07 67.71 23.07 68.11C23.07 68.71 22.8433 69.1767 22.39 69.51C21.9433 69.8367 21.2767 70 20.39 70H17.05ZM18.05 69.19H20.35C20.9033 69.19 21.3267 69.0967 21.62 68.91C21.9133 68.7233 22.06 68.43 22.06 68.03C22.06 67.6233 21.9133 67.3267 21.62 67.14C21.3267 66.9533 20.9033 66.86 20.35 66.86H17.96V66.05H20.1C20.6067 66.05 21 65.9567 21.28 65.77C21.56 65.5833 21.7 65.3033 21.7 64.93C21.7 64.5567 21.56 64.2767 21.28 64.09C21 63.9033 20.6067 63.81 20.1 63.81H18.05V69.19ZM26.7084 70.06C26.255 70.06 25.855 69.9767 25.5084 69.81C25.1684 69.6433 24.9017 69.39 24.7084 69.05C24.5217 68.7033 24.4284 68.27 24.4284 67.75V64.7H25.3884V67.64C25.3884 68.16 25.5117 68.55 25.7584 68.81C26.0117 69.07 26.365 69.2 26.8184 69.2C27.1517 69.2 27.4417 69.1333 27.6884 69C27.935 68.86 28.125 68.66 28.2584 68.4C28.3917 68.1333 28.4584 67.8133 28.4584 67.44V64.7H29.4184V70H28.5084V68.57L28.6584 68.95C28.485 69.3033 28.225 69.5767 27.8784 69.77C27.5317 69.9633 27.1417 70.06 26.7084 70.06ZM32.7659 70.06C32.3259 70.06 31.9059 70 31.5059 69.88C31.1126 69.76 30.8026 69.6133 30.5759 69.44L30.9759 68.68C31.2026 68.8333 31.4826 68.9633 31.8159 69.07C32.1493 69.1767 32.4893 69.23 32.8359 69.23C33.2826 69.23 33.6026 69.1667 33.7959 69.04C33.9959 68.9133 34.0959 68.7367 34.0959 68.51C34.0959 68.3433 34.0359 68.2133 33.9159 68.12C33.7959 68.0267 33.6359 67.9567 33.4359 67.91C33.2426 67.8633 33.0259 67.8233 32.7859 67.79C32.5459 67.75 32.3059 67.7033 32.0659 67.65C31.8259 67.59 31.6059 67.51 31.4059 67.41C31.2059 67.3033 31.0459 67.16 30.9259 66.98C30.8059 66.7933 30.7459 66.5467 30.7459 66.24C30.7459 65.92 30.8359 65.64 31.0159 65.4C31.1959 65.16 31.4493 64.9767 31.7759 64.85C32.1093 64.7167 32.5026 64.65 32.9559 64.65C33.3026 64.65 33.6526 64.6933 34.0059 64.78C34.3659 64.86 34.6593 64.9767 34.8859 65.13L34.4759 65.89C34.2359 65.73 33.9859 65.62 33.7259 65.56C33.4659 65.5 33.2059 65.47 32.9459 65.47C32.5259 65.47 32.2126 65.54 32.0059 65.68C31.7993 65.8133 31.6959 65.9867 31.6959 66.2C31.6959 66.38 31.7559 66.52 31.8759 66.62C32.0026 66.7133 32.1626 66.7867 32.3559 66.84C32.5559 66.8933 32.7759 66.94 33.0159 66.98C33.2559 67.0133 33.4959 67.06 33.7359 67.12C33.9759 67.1733 34.1926 67.25 34.3859 67.35C34.5859 67.45 34.7459 67.59 34.8659 67.77C34.9926 67.95 35.0559 68.19 35.0559 68.49C35.0559 68.81 34.9626 69.0867 34.7759 69.32C34.5893 69.5533 34.3259 69.7367 33.9859 69.87C33.6459 69.9967 33.2393 70.06 32.7659 70.06ZM36.2557 70V64.7H37.2157V70H36.2557ZM36.7357 63.68C36.549 63.68 36.3924 63.62 36.2657 63.5C36.1457 63.38 36.0857 63.2333 36.0857 63.06C36.0857 62.88 36.1457 62.73 36.2657 62.61C36.3924 62.49 36.549 62.43 36.7357 62.43C36.9224 62.43 37.0757 62.49 37.1957 62.61C37.3224 62.7233 37.3857 62.8667 37.3857 63.04C37.3857 63.22 37.3257 63.3733 37.2057 63.5C37.0857 63.62 36.929 63.68 36.7357 63.68ZM41.8787 64.65C42.312 64.65 42.692 64.7333 43.0187 64.9C43.352 65.0667 43.612 65.32 43.7987 65.66C43.9853 66 44.0787 66.43 44.0787 66.95V70H43.1187V67.06C43.1187 66.5467 42.992 66.16 42.7387 65.9C42.492 65.64 42.142 65.51 41.6887 65.51C41.3487 65.51 41.052 65.5767 40.7987 65.71C40.5453 65.8433 40.3487 66.04 40.2087 66.3C40.0753 66.56 40.0087 66.8833 40.0087 67.27V70H39.0487V64.7H39.9687V66.13L39.8187 65.75C39.992 65.4033 40.2587 65.1333 40.6187 64.94C40.9787 64.7467 41.3987 64.65 41.8787 64.65ZM48.2153 70.06C47.6486 70.06 47.1486 69.9433 46.7153 69.71C46.2886 69.4767 45.9553 69.1567 45.7153 68.75C45.482 68.3433 45.3653 67.8767 45.3653 67.35C45.3653 66.8233 45.4786 66.3567 45.7053 65.95C45.9386 65.5433 46.2553 65.2267 46.6553 65C47.062 64.7667 47.5186 64.65 48.0253 64.65C48.5386 64.65 48.992 64.7633 49.3853 64.99C49.7786 65.2167 50.0853 65.5367 50.3053 65.95C50.532 66.3567 50.6453 66.8333 50.6453 67.38C50.6453 67.42 50.642 67.4667 50.6353 67.52C50.6353 67.5733 50.632 67.6233 50.6253 67.67H46.1153V66.98H50.1253L49.7353 67.22C49.742 66.88 49.672 66.5767 49.5253 66.31C49.3786 66.0433 49.1753 65.8367 48.9153 65.69C48.662 65.5367 48.3653 65.46 48.0253 65.46C47.692 65.46 47.3953 65.5367 47.1353 65.69C46.8753 65.8367 46.672 66.0467 46.5253 66.32C46.3786 66.5867 46.3053 66.8933 46.3053 67.24V67.4C46.3053 67.7533 46.3853 68.07 46.5453 68.35C46.712 68.6233 46.942 68.8367 47.2353 68.99C47.5286 69.1433 47.8653 69.22 48.2453 69.22C48.5586 69.22 48.842 69.1667 49.0953 69.06C49.3553 68.9533 49.582 68.7933 49.7753 68.58L50.3053 69.2C50.0653 69.48 49.7653 69.6933 49.4053 69.84C49.052 69.9867 48.6553 70.06 48.2153 70.06ZM53.4984 70.06C53.0584 70.06 52.6384 70 52.2384 69.88C51.845 69.76 51.535 69.6133 51.3084 69.44L51.7084 68.68C51.935 68.8333 52.215 68.9633 52.5484 69.07C52.8817 69.1767 53.2217 69.23 53.5684 69.23C54.015 69.23 54.335 69.1667 54.5284 69.04C54.7284 68.9133 54.8284 68.7367 54.8284 68.51C54.8284 68.3433 54.7684 68.2133 54.6484 68.12C54.5284 68.0267 54.3684 67.9567 54.1684 67.91C53.975 67.8633 53.7584 67.8233 53.5184 67.79C53.2784 67.75 53.0384 67.7033 52.7984 67.65C52.5584 67.59 52.3384 67.51 52.1384 67.41C51.9384 67.3033 51.7784 67.16 51.6584 66.98C51.5384 66.7933 51.4784 66.5467 51.4784 66.24C51.4784 65.92 51.5684 65.64 51.7484 65.4C51.9284 65.16 52.1817 64.9767 52.5084 64.85C52.8417 64.7167 53.235 64.65 53.6884 64.65C54.035 64.65 54.385 64.6933 54.7384 64.78C55.0984 64.86 55.3917 64.9767 55.6184 65.13L55.2084 65.89C54.9684 65.73 54.7184 65.62 54.4584 65.56C54.1984 65.5 53.9384 65.47 53.6784 65.47C53.2584 65.47 52.945 65.54 52.7384 65.68C52.5317 65.8133 52.4284 65.9867 52.4284 66.2C52.4284 66.38 52.4884 66.52 52.6084 66.62C52.735 66.7133 52.895 66.7867 53.0884 66.84C53.2884 66.8933 53.5084 66.94 53.7484 66.98C53.9884 67.0133 54.2284 67.06 54.4684 67.12C54.7084 67.1733 54.925 67.25 55.1184 67.35C55.3184 67.45 55.4784 67.59 55.5984 67.77C55.725 67.95 55.7884 68.19 55.7884 68.49C55.7884 68.81 55.695 69.0867 55.5084 69.32C55.3217 69.5533 55.0584 69.7367 54.7184 69.87C54.3784 69.9967 53.9717 70.06 53.4984 70.06ZM58.5081 70.06C58.0681 70.06 57.6481 70 57.2481 69.88C56.8548 69.76 56.5448 69.6133 56.3181 69.44L56.7181 68.68C56.9448 68.8333 57.2248 68.9633 57.5581 69.07C57.8915 69.1767 58.2315 69.23 58.5781 69.23C59.0248 69.23 59.3448 69.1667 59.5381 69.04C59.7381 68.9133 59.8381 68.7367 59.8381 68.51C59.8381 68.3433 59.7781 68.2133 59.6581 68.12C59.5381 68.0267 59.3781 67.9567 59.1781 67.91C58.9848 67.8633 58.7681 67.8233 58.5281 67.79C58.2881 67.75 58.0481 67.7033 57.8081 67.65C57.5681 67.59 57.3481 67.51 57.1481 67.41C56.9481 67.3033 56.7881 67.16 56.6681 66.98C56.5481 66.7933 56.4881 66.5467 56.4881 66.24C56.4881 65.92 56.5781 65.64 56.7581 65.4C56.9381 65.16 57.1915 64.9767 57.5181 64.85C57.8515 64.7167 58.2448 64.65 58.6981 64.65C59.0448 64.65 59.3948 64.6933 59.7481 64.78C60.1081 64.86 60.4015 64.9767 60.6281 65.13L60.2181 65.89C59.9781 65.73 59.7281 65.62 59.4681 65.56C59.2081 65.5 58.9481 65.47 58.6881 65.47C58.2681 65.47 57.9548 65.54 57.7481 65.68C57.5415 65.8133 57.4381 65.9867 57.4381 66.2C57.4381 66.38 57.4981 66.52 57.6181 66.62C57.7448 66.7133 57.9048 66.7867 58.0981 66.84C58.2981 66.8933 58.5181 66.94 58.7581 66.98C58.9981 67.0133 59.2381 67.06 59.4781 67.12C59.7181 67.1733 59.9348 67.25 60.1281 67.35C60.3281 67.45 60.4881 67.59 60.6081 67.77C60.7348 67.95 60.7981 68.19 60.7981 68.49C60.7981 68.81 60.7048 69.0867 60.5181 69.32C60.3315 69.5533 60.0681 69.7367 59.7281 69.87C59.3881 69.9967 58.9815 70.06 58.5081 70.06ZM63.5179 70.06C63.0779 70.06 62.6579 70 62.2579 69.88C61.8646 69.76 61.5546 69.6133 61.3279 69.44L61.7279 68.68C61.9546 68.8333 62.2346 68.9633 62.5679 69.07C62.9012 69.1767 63.2412 69.23 63.5879 69.23C64.0346 69.23 64.3546 69.1667 64.5479 69.04C64.7479 68.9133 64.8479 68.7367 64.8479 68.51C64.8479 68.3433 64.7879 68.2133 64.6679 68.12C64.5479 68.0267 64.3879 67.9567 64.1879 67.91C63.9946 67.8633 63.7779 67.8233 63.5379 67.79C63.2979 67.75 63.0579 67.7033 62.8179 67.65C62.5779 67.59 62.3579 67.51 62.1579 67.41C61.9579 67.3033 61.7979 67.16 61.6779 66.98C61.5579 66.7933 61.4979 66.5467 61.4979 66.24C61.4979 65.92 61.5879 65.64 61.7679 65.4C61.9479 65.16 62.2012 64.9767 62.5279 64.85C62.8612 64.7167 63.2546 64.65 63.7079 64.65C64.0546 64.65 64.4046 64.6933 64.7579 64.78C65.1179 64.86 65.4112 64.9767 65.6379 65.13L65.2279 65.89C64.9879 65.73 64.7379 65.62 64.4779 65.56C64.2179 65.5 63.9579 65.47 63.6979 65.47C63.2779 65.47 62.9646 65.54 62.7579 65.68C62.5512 65.8133 62.4479 65.9867 62.4479 66.2C62.4479 66.38 62.5079 66.52 62.6279 66.62C62.7546 66.7133 62.9146 66.7867 63.1079 66.84C63.3079 66.8933 63.5279 66.94 63.7679 66.98C64.0079 67.0133 64.2479 67.06 64.4879 67.12C64.7279 67.1733 64.9446 67.25 65.1379 67.35C65.3379 67.45 65.4979 67.59 65.6179 67.77C65.7446 67.95 65.8079 68.19 65.8079 68.49C65.8079 68.81 65.7146 69.0867 65.5279 69.32C65.3412 69.5533 65.0779 69.7367 64.7379 69.87C64.3979 69.9967 63.9912 70.06 63.5179 70.06Z" fill="#1A1A1A"/>
<path d="M52.8154 26.6693C52.8154 27.4047 51.3122 27.3061 50.2716 27.0166C48.7683 26.6693 47.7276 25.9745 48.0745 24.4692C48.0745 23.2534 49.2888 23.4546 50.7341 24.006C51.9482 24.4692 52.8154 25.9338 52.8154 26.6693Z" fill="#E7E8FF"/>
<path d="M17.9244 46.7C17.9244 48.3059 18.6708 49.8733 19.5877 51.1702C21.0128 53.1858 23.5456 53.9512 26.0353 53.9512H55.7243C57.4497 53.9512 58.5922 51.5451 58.6488 49.8426C58.7328 47.3118 60.1984 44.4448 59.7709 40.1861C59.1045 33.5494 54.5734 31.5215 49.8424 29.0021C45.1113 26.4826 48.1764 22.7955 40.047 20.5833C31.9177 18.3711 23.3218 25.6837 23.5883 32.5047C23.8549 39.3257 17.9244 40.309 17.9244 46.7Z" fill="#E7E8FF"/>
<path d="M36.5142 53.9512H42.0479C45.0494 52.886 48.0509 47.977 45.2838 48.4864C42.517 48.9959 39.7969 48.7644 43.408 47.0045C47.0191 45.2446 45.0494 43.9018 43.408 44.0406C41.7667 44.1796 42.0479 43.0681 42.7045 40.9378C43.3611 38.8075 42.7045 36.8624 40.8756 36.8624C39.0466 36.8624 40.5005 42.1419 39.0466 42.5124C37.5927 42.8829 38.2963 40.4283 36.5142 40.9378C34.732 41.4472 37.6397 47.5139 36.5142 47.0045C35.3886 46.4952 35.5293 44.0406 33.5127 45.893C31.8995 47.375 34.8416 51.8826 36.5142 53.9512Z" fill="white"/>
<path d="M30.2955 21.3567C30.2955 20.857 30.7061 20.4519 31.2126 20.4519H47.4414C47.9479 20.4519 48.3584 20.857 48.3584 21.3567V41.8976C48.3584 42.3974 47.9479 42.8025 47.4414 42.8025H31.2126C30.7061 42.8025 30.2955 42.3974 30.2955 41.8976V21.3567Z" fill="white"/>
<path fill-rule="evenodd" clip-rule="evenodd" d="M30.1581 21.3567C30.1581 20.7821 30.6302 20.3163 31.2126 20.3163H47.4414C48.0238 20.3163 48.4959 20.7821 48.4959 21.3567V41.8976C48.4959 42.4722 48.0238 42.938 47.4414 42.938H31.2126C30.6302 42.938 30.1581 42.4722 30.1581 41.8976V21.3567ZM31.2126 20.5875C30.782 20.5875 30.433 20.9319 30.433 21.3567V41.8976C30.433 42.3225 30.782 42.6668 31.2126 42.6668H47.4414C47.8719 42.6668 48.2209 42.3225 48.2209 41.8976V21.3567C48.2209 20.9319 47.8719 20.5875 47.4414 20.5875H31.2126Z" fill="#032068"/>
<path d="M30.2955 21.3567C30.2955 20.857 30.7061 20.4519 31.2126 20.4519H47.4414C47.9479 20.4519 48.3584 20.857 48.3584 21.3567V23.5196H30.2955V21.3567Z" fill="#032068"/>
<path d="M33.1086 21.9857C33.1086 22.3488 32.8103 22.6431 32.4424 22.6431C32.0744 22.6431 31.7761 22.3488 31.7761 21.9857C31.7761 21.6227 32.0744 21.3284 32.4424 21.3284C32.8103 21.3284 33.1086 21.6227 33.1086 21.9857Z" fill="white"/>
<path d="M35.3297 21.9857C35.3297 22.3488 35.0313 22.6431 34.6633 22.6431C34.2954 22.6431 33.9971 22.3488 33.9971 21.9857C33.9971 21.6227 34.2954 21.3284 34.6633 21.3284C35.0313 21.3284 35.3297 21.6227 35.3297 21.9857Z" fill="white"/>
<path d="M37.5504 21.9857C37.5504 22.3488 37.2521 22.6431 36.884 22.6431C36.5162 22.6431 36.2178 22.3488 36.2178 21.9857C36.2178 21.6227 36.5162 21.3284 36.884 21.3284C37.2521 21.3284 37.5504 21.6227 37.5504 21.9857Z" fill="white"/>
<path fill-rule="evenodd" clip-rule="evenodd" d="M42.288 25.9925H32.8866V25.7213H42.288V25.9925Z" fill="#E7E8FF"/>
<path fill-rule="evenodd" clip-rule="evenodd" d="M42.288 35.4879H32.8866V35.2166H42.288V35.4879Z" fill="#E7E8FF"/>
<path fill-rule="evenodd" clip-rule="evenodd" d="M42.288 38.1173H32.8866V37.8462H42.288V38.1173Z" fill="#E7E8FF"/>
<path fill-rule="evenodd" clip-rule="evenodd" d="M32.9713 28.807C32.9713 28.2323 33.4434 27.7664 34.0258 27.7664H43.1478C43.7302 27.7664 44.2023 28.2323 44.2023 28.807V32.2562C44.2023 32.8308 43.7302 33.2966 43.1478 33.2966H34.0258C33.4434 33.2966 32.9713 32.8308 32.9713 32.2562V28.807ZM34.0258 28.0377C33.5953 28.0377 33.2461 28.382 33.2461 28.807V32.2562C33.2461 32.6809 33.5953 33.0255 34.0258 33.0255H43.1478C43.5784 33.0255 43.9275 32.6809 43.9275 32.2562V28.807C43.9275 28.382 43.5784 28.0377 43.1478 28.0377H34.0258Z" fill="#F4AD5E"/>
<path d="M38.4388 40.3474C38.4388 39.8477 38.8493 39.4426 39.3559 39.4426H39.4465C39.9529 39.4426 40.3635 39.8477 40.3635 40.3474V40.4367C40.3635 40.9364 39.9529 41.3417 39.4465 41.3417H39.3559C38.8493 41.3417 38.4388 40.9364 38.4388 40.4367V40.3474Z" fill="#F4AD5E"/>
<path fill-rule="evenodd" clip-rule="evenodd" d="M41.8547 40.3474C41.8547 39.7728 42.3268 39.307 42.9092 39.307H42.9998C43.5822 39.307 44.0543 39.7728 44.0543 40.3474V40.4368C44.0543 41.0114 43.5822 41.4772 42.9998 41.4772H42.9092C42.3268 41.4772 41.8547 41.0114 41.8547 40.4368V40.3474ZM42.9092 39.5781C42.4787 39.5781 42.1296 39.9227 42.1296 40.3474V40.4368C42.1296 40.8617 42.4787 41.206 42.9092 41.206H42.9998C43.4304 41.206 43.7795 40.8617 43.7795 40.4368V40.3474C43.7795 39.9227 43.4304 39.5781 42.9998 39.5781H42.9092Z" fill="#E7E8FF"/>
<path fill-rule="evenodd" clip-rule="evenodd" d="M37.0294 29.3112C36.8639 29.0537 36.4808 29.0604 36.3246 29.3237L35.1634 31.281C35.0401 31.4888 34.8142 31.6168 34.5699 31.6168H33.1088V31.3454H34.5699C34.7165 31.3454 34.852 31.2687 34.926 31.1439L36.0873 29.1866C36.3475 28.7482 36.9858 28.7369 37.2617 29.1661L38.2883 30.7633C38.4404 31 38.7837 31.0179 38.9602 30.7982L39.788 29.7684C40.0479 29.4451 40.5375 29.4236 40.8255 29.7226L41.6329 30.5612C41.7108 30.6423 41.819 30.6881 41.9321 30.6881H43.9908V30.9593H41.9321C41.7437 30.9593 41.5635 30.883 41.4337 30.7482L40.6261 29.9096C40.4533 29.73 40.1595 29.743 40.0035 29.9369L39.1756 30.9669C38.8815 31.3326 38.3094 31.303 38.056 30.9086L37.0294 29.3112Z" fill="#F4AD5E"/>
<path d="M39.0813 53.8819C38.1929 52.3042 34.2695 51.2116 32.4187 50.8465L30.8608 53.8819H39.0813Z" fill="#032068"/>
<path d="M25.7229 33.3644L25.2997 34.6716L27.8125 35.5981L28.1584 33.7115C28.5627 33.7573 29.4865 33.4802 29.9472 32.0061C30.523 30.1633 29.7642 27.8306 28.165 27.596C26.5657 27.3615 25.399 28.6915 25.1071 30.4238C24.8736 31.8095 25.4203 32.9616 25.7229 33.3644Z" fill="#EFCB96"/>
<path d="M25.7133 33.2919C25.9713 33.4353 27.0337 33.489 27.5327 33.498C27.8996 33.4504 28.0812 33.1322 28.3073 32.587C28.4881 32.1511 28.2012 31.7905 28.0351 31.6647C27.0192 30.765 28.0624 29.8931 28.3907 29.8506C28.7244 29.8072 28.7707 30.4436 28.7788 31.0207C28.7815 31.2117 29.0037 31.2482 29.0782 31.072C29.2469 30.6729 29.4391 30.2567 29.5971 29.9457C29.7422 29.66 30.0124 29.4727 30.3052 29.336C31.8326 28.6232 31.7456 27.2478 31.3655 26.9599C30.9503 26.6454 30.7242 27.1905 29.2428 26.7196C27.7615 26.2487 25.6137 26.3799 24.665 28.7868C23.7164 31.1934 25.3907 33.1127 25.7133 33.2919Z" fill="#032068"/>
<path d="M44.4851 47.7787C44.1014 46.158 41.949 45.8398 40.9208 45.8835L40.7838 47.7787H44.4851Z" fill="#EFCB96"/>
<path d="M24.2756 34.2662C23.0319 35.201 21.4837 37.7552 20.9372 39.6039C19.5784 44.201 17.7639 53.1698 22.5333 53.8819C26.586 53.8866 29.9586 53.8838 31.1383 53.8819C31.6896 53.0615 32.7101 51.1858 32.3816 50.1161L32.1966 48.5092C34.3629 49.4475 38.2612 48.7892 40.4964 48.204C40.9235 48.0922 41.191 47.6838 41.14 47.2506L40.9471 45.615C40.8956 45.1772 40.5288 44.8417 40.0837 44.8044C35.2498 44.4009 33.9893 42.8064 32.8627 41.2782C31.6784 39.6712 29.4575 36.1653 28.4952 35.3618C27.5328 34.5582 25.8302 33.0974 24.2756 34.2662Z" fill="#F4AD5E"/>
<path d="M26.4965 42.958C27.9178 45.7627 30.346 47.7057 32.2707 48.5822L32.3447 49.97C28.1991 47.5158 26.7186 44.2728 26.4965 42.958Z" fill="#032068"/>
<path d="M33.0109 48.8013C32.5915 47.9005 31.1158 46.055 28.5693 45.8796C29.3342 46.7318 31.2935 48.5092 33.0109 48.8013Z" fill="#032068"/>
<path d="M18.1532 49.295C18.9836 53.1537 20.8965 53.7476 22.157 53.7476H31.3508C32.9819 53.7476 32.7596 53.2414 32.7596 52.803C32.2405 50.6105 30.9801 49.7336 27.1987 48.6373C23.4174 47.5411 22.6018 43.1564 21.3414 40.3062C20.0809 37.456 16.6703 37.383 16.2255 37.9676C15.7806 38.5523 17.1152 44.4717 18.1532 49.295Z" fill="white"/>
<path fill-rule="evenodd" clip-rule="evenodd" d="M16.5672 37.9111C16.4399 37.9557 16.3675 38.0067 16.3354 38.049C16.3266 38.0605 16.3106 38.0933 16.2975 38.1628C16.285 38.2295 16.2774 38.3172 16.2754 38.4268C16.2715 38.6456 16.2905 38.9372 16.3296 39.2912C16.4078 39.9985 16.5646 40.9398 16.7684 42.0169C17.105 43.7965 17.5681 45.9376 18.0117 47.9891C18.105 48.4204 18.1974 48.8478 18.2876 49.2669C18.699 51.1781 19.374 52.2605 20.0837 52.8658C20.7916 53.4696 21.5497 53.6121 22.157 53.6121H31.3508C31.753 53.6121 32.0317 53.5807 32.224 53.5307C32.4161 53.4807 32.5105 53.415 32.5598 53.3546C32.6082 53.2955 32.6276 53.2241 32.6315 53.1298C32.6334 53.0822 32.6315 53.032 32.6286 52.9764C32.6283 52.9687 32.6278 52.961 32.6274 52.9531C32.6251 52.9104 32.6226 52.8646 32.6222 52.819C32.368 51.7552 31.9381 51.0222 31.1201 50.4176C30.2889 49.8031 29.0497 49.3153 27.16 48.7674C25.2183 48.2045 24.0451 46.7972 23.2027 45.1918C22.7815 44.3893 22.4409 43.5334 22.1278 42.7035C22.0587 42.5205 21.9911 42.3388 21.9242 42.1594C21.6869 41.5225 21.4597 40.9127 21.2154 40.3604C20.6049 38.98 19.475 38.272 18.4397 37.9792C17.9214 37.8326 17.4304 37.7912 17.0459 37.8207C16.8535 37.8354 16.6913 37.8677 16.5672 37.9111ZM18.5154 37.7184C19.6118 38.0285 20.8174 38.7822 21.4674 40.2519C21.7152 40.8124 21.9462 41.4324 22.184 42.0706C22.2504 42.2488 22.3174 42.4285 22.3854 42.6087C22.6979 43.437 23.0338 44.28 23.4468 45.0672C24.2726 46.6407 25.3979 47.9739 27.2375 48.5073C29.1291 49.0556 30.4108 49.5544 31.2849 50.2005C32.1685 50.8537 32.6281 51.6514 32.8933 52.7721L32.8971 52.7874V52.803C32.8971 52.846 32.8994 52.8897 32.9019 52.9376C32.9024 52.9457 32.9028 52.9541 32.9031 52.9625C32.9061 53.0185 32.9088 53.0798 32.9061 53.1412C32.9008 53.2653 32.8738 53.4027 32.7738 53.5249C32.6749 53.646 32.5192 53.7343 32.2942 53.7929C32.0694 53.8513 31.7643 53.8833 31.3508 53.8833H22.157C21.5038 53.8833 20.6752 53.7288 19.9039 53.071C19.1345 52.4146 18.4378 51.2707 18.0187 49.3232C17.9287 48.9048 17.8364 48.478 17.7432 48.0471C17.2995 45.9955 16.8354 43.85 16.4981 42.0668C16.2941 40.9879 16.1357 40.0383 16.0564 39.3205C16.0167 38.9621 15.9963 38.6576 16.0005 38.4218C16.0026 38.3042 16.0109 38.2002 16.0272 38.1135C16.043 38.0297 16.0686 37.9478 16.1155 37.8862C16.1946 37.7821 16.3261 37.7077 16.4754 37.6555C16.6279 37.602 16.815 37.5664 17.0246 37.5502C17.4441 37.5181 17.9679 37.5636 18.5154 37.7184Z" fill="#032068"/>
<path d="M63.3955 47.9837H37.7818C37.2912 47.9837 36.8935 48.376 36.8935 48.8602C36.8935 49.3443 37.2912 49.7366 37.7818 49.7366H63.3955C63.8861 49.7366 64.2839 49.3443 64.2839 48.8602C64.2839 48.376 63.8861 47.9837 63.3955 47.9837Z" fill="white"/>
<path fill-rule="evenodd" clip-rule="evenodd" d="M36.756 48.8602C36.756 48.3012 37.2153 47.848 37.7818 47.848H63.3955C63.9621 47.848 64.4214 48.3012 64.4214 48.8602C64.4214 49.4191 63.9621 49.8722 63.3955 49.8722H37.7818C37.2153 49.8722 36.756 49.4191 36.756 48.8602ZM37.7818 48.1192C37.3672 48.1192 37.031 48.4509 37.031 48.8602C37.031 49.2693 37.3672 49.6011 37.7818 49.6011H63.3955C63.8102 49.6011 64.1464 49.2693 64.1464 48.8602C64.1464 48.4509 63.8103 48.1192 63.3955 48.1192H37.7818Z" fill="#032068"/>
<path d="M39.6591 53.7538L40.6035 49.8206H42.9581L41.2044 53.7538H39.6591Z" fill="white"/>
<path fill-rule="evenodd" clip-rule="evenodd" d="M40.4948 49.685H43.1688L41.294 53.8892H39.4853L40.4948 49.685ZM40.7122 49.9561L39.833 53.6181H41.1147L42.7475 49.9561H40.7122Z" fill="#032068"/>
<path d="M61.2399 53.7538L60.3401 49.8206H57.941L59.6654 53.7538H61.2399Z" fill="white"/>
<path fill-rule="evenodd" clip-rule="evenodd" d="M60.4869 49.6397H57.6617L59.545 53.9347H61.4693L60.4869 49.6397ZM60.1935 50.0016L61.0104 53.5728H59.7858L58.2201 50.0016H60.1935Z" fill="#032068"/>
<path d="M25.8526 20.1442L25.3538 20.7791C25.3234 20.8177 25.2739 20.8363 25.2255 20.8272L24.6089 20.7125C24.4763 20.6878 24.3963 20.8534 24.4986 20.9408L24.9832 21.3543C25.0186 21.3845 25.0353 21.431 25.0271 21.4766L24.9056 22.1585C24.8827 22.2867 25.0416 22.3661 25.1315 22.2714L25.6292 21.7474C25.6585 21.7166 25.7008 21.7017 25.743 21.7074L26.319 21.7854C26.4488 21.8029 26.5223 21.6423 26.4236 21.5567L25.9952 21.1852C25.9608 21.1554 25.9444 21.11 25.9518 21.0652L26.0868 20.2461C26.1089 20.1122 25.9367 20.0372 25.8526 20.1442Z" fill="#F4AD5E"/>
<path d="M51.0073 20.1695L50.671 20.2412C50.6505 20.2455 50.6297 20.2383 50.6171 20.2224L50.4561 20.0202C50.4214 19.9767 50.3493 20.0089 50.3568 20.0645L50.3917 20.328C50.3943 20.3472 50.3863 20.3667 50.3709 20.3793L50.1396 20.5672C50.096 20.6025 50.1234 20.6707 50.1786 20.6642L50.4831 20.628C50.5011 20.6259 50.5185 20.6324 50.5303 20.6455L50.6889 20.8249C50.7247 20.8654 50.7932 20.8331 50.7866 20.779L50.7572 20.5442C50.7549 20.5254 50.7626 20.5063 50.7777 20.4938L51.052 20.2651C51.097 20.2277 51.0641 20.1574 51.0073 20.1695Z" fill="#F4AD5E"/>
<path d="M55.4739 26.9747L55.1779 28.3626V29.2389L55.8441 29.8234L57.8428 29.6042V28.2894L57.7688 26.7556C58.583 25.733 58.8792 23.7609 57.9908 22.7383C57.1024 21.7158 54.8077 21.5697 54.3635 23.98C54.0081 25.9083 54.9557 26.7799 55.4739 26.9747Z" fill="#EFCB96"/>
<path d="M50.662 54L51.4204 45.8193H62.0372L63.0988 54H50.662Z" fill="#032068"/>
<path d="M43.5553 30.5537C43.5553 30.7875 43.802 31.1868 43.9255 31.3572L43.7775 32.2337L42.6669 32.3797C42.3709 32.0145 41.4826 31.8685 41.2604 31.2842C41.0829 30.8166 41.5813 30.3102 41.8528 30.1884L40.9325 28.9175C40.8249 28.7687 40.8502 28.5633 40.9909 28.4445C41.1401 28.3183 41.3645 28.3345 41.4934 28.4809L42.7411 29.8964C42.7411 29.945 42.7854 29.9403 42.9631 29.5311C43.1851 29.0199 43.4073 29.2389 43.5553 29.3121C43.7035 29.3851 43.5553 30.2616 43.5553 30.5537Z" fill="#EFCB96"/>
<path d="M56.3622 29.0929C55.3554 29.0929 55.1039 28.3138 55.1039 27.9243C54.393 27.9243 53.9277 28.2666 53.7795 28.364L52.5868 31.7224L52.3648 45.8925C54.8522 46.6521 57.991 46.2089 59.2493 45.8925L60.0637 28.4356C59.5743 28.1283 58.8594 27.9941 58.3457 27.9464C58.0943 27.923 57.878 28.0986 57.7496 28.3131C57.5263 28.6859 57.09 29.0929 56.3622 29.0929Z" fill="white"/>
<path fill-rule="evenodd" clip-rule="evenodd" d="M53.8942 28.4512L52.7239 31.7465L52.5039 45.792C54.8772 46.4818 57.8273 46.092 59.1168 45.785L59.9226 28.5096C59.464 28.2483 58.8173 28.1265 58.3329 28.0814C58.1584 28.0652 57.9842 28.1879 57.8679 28.382C57.6272 28.784 57.1515 29.2285 56.3622 29.2285C55.8176 29.2285 55.462 29.0151 55.2464 28.7371C55.077 28.5188 54.9991 28.2674 54.9749 28.0638C54.4304 28.0981 54.0588 28.3411 53.8942 28.4512ZM53.7333 28.2311C53.9104 28.1121 54.3923 27.7886 55.1039 27.7886H55.2412V27.9242C55.2412 28.0956 55.2978 28.3569 55.4646 28.5723C55.6265 28.7812 55.9003 28.9572 56.3622 28.9572C57.0286 28.9572 57.4255 28.5877 57.6313 28.2441C57.772 28.0092 58.0303 27.7808 58.3587 27.8114C58.8774 27.8596 59.6195 27.9959 60.1375 28.3211L60.2046 28.3633L59.382 45.999L59.2833 46.0237C58.0148 46.3428 54.8468 46.7923 52.324 46.022L52.2257 45.992L52.4498 31.6982L53.6651 28.2764L53.7034 28.2511C53.7121 28.2453 53.7221 28.2386 53.7333 28.2311Z" fill="#032068"/>
<path d="M53.7711 35.5206C53.8749 33.7323 54.4386 30.5109 54.8096 28.5904C54.9004 27.7756 55.2108 27.7172 54.208 28.0016C50.6967 28.9972 49.847 33.5531 48.7373 33.6215C47.9475 33.6701 46.0397 32.3689 44.7977 31.4267C44.4241 31.1434 43.8938 31.1692 43.5606 31.498L42.7669 32.2813C42.5237 32.521 42.4332 32.8752 42.5682 33.1871C43.4854 35.3087 46.0642 38.6574 47.701 39.4648C49.1223 40.1659 50.2671 39.1725 50.662 38.5882C50.6373 40.4629 50.6028 44.4608 50.662 45.4542C50.736 46.6958 50.662 47.7183 51.5504 47.8645C52.4388 48.0106 54.1413 47.7183 54.1413 47.4263C54.1413 47.1341 53.6231 38.077 53.7711 35.5206Z" fill="#F4AD5E"/>
<path d="M57.3246 35.4476C57.379 34.1044 58.0634 30.477 58.4801 28.4251C58.5846 27.9112 58.5429 27.8802 59.0905 28.0303C62.9271 29.0822 65.9734 35.5606 65.6897 38.15C65.4529 40.312 63.7157 43.7256 62.8766 45.162C62.9261 46.0385 62.9358 47.8207 62.5806 47.9376C62.1364 48.0836 58.287 47.9376 58.0648 47.4993C57.8428 47.061 57.2506 37.2735 57.3246 35.4476Z" fill="#F4AD5E"/>
<path d="M58.1666 45.3269C57.7016 45.1286 57.4874 44.5961 57.6884 44.1373L59.1465 40.8067C59.3475 40.3479 59.8872 40.1368 60.3522 40.335L65.3089 42.4476C65.7739 42.6458 65.988 43.1785 65.787 43.6371L64.3289 46.9678C64.1279 47.4266 63.5882 47.6378 63.1232 47.4396L58.1666 45.3269Z" fill="white"/>
<path fill-rule="evenodd" clip-rule="evenodd" d="M58.1119 45.4514C57.5774 45.2234 57.3312 44.611 57.5621 44.0836L59.0204 40.7528C59.2513 40.2254 59.8721 39.9825 60.4066 40.2103L65.3634 42.3232C65.898 42.551 66.1442 43.1634 65.9133 43.691L64.455 47.0215C64.2239 47.5491 63.6033 47.792 63.0687 47.564L58.1119 45.4514ZM57.8145 44.1912C57.6437 44.5812 57.8257 45.0338 58.221 45.2023L63.1778 47.3152C63.573 47.4837 64.0318 47.3039 64.2026 46.9139L65.6609 43.5834C65.8316 43.1934 65.6497 42.7405 65.2544 42.5722L60.2976 40.4594C59.9023 40.2909 59.4436 40.4704 59.2728 40.8604L57.8145 44.1912Z" fill="#032068"/>
<path d="M65.3197 35.5206C64.8508 36.2509 64.1351 38.2668 65.0235 40.4873C65.4677 39.6596 66.1488 37.5072 65.3197 35.5206Z" fill="#032068"/>
<path d="M46.2944 38.3692C47.01 38.1988 48.8113 38.0915 50.292 39.0265C49.6997 39.684 48.0711 40.4727 46.2944 38.3692Z" fill="#032068"/>
<path d="M51.0321 34.498C50.8841 35.8127 50.7361 37.4927 50.6621 38.7343C50.3066 39.1434 49.4282 39.5378 49.0333 39.6838C50.0402 38.5737 50.5879 36.1049 51.0321 34.498Z" fill="#032068"/>
<path d="M59.555 45.6946C59.6142 45.5193 60.2211 44.9399 60.5173 44.6721C61.1342 44.5991 62.3236 44.6721 62.1459 45.5486C61.9239 46.6442 61.7017 47.5207 60.5173 47.1555C59.5697 46.8634 59.6782 46.2547 59.851 45.9869C59.7277 45.9625 59.4957 45.87 59.555 45.6946Z" fill="#EFCB96"/>
<path d="M56.7132 53.997L56.0191 50.0286V53.997H56.7132Z" fill="white"/>
<path d="M57.6948 25.2948L57.7688 26.6095L57.7869 28.0468C57.8143 28.0456 57.8974 27.9222 57.9244 27.9215C59.2499 27.8905 60.3554 28.5504 60.7423 28.8607C61.2605 26.7424 59.4715 25.2948 59.4715 24.4913C59.4715 23.6879 59.1013 21.2045 56.5844 21.1314C54.6963 21.0766 54.1796 22.6014 54.1427 23.695C54.139 23.8062 54.242 23.888 54.3478 23.8495C54.8548 23.6649 55.5029 23.1512 55.8883 22.7476C55.9956 22.6353 56.2167 22.6712 56.2866 22.8093C56.4647 23.1615 56.7255 23.4877 56.9121 23.7106C56.9395 23.7432 56.9544 23.7838 56.9551 23.8261C56.9592 24.0332 56.9811 24.3142 57.0147 24.5917C57.0384 24.7864 57.3127 24.7857 57.3746 24.5994C57.4443 24.39 57.5284 24.1897 57.6208 24.0531C57.9168 23.6148 58.361 23.98 58.361 24.4913C58.361 24.9004 57.9168 25.1974 57.6948 25.2948Z" fill="#032068"/>
<path d="M53.6971 28.2164C53.9933 27.9243 54.3141 26.4878 54.4375 25.8061C54.556 26.3904 55.1779 26.8286 55.4739 26.9747L55.244 28.0468L55.1752 27.8434C54.583 27.8434 53.9686 28.0947 53.6971 28.2164Z" fill="#032068"/>
<path d="M61.8463 45.3436L60.7738 44.9268C60.3624 44.7667 60.1252 44.34 60.2085 43.9114C60.4397 42.7225 60.7352 41.1611 60.9519 39.9107L64.6533 41.5099C64.2389 42.6202 63.4442 44.1638 63.0988 44.7967L62.9239 45.0338C62.6783 45.3673 62.235 45.4947 61.8463 45.3436Z" fill="#F4AD5E"/>
<path d="M61.2481 37.8579C61.2481 37.215 60.0883 35.3258 59.5453 34.2058C60.7379 37.7042 60.8073 38.5258 60.2521 43.7294C60.5991 42.0178 61.2481 38.1645 61.2481 37.8579Z" fill="#032068"/>
<path d="M56.6437 26.9543C56.144 27.1734 55.6491 27.0456 55.4639 26.9543L55.3252 27.639C55.9913 27.639 56.4818 27.1826 56.6437 26.9543Z" fill="#032068"/>
</svg>
