<svg width="30" height="25" viewBox="0 0 30 25" fill="none" xmlns="http://www.w3.org/2000/svg">
<path d="M6.5425 7.1625C7.44386 5.73443 8.6922 4.55789 10.1711 3.7426C11.65 2.92731 13.3113 2.49982 15 2.5C16.6889 2.49961 18.3505 2.927 19.8296 3.7423C21.3087 4.5576 22.5573 5.73425 23.4587 7.1625L25.5713 5.825C24.4442 4.04059 22.8837 2.57058 21.0353 1.55203C19.1868 0.533481 17.1105 -0.000454546 15 2.90348e-07C12.8897 -0.000243491 10.8137 0.533793 8.96543 1.55233C7.11719 2.57088 5.55691 4.04076 4.43 5.825L6.5425 7.1625ZM15 22.5C13.3113 22.5002 11.65 22.0727 10.1711 21.2574C8.6922 20.4421 7.44386 19.2656 6.5425 17.8375L4.43 19.175C5.55691 20.9592 7.11719 22.4291 8.96543 23.4477C10.8137 24.4662 12.8897 25.0002 15 25C17.1105 25.0005 19.1868 24.4665 21.0353 23.448C22.8837 22.4294 24.4442 20.9594 25.5713 19.175L23.4587 17.8375C22.5573 19.2657 21.3087 20.4424 19.8296 21.2577C18.3505 22.073 16.6889 22.5004 15 22.5ZM15 7.5C15.3315 7.5 15.6495 7.6317 15.8839 7.86612C16.1183 8.10054 16.25 8.41848 16.25 8.75C16.25 9.08152 16.1183 9.39946 15.8839 9.63388C15.6495 9.8683 15.3315 10 15 10C14.6685 10 14.3505 9.8683 14.1161 9.63388C13.8817 9.39946 13.75 9.08152 13.75 8.75C13.75 8.41848 13.8817 8.10054 14.1161 7.86612C14.3505 7.6317 14.6685 7.5 15 7.5ZM15 12.5C15.9946 12.5 16.9484 12.1049 17.6517 11.4017C18.3549 10.6984 18.75 9.74456 18.75 8.75C18.75 7.75544 18.3549 6.80161 17.6517 6.09835C16.9484 5.39509 15.9946 5 15 5C14.0054 5 13.0516 5.39509 12.3483 6.09835C11.6451 6.80161 11.25 7.75544 11.25 8.75C11.25 9.74456 11.6451 10.6984 12.3483 11.4017C13.0516 12.1049 14.0054 12.5 15 12.5ZM15 16.25C14.337 16.25 13.7011 16.5134 13.2322 16.9822C12.7634 17.4511 12.5 18.087 12.5 18.75H10C10 17.4239 10.5268 16.1521 11.4645 15.2145C12.4021 14.2768 13.6739 13.75 15 13.75C16.3261 13.75 17.5979 14.2768 18.5355 15.2145C19.4732 16.1521 20 17.4239 20 18.75H17.5C17.5 18.087 17.2366 17.4511 16.7678 16.9822C16.2989 16.5134 15.663 16.25 15 16.25ZM3.75 11.25C3.41848 11.25 3.10054 11.3817 2.86612 11.6161C2.6317 11.8505 2.5 12.1685 2.5 12.5C2.5 12.8315 2.6317 13.1495 2.86612 13.3839C3.10054 13.6183 3.41848 13.75 3.75 13.75C4.08152 13.75 4.39946 13.6183 4.63388 13.3839C4.8683 13.1495 5 12.8315 5 12.5C5 12.1685 4.8683 11.8505 4.63388 11.6161C4.39946 11.3817 4.08152 11.25 3.75 11.25ZM0 12.5C0 11.5054 0.395088 10.5516 1.09835 9.84835C1.80161 9.14509 2.75544 8.75 3.75 8.75C4.74456 8.75 5.69839 9.14509 6.40165 9.84835C7.10491 10.5516 7.5 11.5054 7.5 12.5C7.5 13.4946 7.10491 14.4484 6.40165 15.1517C5.69839 15.8549 4.74456 16.25 3.75 16.25C2.75544 16.25 1.80161 15.8549 1.09835 15.1517C0.395088 14.4484 0 13.4946 0 12.5ZM25 12.5C25 12.1685 25.1317 11.8505 25.3661 11.6161C25.6005 11.3817 25.9185 11.25 26.25 11.25C26.5815 11.25 26.8995 11.3817 27.1339 11.6161C27.3683 11.8505 27.5 12.1685 27.5 12.5C27.5 12.8315 27.3683 13.1495 27.1339 13.3839C26.8995 13.6183 26.5815 13.75 26.25 13.75C25.9185 13.75 25.6005 13.6183 25.3661 13.3839C25.1317 13.1495 25 12.8315 25 12.5ZM26.25 8.75C25.2554 8.75 24.3016 9.14509 23.5983 9.84835C22.8951 10.5516 22.5 11.5054 22.5 12.5C22.5 13.4946 22.8951 14.4484 23.5983 15.1517C24.3016 15.8549 25.2554 16.25 26.25 16.25C27.2446 16.25 28.1984 15.8549 28.9017 15.1517C29.6049 14.4484 30 13.4946 30 12.5C30 11.5054 29.6049 10.5516 28.9017 9.84835C28.1984 9.14509 27.2446 8.75 26.25 8.75Z" fill="#2D2B2D"/>
</svg>
