<svg width="60" height="42" viewBox="0 0 60 42" fill="none" xmlns="http://www.w3.org/2000/svg">
<path d="M4.18 40.06C3.65333 40.06 3.16667 39.9733 2.72 39.8C2.27333 39.62 1.88667 39.37 1.56 39.05C1.23333 38.73 0.976667 38.3533 0.79 37.92C0.61 37.4867 0.52 37.0133 0.52 36.5C0.52 35.9867 0.61 35.5133 0.79 35.08C0.976667 34.6467 1.23333 34.27 1.56 33.95C1.89333 33.63 2.28333 33.3833 2.73 33.21C3.17667 33.03 3.66333 32.94 4.19 32.94C4.69667 32.94 5.17333 33.0267 5.62 33.2C6.06667 33.3667 6.44333 33.62 6.75 33.96L6.28 34.43C5.99333 34.1367 5.67667 33.9267 5.33 33.8C4.98333 33.6667 4.61 33.6 4.21 33.6C3.79 33.6 3.4 33.6733 3.04 33.82C2.68 33.96 2.36667 34.1633 2.1 34.43C1.83333 34.69 1.62333 34.9967 1.47 35.35C1.32333 35.6967 1.25 36.08 1.25 36.5C1.25 36.92 1.32333 37.3067 1.47 37.66C1.62333 38.0067 1.83333 38.3133 2.1 38.58C2.36667 38.84 2.68 39.0433 3.04 39.19C3.4 39.33 3.79 39.4 4.21 39.4C4.61 39.4 4.98333 39.3333 5.33 39.2C5.67667 39.0667 5.99333 38.8533 6.28 38.56L6.75 39.03C6.44333 39.37 6.06667 39.6267 5.62 39.8C5.17333 39.9733 4.69333 40.06 4.18 40.06ZM10.0831 40.05C9.57646 40.05 9.11979 39.9367 8.71313 39.71C8.31313 39.4767 7.99646 39.16 7.76313 38.76C7.52979 38.3533 7.41313 37.89 7.41313 37.37C7.41313 36.8433 7.52979 36.38 7.76313 35.98C7.99646 35.58 8.31313 35.2667 8.71313 35.04C9.11313 34.8133 9.56979 34.7 10.0831 34.7C10.6031 34.7 11.0631 34.8133 11.4631 35.04C11.8698 35.2667 12.1865 35.58 12.4131 35.98C12.6465 36.38 12.7631 36.8433 12.7631 37.37C12.7631 37.89 12.6465 38.3533 12.4131 38.76C12.1865 39.16 11.8698 39.4767 11.4631 39.71C11.0565 39.9367 10.5965 40.05 10.0831 40.05ZM10.0831 39.42C10.4631 39.42 10.7998 39.3367 11.0931 39.17C11.3865 38.9967 11.6165 38.7567 11.7831 38.45C11.9565 38.1367 12.0431 37.7767 12.0431 37.37C12.0431 36.9567 11.9565 36.5967 11.7831 36.29C11.6165 35.9833 11.3865 35.7467 11.0931 35.58C10.7998 35.4067 10.4665 35.32 10.0931 35.32C9.71979 35.32 9.38646 35.4067 9.09313 35.58C8.79979 35.7467 8.56646 35.9833 8.39313 36.29C8.21979 36.5967 8.13313 36.9567 8.13313 37.37C8.13313 37.7767 8.21979 38.1367 8.39313 38.45C8.56646 38.7567 8.79979 38.9967 9.09313 39.17C9.38646 39.3367 9.71646 39.42 10.0831 39.42ZM20.7727 34.7C21.1993 34.7 21.5693 34.7833 21.8827 34.95C22.2027 35.11 22.4493 35.3567 22.6227 35.69C22.8027 36.0233 22.8927 36.4433 22.8927 36.95V40H22.1827V37.02C22.1827 36.4667 22.0493 36.05 21.7827 35.77C21.5227 35.4833 21.1527 35.34 20.6727 35.34C20.3127 35.34 19.9993 35.4167 19.7327 35.57C19.4727 35.7167 19.2693 35.9333 19.1227 36.22C18.9827 36.5 18.9127 36.84 18.9127 37.24V40H18.2027V37.02C18.2027 36.4667 18.0693 36.05 17.8027 35.77C17.536 35.4833 17.1627 35.34 16.6827 35.34C16.3293 35.34 16.0193 35.4167 15.7527 35.57C15.486 35.7167 15.2793 35.9333 15.1327 36.22C14.9927 36.5 14.9227 36.84 14.9227 37.24V40H14.2127V34.75H14.8927V36.17L14.7827 35.92C14.9427 35.54 15.1993 35.2433 15.5527 35.03C15.9127 34.81 16.336 34.7 16.8227 34.7C17.336 34.7 17.7727 34.83 18.1327 35.09C18.4927 35.3433 18.726 35.7267 18.8327 36.24L18.5527 36.13C18.706 35.7033 18.976 35.36 19.3627 35.1C19.756 34.8333 20.226 34.7 20.7727 34.7ZM31.3781 34.7C31.8048 34.7 32.1748 34.7833 32.4881 34.95C32.8081 35.11 33.0548 35.3567 33.2281 35.69C33.4081 36.0233 33.4981 36.4433 33.4981 36.95V40H32.7881V37.02C32.7881 36.4667 32.6548 36.05 32.3881 35.77C32.1281 35.4833 31.7581 35.34 31.2781 35.34C30.9181 35.34 30.6048 35.4167 30.3381 35.57C30.0781 35.7167 29.8748 35.9333 29.7281 36.22C29.5881 36.5 29.5181 36.84 29.5181 37.24V40H28.8081V37.02C28.8081 36.4667 28.6748 36.05 28.4081 35.77C28.1415 35.4833 27.7681 35.34 27.2881 35.34C26.9348 35.34 26.6248 35.4167 26.3581 35.57C26.0915 35.7167 25.8848 35.9333 25.7381 36.22C25.5981 36.5 25.5281 36.84 25.5281 37.24V40H24.8181V34.75H25.4981V36.17L25.3881 35.92C25.5481 35.54 25.8048 35.2433 26.1581 35.03C26.5181 34.81 26.9415 34.7 27.4281 34.7C27.9415 34.7 28.3781 34.83 28.7381 35.09C29.0981 35.3433 29.3315 35.7267 29.4381 36.24L29.1581 36.13C29.3115 35.7033 29.5815 35.36 29.9681 35.1C30.3615 34.8333 30.8315 34.7 31.3781 34.7ZM37.5936 40.05C37.1469 40.05 36.7569 39.9667 36.4236 39.8C36.0903 39.6333 35.8303 39.3833 35.6436 39.05C35.4636 38.7167 35.3736 38.3 35.3736 37.8V34.75H36.0836V37.72C36.0836 38.28 36.2203 38.7033 36.4936 38.99C36.7736 39.27 37.1636 39.41 37.6636 39.41C38.0303 39.41 38.3469 39.3367 38.6136 39.19C38.8869 39.0367 39.0936 38.8167 39.2336 38.53C39.3803 38.2433 39.4536 37.9 39.4536 37.5V34.75H40.1636V40H39.4836V38.56L39.5936 38.82C39.4269 39.2067 39.1669 39.51 38.8136 39.73C38.4669 39.9433 38.0603 40.05 37.5936 40.05ZM44.8223 34.7C45.249 34.7 45.6223 34.7833 45.9423 34.95C46.269 35.11 46.5223 35.3567 46.7023 35.69C46.889 36.0233 46.9823 36.4433 46.9823 36.95V40H46.2723V37.02C46.2723 36.4667 46.1323 36.05 45.8523 35.77C45.579 35.4833 45.1923 35.34 44.6923 35.34C44.319 35.34 43.9923 35.4167 43.7123 35.57C43.439 35.7167 43.2257 35.9333 43.0723 36.22C42.9257 36.5 42.8523 36.84 42.8523 37.24V40H42.1423V34.75H42.8223V36.19L42.7123 35.92C42.879 35.54 43.1457 35.2433 43.5123 35.03C43.879 34.81 44.3157 34.7 44.8223 34.7ZM48.9002 40V34.75H49.6102V40H48.9002ZM49.2602 33.59C49.1135 33.59 48.9902 33.54 48.8902 33.44C48.7902 33.34 48.7402 33.22 48.7402 33.08C48.7402 32.94 48.7902 32.8233 48.8902 32.73C48.9902 32.63 49.1135 32.58 49.2602 32.58C49.4068 32.58 49.5302 32.6267 49.6302 32.72C49.7302 32.8133 49.7802 32.93 49.7802 33.07C49.7802 33.2167 49.7302 33.34 49.6302 33.44C49.5368 33.54 49.4135 33.59 49.2602 33.59ZM53.2457 40.05C52.7524 40.05 52.3724 39.9167 52.1057 39.65C51.839 39.3833 51.7057 39.0067 51.7057 38.52V33.59H52.4157V38.48C52.4157 38.7867 52.4924 39.0233 52.6457 39.19C52.8057 39.3567 53.0324 39.44 53.3257 39.44C53.639 39.44 53.899 39.35 54.1057 39.17L54.3557 39.68C54.2157 39.8067 54.0457 39.9 53.8457 39.96C53.6524 40.02 53.4524 40.05 53.2457 40.05ZM50.7657 35.34V34.75H54.0157V35.34H50.7657ZM55.5905 41.99C55.3439 41.99 55.1072 41.95 54.8805 41.87C54.6605 41.79 54.4705 41.67 54.3105 41.51L54.6405 40.98C54.7739 41.1067 54.9172 41.2033 55.0705 41.27C55.2305 41.3433 55.4072 41.38 55.6005 41.38C55.8339 41.38 56.0339 41.3133 56.2005 41.18C56.3739 41.0533 56.5372 40.8267 56.6905 40.5L57.0305 39.73L57.1105 39.62L59.2705 34.75H59.9705L57.3405 40.63C57.1939 40.97 57.0305 41.24 56.8505 41.44C56.6772 41.64 56.4872 41.78 56.2805 41.86C56.0739 41.9467 55.8439 41.99 55.5905 41.99ZM56.9905 40.15L54.5705 34.75H55.3105L57.4505 39.57L56.9905 40.15Z" fill="#2D2B2D"/>
<path d="M21.5425 7.1625C22.4439 5.73443 23.6922 4.55789 25.1711 3.7426C26.65 2.92731 28.3113 2.49982 30 2.5C31.6889 2.49961 33.3505 2.927 34.8296 3.7423C36.3087 4.5576 37.5573 5.73425 38.4587 7.1625L40.5713 5.825C39.4442 4.04059 37.8837 2.57058 36.0353 1.55203C34.1868 0.533481 32.1105 -0.000454546 30 2.90348e-07C27.8897 -0.000243491 25.8137 0.533793 23.9654 1.55233C22.1172 2.57088 20.5569 4.04076 19.43 5.825L21.5425 7.1625ZM30 22.5C28.3113 22.5002 26.65 22.0727 25.1711 21.2574C23.6922 20.4421 22.4439 19.2656 21.5425 17.8375L19.43 19.175C20.5569 20.9592 22.1172 22.4291 23.9654 23.4477C25.8137 24.4662 27.8897 25.0002 30 25C32.1105 25.0005 34.1868 24.4665 36.0353 23.448C37.8837 22.4294 39.4442 20.9594 40.5713 19.175L38.4587 17.8375C37.5573 19.2657 36.3087 20.4424 34.8296 21.2577C33.3505 22.073 31.6889 22.5004 30 22.5ZM30 7.5C30.3315 7.5 30.6495 7.6317 30.8839 7.86612C31.1183 8.10054 31.25 8.41848 31.25 8.75C31.25 9.08152 31.1183 9.39946 30.8839 9.63388C30.6495 9.8683 30.3315 10 30 10C29.6685 10 29.3505 9.8683 29.1161 9.63388C28.8817 9.39946 28.75 9.08152 28.75 8.75C28.75 8.41848 28.8817 8.10054 29.1161 7.86612C29.3505 7.6317 29.6685 7.5 30 7.5ZM30 12.5C30.9946 12.5 31.9484 12.1049 32.6517 11.4017C33.3549 10.6984 33.75 9.74456 33.75 8.75C33.75 7.75544 33.3549 6.80161 32.6517 6.09835C31.9484 5.39509 30.9946 5 30 5C29.0054 5 28.0516 5.39509 27.3483 6.09835C26.6451 6.80161 26.25 7.75544 26.25 8.75C26.25 9.74456 26.6451 10.6984 27.3483 11.4017C28.0516 12.1049 29.0054 12.5 30 12.5ZM30 16.25C29.337 16.25 28.7011 16.5134 28.2322 16.9822C27.7634 17.4511 27.5 18.087 27.5 18.75H25C25 17.4239 25.5268 16.1521 26.4645 15.2145C27.4021 14.2768 28.6739 13.75 30 13.75C31.3261 13.75 32.5979 14.2768 33.5355 15.2145C34.4732 16.1521 35 17.4239 35 18.75H32.5C32.5 18.087 32.2366 17.4511 31.7678 16.9822C31.2989 16.5134 30.663 16.25 30 16.25ZM18.75 11.25C18.4185 11.25 18.1005 11.3817 17.8661 11.6161C17.6317 11.8505 17.5 12.1685 17.5 12.5C17.5 12.8315 17.6317 13.1495 17.8661 13.3839C18.1005 13.6183 18.4185 13.75 18.75 13.75C19.0815 13.75 19.3995 13.6183 19.6339 13.3839C19.8683 13.1495 20 12.8315 20 12.5C20 12.1685 19.8683 11.8505 19.6339 11.6161C19.3995 11.3817 19.0815 11.25 18.75 11.25ZM15 12.5C15 11.5054 15.3951 10.5516 16.0983 9.84835C16.8016 9.14509 17.7554 8.75 18.75 8.75C19.7446 8.75 20.6984 9.14509 21.4017 9.84835C22.1049 10.5516 22.5 11.5054 22.5 12.5C22.5 13.4946 22.1049 14.4484 21.4017 15.1517C20.6984 15.8549 19.7446 16.25 18.75 16.25C17.7554 16.25 16.8016 15.8549 16.0983 15.1517C15.3951 14.4484 15 13.4946 15 12.5ZM40 12.5C40 12.1685 40.1317 11.8505 40.3661 11.6161C40.6005 11.3817 40.9185 11.25 41.25 11.25C41.5815 11.25 41.8995 11.3817 42.1339 11.6161C42.3683 11.8505 42.5 12.1685 42.5 12.5C42.5 12.8315 42.3683 13.1495 42.1339 13.3839C41.8995 13.6183 41.5815 13.75 41.25 13.75C40.9185 13.75 40.6005 13.6183 40.3661 13.3839C40.1317 13.1495 40 12.8315 40 12.5ZM41.25 8.75C40.2554 8.75 39.3016 9.14509 38.5983 9.84835C37.8951 10.5516 37.5 11.5054 37.5 12.5C37.5 13.4946 37.8951 14.4484 38.5983 15.1517C39.3016 15.8549 40.2554 16.25 41.25 16.25C42.2446 16.25 43.1984 15.8549 43.9017 15.1517C44.6049 14.4484 45 13.4946 45 12.5C45 11.5054 44.6049 10.5516 43.9017 9.84835C43.1984 9.14509 42.2446 8.75 41.25 8.75Z" fill="#2D2B2D"/>
</svg>
