<svg width="82" height="82" viewBox="0 0 82 82" fill="none" xmlns="http://www.w3.org/2000/svg">
<path d="M0 5C0 2.23858 2.23858 0 5 0H77C79.7614 0 82 2.23858 82 5V77C82 79.7614 79.7614 82 77 82H5C2.23858 82 0 79.7614 0 77V5Z" fill="white"/>
<path d="M17.05 71V64H20C20.7467 64 21.4033 64.1467 21.97 64.44C22.5433 64.7333 22.9867 65.1433 23.3 65.67C23.62 66.1967 23.78 66.8067 23.78 67.5C23.78 68.1933 23.62 68.8033 23.3 69.33C22.9867 69.8567 22.5433 70.2667 21.97 70.56C21.4033 70.8533 20.7467 71 20 71H17.05ZM18.05 70.13H19.94C20.52 70.13 21.02 70.02 21.44 69.8C21.8667 69.58 22.1967 69.2733 22.43 68.88C22.6633 68.48 22.78 68.02 22.78 67.5C22.78 66.9733 22.6633 66.5133 22.43 66.12C22.1967 65.7267 21.8667 65.42 21.44 65.2C21.02 64.98 20.52 64.87 19.94 64.87H18.05V70.13ZM27.5317 71.06C26.9651 71.06 26.4651 70.9433 26.0317 70.71C25.6051 70.4767 25.2717 70.1567 25.0317 69.75C24.7984 69.3433 24.6817 68.8767 24.6817 68.35C24.6817 67.8233 24.7951 67.3567 25.0217 66.95C25.2551 66.5433 25.5717 66.2267 25.9717 66C26.3784 65.7667 26.8351 65.65 27.3417 65.65C27.8551 65.65 28.3084 65.7633 28.7017 65.99C29.0951 66.2167 29.4017 66.5367 29.6217 66.95C29.8484 67.3567 29.9617 67.8333 29.9617 68.38C29.9617 68.42 29.9584 68.4667 29.9517 68.52C29.9517 68.5733 29.9484 68.6233 29.9417 68.67H25.4317V67.98H29.4417L29.0517 68.22C29.0584 67.88 28.9884 67.5767 28.8417 67.31C28.6951 67.0433 28.4917 66.8367 28.2317 66.69C27.9784 66.5367 27.6817 66.46 27.3417 66.46C27.0084 66.46 26.7117 66.5367 26.4517 66.69C26.1917 66.8367 25.9884 67.0467 25.8417 67.32C25.6951 67.5867 25.6217 67.8933 25.6217 68.24V68.4C25.6217 68.7533 25.7017 69.07 25.8617 69.35C26.0284 69.6233 26.2584 69.8367 26.5517 69.99C26.8451 70.1433 27.1817 70.22 27.5617 70.22C27.8751 70.22 28.1584 70.1667 28.4117 70.06C28.6717 69.9533 28.8984 69.7933 29.0917 69.58L29.6217 70.2C29.3817 70.48 29.0817 70.6933 28.7217 70.84C28.3684 70.9867 27.9717 71.06 27.5317 71.06ZM32.8148 71.06C32.3748 71.06 31.9548 71 31.5548 70.88C31.1614 70.76 30.8514 70.6133 30.6248 70.44L31.0248 69.68C31.2514 69.8333 31.5314 69.9633 31.8648 70.07C32.1981 70.1767 32.5381 70.23 32.8848 70.23C33.3314 70.23 33.6514 70.1667 33.8448 70.04C34.0448 69.9133 34.1448 69.7367 34.1448 69.51C34.1448 69.3433 34.0848 69.2133 33.9648 69.12C33.8448 69.0267 33.6848 68.9567 33.4848 68.91C33.2914 68.8633 33.0748 68.8233 32.8348 68.79C32.5948 68.75 32.3548 68.7033 32.1148 68.65C31.8748 68.59 31.6548 68.51 31.4548 68.41C31.2548 68.3033 31.0948 68.16 30.9748 67.98C30.8548 67.7933 30.7948 67.5467 30.7948 67.24C30.7948 66.92 30.8848 66.64 31.0648 66.4C31.2448 66.16 31.4981 65.9767 31.8248 65.85C32.1581 65.7167 32.5514 65.65 33.0048 65.65C33.3514 65.65 33.7014 65.6933 34.0548 65.78C34.4148 65.86 34.7081 65.9767 34.9348 66.13L34.5248 66.89C34.2848 66.73 34.0348 66.62 33.7748 66.56C33.5148 66.5 33.2548 66.47 32.9948 66.47C32.5748 66.47 32.2614 66.54 32.0548 66.68C31.8481 66.8133 31.7448 66.9867 31.7448 67.2C31.7448 67.38 31.8048 67.52 31.9248 67.62C32.0514 67.7133 32.2114 67.7867 32.4048 67.84C32.6048 67.8933 32.8248 67.94 33.0648 67.98C33.3048 68.0133 33.5448 68.06 33.7848 68.12C34.0248 68.1733 34.2414 68.25 34.4348 68.35C34.6348 68.45 34.7948 68.59 34.9148 68.77C35.0414 68.95 35.1048 69.19 35.1048 69.49C35.1048 69.81 35.0114 70.0867 34.8248 70.32C34.6381 70.5533 34.3748 70.7367 34.0348 70.87C33.6948 70.9967 33.2881 71.06 32.8148 71.06ZM36.3045 71V65.7H37.2645V71H36.3045ZM36.7845 64.68C36.5979 64.68 36.4412 64.62 36.3145 64.5C36.1945 64.38 36.1345 64.2333 36.1345 64.06C36.1345 63.88 36.1945 63.73 36.3145 63.61C36.4412 63.49 36.5979 63.43 36.7845 63.43C36.9712 63.43 37.1245 63.49 37.2445 63.61C37.3712 63.7233 37.4345 63.8667 37.4345 64.04C37.4345 64.22 37.3745 64.3733 37.2545 64.5C37.1345 64.62 36.9779 64.68 36.7845 64.68ZM41.4175 73C40.9308 73 40.4575 72.93 39.9975 72.79C39.5442 72.6567 39.1742 72.4633 38.8875 72.21L39.3475 71.47C39.5942 71.6833 39.8975 71.85 40.2575 71.97C40.6175 72.0967 40.9942 72.16 41.3875 72.16C42.0142 72.16 42.4742 72.0133 42.7675 71.72C43.0608 71.4267 43.2075 70.98 43.2075 70.38V69.26L43.3075 68.21L43.2575 67.15V65.7H44.1675V70.28C44.1675 71.2133 43.9342 71.9 43.4675 72.34C43.0008 72.78 42.3175 73 41.4175 73ZM41.2975 70.78C40.7842 70.78 40.3242 70.6733 39.9175 70.46C39.5175 70.24 39.1975 69.9367 38.9575 69.55C38.7242 69.1633 38.6075 68.7167 38.6075 68.21C38.6075 67.6967 38.7242 67.25 38.9575 66.87C39.1975 66.4833 39.5175 66.1833 39.9175 65.97C40.3242 65.7567 40.7842 65.65 41.2975 65.65C41.7508 65.65 42.1642 65.7433 42.5375 65.93C42.9108 66.11 43.2075 66.39 43.4275 66.77C43.6542 67.15 43.7675 67.63 43.7675 68.21C43.7675 68.7833 43.6542 69.26 43.4275 69.64C43.2075 70.02 42.9108 70.3067 42.5375 70.5C42.1642 70.6867 41.7508 70.78 41.2975 70.78ZM41.4075 69.94C41.7608 69.94 42.0742 69.8667 42.3475 69.72C42.6208 69.5733 42.8342 69.37 42.9875 69.11C43.1475 68.85 43.2275 68.55 43.2275 68.21C43.2275 67.87 43.1475 67.57 42.9875 67.31C42.8342 67.05 42.6208 66.85 42.3475 66.71C42.0742 66.5633 41.7608 66.49 41.4075 66.49C41.0542 66.49 40.7375 66.5633 40.4575 66.71C40.1842 66.85 39.9675 67.05 39.8075 67.31C39.6542 67.57 39.5775 67.87 39.5775 68.21C39.5775 68.55 39.6542 68.85 39.8075 69.11C39.9675 69.37 40.1842 69.5733 40.4575 69.72C40.7375 69.8667 41.0542 69.94 41.4075 69.94ZM48.8318 65.65C49.2651 65.65 49.6451 65.7333 49.9718 65.9C50.3051 66.0667 50.5651 66.32 50.7518 66.66C50.9385 67 51.0318 67.43 51.0318 67.95V71H50.0718V68.06C50.0718 67.5467 49.9451 67.16 49.6918 66.9C49.4451 66.64 49.0951 66.51 48.6418 66.51C48.3018 66.51 48.0051 66.5767 47.7518 66.71C47.4985 66.8433 47.3018 67.04 47.1618 67.3C47.0285 67.56 46.9618 67.8833 46.9618 68.27V71H46.0018V65.7H46.9218V67.13L46.7718 66.75C46.9451 66.4033 47.2118 66.1333 47.5718 65.94C47.9318 65.7467 48.3518 65.65 48.8318 65.65ZM52.8084 71V65.7H53.7684V71H52.8084ZM53.2884 64.68C53.1018 64.68 52.9451 64.62 52.8184 64.5C52.6984 64.38 52.6384 64.2333 52.6384 64.06C52.6384 63.88 52.6984 63.73 52.8184 63.61C52.9451 63.49 53.1018 63.43 53.2884 63.43C53.4751 63.43 53.6284 63.49 53.7484 63.61C53.8751 63.7233 53.9384 63.8667 53.9384 64.04C53.9384 64.22 53.8784 64.3733 53.7584 64.5C53.6384 64.62 53.4818 64.68 53.2884 64.68ZM58.4314 65.65C58.8647 65.65 59.2447 65.7333 59.5714 65.9C59.9047 66.0667 60.1647 66.32 60.3514 66.66C60.5381 67 60.6314 67.43 60.6314 67.95V71H59.6714V68.06C59.6714 67.5467 59.5447 67.16 59.2914 66.9C59.0447 66.64 58.6947 66.51 58.2414 66.51C57.9014 66.51 57.6047 66.5767 57.3514 66.71C57.0981 66.8433 56.9014 67.04 56.7614 67.3C56.6281 67.56 56.5614 67.8833 56.5614 68.27V71H55.6014V65.7H56.5214V67.13L56.3714 66.75C56.5447 66.4033 56.8114 66.1333 57.1714 65.94C57.5314 65.7467 57.9514 65.65 58.4314 65.65ZM64.728 73C64.2414 73 63.768 72.93 63.308 72.79C62.8547 72.6567 62.4847 72.4633 62.198 72.21L62.658 71.47C62.9047 71.6833 63.208 71.85 63.568 71.97C63.928 72.0967 64.3047 72.16 64.698 72.16C65.3247 72.16 65.7847 72.0133 66.078 71.72C66.3714 71.4267 66.518 70.98 66.518 70.38V69.26L66.618 68.21L66.568 67.15V65.7H67.478V70.28C67.478 71.2133 67.2447 71.9 66.778 72.34C66.3114 72.78 65.628 73 64.728 73ZM64.608 70.78C64.0947 70.78 63.6347 70.6733 63.228 70.46C62.828 70.24 62.508 69.9367 62.268 69.55C62.0347 69.1633 61.918 68.7167 61.918 68.21C61.918 67.6967 62.0347 67.25 62.268 66.87C62.508 66.4833 62.828 66.1833 63.228 65.97C63.6347 65.7567 64.0947 65.65 64.608 65.65C65.0614 65.65 65.4747 65.7433 65.848 65.93C66.2214 66.11 66.518 66.39 66.738 66.77C66.9647 67.15 67.078 67.63 67.078 68.21C67.078 68.7833 66.9647 69.26 66.738 69.64C66.518 70.02 66.2214 70.3067 65.848 70.5C65.4747 70.6867 65.0614 70.78 64.608 70.78ZM64.718 69.94C65.0714 69.94 65.3847 69.8667 65.658 69.72C65.9314 69.5733 66.1447 69.37 66.298 69.11C66.458 68.85 66.538 68.55 66.538 68.21C66.538 67.87 66.458 67.57 66.298 67.31C66.1447 67.05 65.9314 66.85 65.658 66.71C65.3847 66.5633 65.0714 66.49 64.718 66.49C64.3647 66.49 64.048 66.5633 63.768 66.71C63.4947 66.85 63.278 67.05 63.118 67.31C62.9647 67.57 62.888 67.87 62.888 68.21C62.888 68.55 62.9647 68.85 63.118 69.11C63.278 69.37 63.4947 69.5733 63.768 69.72C64.048 69.8667 64.3647 69.94 64.718 69.94Z" fill="#1A1A1A"/>
<path d="M78.1997 53H1.84401C1.62015 53 1.40546 52.9111 1.24717 52.7528C1.08887 52.5945 0.999947 52.3798 0.999947 52.156C0.999947 51.9321 1.08887 51.7174 1.24717 51.5591C1.40546 51.4008 1.62015 51.3119 1.84401 51.3119H78.1996C78.4235 51.3119 78.6382 51.4008 78.7965 51.5591C78.9547 51.7174 79.0437 51.9321 79.0437 52.156C79.0437 52.3798 78.9548 52.5945 78.7965 52.7528C78.6382 52.9111 78.4235 53 78.1997 53Z" fill="#444E59"/>
<path d="M31.0763 51.2631H44.2833V52.0555H31.0763V51.2631Z" fill="#444E59"/>
<path d="M53.4596 46.1125H22.2964C21.6749 46.1125 21.171 45.6086 21.171 44.9871V24.1254C21.171 23.5039 21.6749 23 22.2964 23H53.4595C54.081 23 54.5849 23.5039 54.5849 24.1254V44.9871C54.585 45.6087 54.0811 46.1125 53.4596 46.1125Z" fill="#BBBFC2"/>
<path d="M52.6039 25.113V42.1502H23.2841V25.113L52.6039 25.113Z" fill="#28A8E0"/>
<path opacity="0.4" d="M53.5284 46.1123H48.6418V37.2253C48.6418 36.5171 49.216 35.9428 49.9243 35.9428H53.5284V46.1123ZM23.5451 37.5277H21.171V44.5275C21.171 45.4028 21.9245 46.1123 22.7998 46.1123H25.5293V39.5439C25.5293 38.4524 24.6366 37.5277 23.5451 37.5277Z" fill="#848484"/>
<path d="M53.5476 46.1125H22.3405C21.719 46.1125 21.2151 45.6086 21.2151 44.9871V24.1254C21.2151 23.5039 21.719 23 22.3405 23H53.5477C54.1692 23 54.6731 23.5039 54.6731 24.1254V44.9871C54.673 45.6087 54.1692 46.1125 53.5476 46.1125Z" stroke="#444E59" stroke-width="0.240338" stroke-miterlimit="10" stroke-linecap="round" stroke-linejoin="round"/>
<path d="M52.5598 25.113V42.1498H23.3281V25.113L52.5598 25.113Z" stroke="#444E59" stroke-width="0.240338" stroke-miterlimit="10" stroke-linecap="round" stroke-linejoin="round"/>
<path opacity="0.32" d="M46.8774 41.3301H30.7655C30.5902 41.3301 30.4222 41.2605 30.2983 41.1366C30.1744 41.0127 30.1048 40.8446 30.1048 40.6694V29.1798C30.1048 29.0046 30.1744 28.8365 30.2983 28.7126C30.4222 28.5887 30.5902 28.5191 30.7655 28.5191H46.8774C47.0527 28.5191 47.2207 28.5887 47.3446 28.7126C47.4685 28.8365 47.5381 29.0046 47.5381 29.1798V40.6694C47.5381 40.8446 47.4685 41.0127 47.3446 41.1366C47.2207 41.2605 47.0527 41.3301 46.8774 41.3301Z" fill="#848484"/>
<path d="M46.1321 40.6973H30.0201C29.9333 40.6973 29.8474 40.6802 29.7673 40.647C29.6871 40.6138 29.6143 40.5652 29.5529 40.5038C29.4916 40.4425 29.4429 40.3696 29.4097 40.2895C29.3765 40.2093 29.3594 40.1234 29.3594 40.0366V28.5472C29.3594 28.4604 29.3765 28.3745 29.4097 28.2943C29.4429 28.2142 29.4916 28.1413 29.5529 28.08C29.6143 28.0186 29.6871 27.9699 29.7673 27.9367C29.8474 27.9035 29.9333 27.8864 30.0201 27.8864H46.1321C46.3073 27.8864 46.4753 27.9561 46.5992 28.08C46.7232 28.2039 46.7928 28.3719 46.7928 28.5472V40.0367C46.7927 40.2119 46.7231 40.38 46.5992 40.5038C46.4753 40.6277 46.3073 40.6973 46.1321 40.6973Z" fill="#AFB1B2"/>
<path d="M46.1321 40.6973H30.0201C29.9333 40.6973 29.8474 40.6802 29.7673 40.647C29.6871 40.6138 29.6143 40.5652 29.5529 40.5038C29.4916 40.4425 29.4429 40.3696 29.4097 40.2895C29.3765 40.2093 29.3594 40.1234 29.3594 40.0366V28.5472C29.3594 28.4604 29.3765 28.3745 29.4097 28.2943C29.4429 28.2142 29.4916 28.1413 29.5529 28.08C29.6143 28.0186 29.6871 27.9699 29.7673 27.9367C29.8474 27.9035 29.9333 27.8864 30.0201 27.8864H46.1321C46.3073 27.8864 46.4753 27.9561 46.5992 28.08C46.7232 28.2039 46.7928 28.3719 46.7928 28.5472V40.0367C46.7927 40.2119 46.7231 40.38 46.5992 40.5038C46.4753 40.6277 46.3073 40.6973 46.1321 40.6973Z" stroke="#444E59" stroke-width="0.240338" stroke-miterlimit="10" stroke-linecap="round" stroke-linejoin="round"/>
<path d="M41.8698 51.2634H34.0182L34.9905 46.1125H40.8976L41.8698 51.2634Z" fill="#AEAEAF"/>
<path opacity="0.32" d="M41.1627 47.5654L40.8975 46.1125H34.9904L34.7253 47.5654H41.1627Z" fill="#848484"/>
<path d="M41.8698 51.2634H34.0182L34.9904 46.1125H40.8975L41.8698 51.2634ZM31.0763 51.2634H44.2833V52.0558H31.0763V51.2634Z" stroke="#444E59" stroke-width="0.240338" stroke-miterlimit="10" stroke-linecap="round" stroke-linejoin="round"/>
<path d="M37.8954 44.3395C38.2186 44.3395 38.4806 44.0775 38.4806 43.7543C38.4806 43.4311 38.2186 43.1691 37.8954 43.1691C37.5722 43.1691 37.3102 43.4311 37.3102 43.7543C37.3102 44.0775 37.5722 44.3395 37.8954 44.3395Z" fill="#444E59"/>
<path d="M44.8114 39.509H28.6994C28.5242 39.509 28.3561 39.4394 28.2322 39.3155C28.1083 39.1916 28.0387 39.0235 28.0387 38.8483V27.3587C28.0387 27.1835 28.1083 27.0154 28.2322 26.8915C28.3561 26.7676 28.5242 26.698 28.6994 26.698H44.8114C44.9866 26.698 45.1546 26.7676 45.2786 26.8915C45.4025 27.0154 45.4721 27.1835 45.4721 27.3587V38.8483C45.4721 39.0235 45.4025 39.1916 45.2786 39.3155C45.1546 39.4394 44.9866 39.509 44.8114 39.509Z" fill="white"/>
<path d="M44.8114 39.509H28.6994C28.5242 39.509 28.3561 39.4394 28.2322 39.3155C28.1083 39.1916 28.0387 39.0235 28.0387 38.8483V27.3587C28.0387 27.1835 28.1083 27.0154 28.2322 26.8915C28.3561 26.7676 28.5242 26.698 28.6994 26.698H44.8114C44.9866 26.698 45.1546 26.7676 45.2786 26.8915C45.4025 27.0154 45.4721 27.1835 45.4721 27.3587V38.8483C45.4721 39.0235 45.4025 39.1916 45.2786 39.3155C45.1546 39.4394 44.9866 39.509 44.8114 39.509Z" stroke="#444E59" stroke-width="0.240338" stroke-miterlimit="10" stroke-linecap="round" stroke-linejoin="round"/>
<path d="M45.4721 28.679H28.0387V27.3873C28.0387 27.0081 28.3489 26.698 28.728 26.698H44.8276C44.9985 26.698 45.1624 26.7659 45.2833 26.8868C45.4042 27.0076 45.4721 27.1716 45.4721 27.3425V28.679Z" fill="#BBBFC2"/>
<path d="M45.4721 28.679H28.0387V27.3873C28.0387 27.0081 28.3489 26.698 28.728 26.698H44.8276C44.9985 26.698 45.1624 26.7659 45.2833 26.8868C45.4042 27.0076 45.4721 27.1716 45.4721 27.3425V28.679Z" stroke="#444E59" stroke-width="0.240338" stroke-miterlimit="10" stroke-linecap="round" stroke-linejoin="round"/>
<path d="M29.7234 28.0071C29.8934 28.0071 30.0312 27.8693 30.0312 27.6993C30.0312 27.5293 29.8934 27.3915 29.7234 27.3915C29.5534 27.3915 29.4156 27.5293 29.4156 27.6993C29.4156 27.8693 29.5534 28.0071 29.7234 28.0071Z" fill="#444E59"/>
<path d="M30.7403 28.0071C30.9103 28.0071 31.0481 27.8693 31.0481 27.6993C31.0481 27.5293 30.9103 27.3915 30.7403 27.3915C30.5703 27.3915 30.4325 27.5293 30.4325 27.6993C30.4325 27.8693 30.5703 28.0071 30.7403 28.0071Z" fill="#444E59"/>
<path d="M31.7573 28.0071C31.9273 28.0071 32.0651 27.8693 32.0651 27.6993C32.0651 27.5293 31.9273 27.3915 31.7573 27.3915C31.5873 27.3915 31.4495 27.5293 31.4495 27.6993C31.4495 27.8693 31.5873 28.0071 31.7573 28.0071Z" fill="#444E59"/>
<path d="M43.8317 32.1129H29.547C29.4972 32.1129 29.4495 32.0931 29.4143 32.0579C29.3792 32.0228 29.3594 31.9751 29.3594 31.9253V29.9231C29.3594 29.8734 29.3792 29.8256 29.4143 29.7905C29.4495 29.7553 29.4972 29.7355 29.547 29.7355H43.8317C43.8815 29.7355 43.9292 29.7553 43.9643 29.7905C43.9995 29.8256 44.0193 29.8734 44.0193 29.9231V31.9252C44.0193 31.9499 44.0144 31.9743 44.005 31.997C43.9956 32.0198 43.9818 32.0405 43.9644 32.0579C43.947 32.0753 43.9263 32.0892 43.9035 32.0986C43.8808 32.108 43.8564 32.1129 43.8317 32.1129Z" fill="#6567C3"/>
<path opacity="0.2" d="M33.6622 34.6221H29.547C29.4972 34.6221 29.4495 34.6023 29.4143 34.5672C29.3792 34.532 29.3594 34.4843 29.3594 34.4345V33.3569C29.3594 33.3071 29.3792 33.2594 29.4143 33.2242C29.4495 33.189 29.4972 33.1693 29.547 33.1693H33.6622C33.712 33.1693 33.7597 33.189 33.7948 33.2242C33.83 33.2594 33.8498 33.3071 33.8498 33.3569V34.4345C33.8498 34.4843 33.83 34.532 33.7948 34.5672C33.7597 34.6023 33.712 34.6221 33.6622 34.6221Z" fill="#444E59"/>
<path opacity="0.2" d="M30.0197 35.6787H33.3215M30.0197 36.7353H33.3215" stroke="#444E59" stroke-width="0.240338" stroke-miterlimit="10" stroke-linecap="round" stroke-linejoin="round"/>
<path opacity="0.2" d="M38.813 34.6221H34.6978C34.648 34.6221 34.6003 34.6023 34.5651 34.5672C34.53 34.532 34.5102 34.4843 34.5102 34.4345V33.3569C34.5102 33.3071 34.53 33.2594 34.5651 33.2242C34.6003 33.189 34.648 33.1693 34.6978 33.1693H38.813C38.8628 33.1693 38.9105 33.189 38.9457 33.2242C38.9808 33.2594 39.0006 33.3071 39.0006 33.3569V34.4345C39.0006 34.4843 38.9808 34.532 38.9457 34.5672C38.9105 34.6023 38.8628 34.6221 38.813 34.6221Z" fill="#444E59"/>
<path opacity="0.2" d="M35.1705 35.6787H38.3402M35.1705 36.7353H38.3402" stroke="#444E59" stroke-width="0.240338" stroke-miterlimit="10" stroke-linecap="round" stroke-linejoin="round"/>
<g opacity="0.2">
<path d="M43.9637 36.8673H39.8485C39.7987 36.8673 39.751 36.8475 39.7159 36.8124C39.6807 36.7772 39.6609 36.7295 39.6609 36.6797V33.3569C39.6609 33.3071 39.6807 33.2594 39.7159 33.2242C39.751 33.189 39.7987 33.1693 39.8485 33.1693H43.9637C44.0135 33.1693 44.0612 33.189 44.0964 33.2242C44.1315 33.2594 44.1513 33.3071 44.1513 33.3569V36.6797C44.1513 36.7295 44.1315 36.7772 44.0964 36.8124C44.0612 36.8475 44.0135 36.8673 43.9637 36.8673Z" fill="#444E59"/>
</g>
<g opacity="0.09">
<path d="M43.8319 37.924H39.9078C39.8377 37.924 39.7706 37.8962 39.721 37.8467C39.6715 37.7971 39.6437 37.73 39.6437 37.6599C39.6437 37.5899 39.6715 37.5227 39.721 37.4732C39.7706 37.4236 39.8377 37.3958 39.9078 37.3958H43.8319C43.902 37.3958 43.9691 37.4236 44.0187 37.4732C44.0682 37.5227 44.096 37.5899 44.096 37.6599C44.096 37.73 44.0682 37.7971 44.0187 37.8467C43.9691 37.8962 43.902 37.924 43.8319 37.924Z" fill="#444E59"/>
</g>
<path d="M14.3656 48.04H6.80381C6.71398 48.0393 6.62696 48.0713 6.55904 48.1301L4.73418 49.729C4.69443 49.7638 4.66257 49.8067 4.64074 49.8548C4.61891 49.9029 4.60762 49.9551 4.60762 50.008C4.60762 50.0608 4.61891 50.113 4.64074 50.1612C4.66257 50.2093 4.69443 50.2522 4.73418 50.287L6.55904 51.9103C6.62675 51.9697 6.71378 52.0259 6.80381 52.0259H14.3656C14.7938 52.0259 15.1488 51.6313 15.1488 51.2032V48.8113C15.1488 48.3831 14.7938 48.04 14.3656 48.04ZM6.60565 50.4723C6.54402 50.4732 6.48284 50.4618 6.42565 50.4388C6.36846 50.4158 6.31641 50.3817 6.27253 50.3385C6.22864 50.2952 6.19379 50.2436 6.17 50.1868C6.14621 50.1299 6.13397 50.0689 6.13397 50.0073C6.13397 49.9456 6.14621 49.8846 6.17 49.8278C6.19379 49.7709 6.22864 49.7193 6.27253 49.6761C6.31641 49.6328 6.36846 49.5987 6.42565 49.5757C6.48284 49.5527 6.54402 49.5414 6.60565 49.5422C6.72784 49.544 6.84443 49.5937 6.93023 49.6807C7.01602 49.7678 7.06412 49.8851 7.06412 50.0073C7.06412 50.1295 7.01602 50.2468 6.93023 50.3338C6.84443 50.4208 6.72784 50.4706 6.60565 50.4723Z" fill="white"/>
<path d="M8.54057 48.04H10.7433V52.0259H8.54057V48.04Z" fill="#F09F54"/>
<path d="M10.7433 48.04H12.946V52.0259H10.7433V48.04Z" fill="#ED8B3B"/>
<path d="M14.1684 52.0259H12.946V48.04H14.2038C14.7235 48.04 15.1488 48.4652 15.1488 48.985V51.0456C15.1488 51.5848 14.7077 52.0259 14.1684 52.0259Z" fill="#FF6C37"/>
<path opacity="0.4" d="M14.5736 48.2348C14.5357 48.2296 14.4976 48.2271 14.4594 48.2275H6.89759C6.80776 48.2268 6.72074 48.2588 6.65282 48.3176L4.82796 49.9165C4.78821 49.9513 4.75635 49.9942 4.73452 50.0423C4.71269 50.0904 4.7014 50.1427 4.7014 50.1955C4.7014 50.2483 4.71269 50.3006 4.73452 50.3487C4.75635 50.3968 4.78821 50.4397 4.82796 50.4745L5.96772 51.4734L7.20652 51.7869C7.2674 51.8023 7.32997 51.8101 7.39277 51.8101C7.51267 51.81 7.63085 51.7816 7.73771 51.7272L14.4736 48.2915C14.5082 48.2738 14.5415 48.2554 14.5736 48.2348ZM6.69943 50.6597C6.6378 50.6606 6.57662 50.6492 6.51943 50.6262C6.46225 50.6033 6.41019 50.5692 6.36631 50.5259C6.32242 50.4826 6.28757 50.4311 6.26378 50.3742C6.24 50.3173 6.22775 50.2563 6.22775 50.1947C6.22775 50.1331 6.24 50.072 6.26378 50.0152C6.28757 49.9583 6.32242 49.9068 6.36631 49.8635C6.41019 49.8202 6.46225 49.7861 6.51943 49.7631C6.57662 49.7402 6.6378 49.7288 6.69943 49.7297C6.82162 49.7314 6.93821 49.7812 7.02401 49.8682C7.1098 49.9552 7.1579 50.0725 7.1579 50.1947C7.1579 50.3169 7.1098 50.4342 7.02401 50.5212C6.93821 50.6082 6.82162 50.658 6.69943 50.6597Z" fill="#848484"/>
<path d="M14.3656 48.04H6.80381C6.71398 48.0393 6.62696 48.0713 6.55904 48.1301L4.73418 49.729C4.69443 49.7638 4.66257 49.8067 4.64074 49.8548C4.61891 49.9029 4.60762 49.9551 4.60762 50.008C4.60762 50.0608 4.61891 50.113 4.64074 50.1612C4.66257 50.2093 4.69443 50.2522 4.73418 50.287L6.55904 51.9103C6.62675 51.9697 6.71378 52.0259 6.80381 52.0259H14.3656C14.7938 52.0259 15.1488 51.6313 15.1488 51.2032V48.8113C15.1488 48.3831 14.7938 48.04 14.3656 48.04ZM6.60565 50.4723C6.54402 50.4732 6.48284 50.4618 6.42565 50.4388C6.36846 50.4158 6.31641 50.3817 6.27253 50.3385C6.22864 50.2952 6.19379 50.2436 6.17 50.1868C6.14621 50.1299 6.13397 50.0689 6.13397 50.0073C6.13397 49.9456 6.14621 49.8846 6.17 49.8278C6.19379 49.7709 6.22864 49.7193 6.27253 49.6761C6.31641 49.6328 6.36846 49.5987 6.42565 49.5757C6.48284 49.5527 6.54402 49.5414 6.60565 49.5422C6.72784 49.544 6.84443 49.5937 6.93023 49.6807C7.01602 49.7678 7.06412 49.8851 7.06412 50.0073C7.06412 50.1295 7.01602 50.2468 6.93023 50.3338C6.84443 50.4208 6.72784 50.4706 6.60565 50.4723Z" stroke="#444E59" stroke-width="0.240338" stroke-miterlimit="10" stroke-linecap="round" stroke-linejoin="round"/>
<path d="M10.7433 48.04H8.54057V52.0259H10.7433M10.7433 48.04V52.0259M10.7433 48.04H12.946M10.7433 52.0259H12.946M12.946 48.04V52.0259M12.946 48.04H14.2037C14.7235 48.04 15.1488 48.4652 15.1488 48.985V51.0456C15.1488 51.5848 14.7076 52.0259 14.1684 52.0259H12.946" stroke="#444E59" stroke-width="0.240338" stroke-miterlimit="10" stroke-linecap="round" stroke-linejoin="round"/>
<path d="M12.4119 44.2462L5.67615 47.6828C5.59593 47.7238 5.5333 47.7924 5.49993 47.8761L4.60148 50.1305C4.5819 50.1796 4.57304 50.2323 4.57548 50.2851C4.57792 50.338 4.59161 50.3896 4.61564 50.4367C4.63966 50.4838 4.67347 50.5252 4.71479 50.5582C4.75612 50.5912 4.80401 50.615 4.85526 50.6279L7.20774 51.2237C7.29507 51.2458 7.38746 51.2354 7.46771 51.1945L14.2035 47.7578C14.2942 47.7116 14.3748 47.6479 14.4409 47.5705C14.507 47.493 14.5572 47.4033 14.5886 47.3065C14.62 47.2097 14.632 47.1076 14.6239 47.0061C14.6159 46.9046 14.5879 46.8057 14.5417 46.7151L13.4546 44.5845C13.4084 44.4938 13.3447 44.4131 13.2673 44.347C13.1899 44.2809 13.1002 44.2307 13.0033 44.1993C12.9065 44.1679 12.8045 44.1559 12.703 44.1639C12.6015 44.172 12.5026 44.1999 12.4119 44.2462Z" fill="white"/>
<path d="M9.1803 45.8946L11.1421 44.8936L12.9338 48.4052L10.9719 49.4061L9.1803 45.8946Z" fill="#8D91DB"/>
<path d="M12.4119 44.2462L5.67615 47.6828C5.59593 47.7238 5.5333 47.7924 5.49993 47.8761L4.60148 50.1305C4.5819 50.1796 4.57304 50.2323 4.57548 50.2851C4.57792 50.338 4.59161 50.3896 4.61564 50.4367C4.63966 50.4838 4.67347 50.5252 4.71479 50.5582C4.75612 50.5912 4.80401 50.615 4.85526 50.6279L7.20774 51.2237C7.29507 51.2458 7.38746 51.2354 7.46771 51.1945L14.2035 47.7578C14.2942 47.7116 14.3748 47.6479 14.4409 47.5705C14.507 47.493 14.5572 47.4033 14.5886 47.3065C14.62 47.2097 14.632 47.1076 14.6239 47.0061C14.6159 46.9046 14.5879 46.8057 14.5417 46.7151L13.4546 44.5845C13.4084 44.4938 13.3447 44.4131 13.2673 44.347C13.1899 44.2809 13.1002 44.2307 13.0033 44.1993C12.9065 44.1679 12.8045 44.1559 12.703 44.1639C12.6015 44.172 12.5026 44.1999 12.4119 44.2462Z" stroke="#444E59" stroke-width="0.240338" stroke-miterlimit="10" stroke-linecap="round" stroke-linejoin="round"/>
<path d="M6.39535 50.0718C6.69535 50.0718 6.93855 49.8286 6.93855 49.5286C6.93855 49.2286 6.69535 48.9854 6.39535 48.9854C6.09535 48.9854 5.85215 49.2286 5.85215 49.5286C5.85215 49.8286 6.09535 50.0718 6.39535 50.0718Z" fill="#444E59"/>
<path d="M7.21848 46.8957L9.18031 45.8947L10.9719 49.4063L9.01011 50.4072L7.21848 46.8957Z" fill="#BECCD5" stroke="#444E59" stroke-width="0.240338" stroke-miterlimit="10" stroke-linecap="round" stroke-linejoin="round"/>
<path d="M7.21848 46.8957L9.18031 45.8947L10.9719 49.4063L9.01011 50.4072L7.21848 46.8957Z" stroke="#444E59" stroke-width="0.240338" stroke-miterlimit="10" stroke-linecap="round" stroke-linejoin="round"/>
<path d="M9.1803 45.8946L11.1421 44.8936L12.9338 48.4052L10.9719 49.4061L9.1803 45.8946Z" stroke="#444E59" stroke-width="0.240338" stroke-miterlimit="10" stroke-linecap="round" stroke-linejoin="round"/>
<path d="M14.0587 47.8317L12.9322 48.4064L11.1406 44.8948L12.267 44.3201C12.7284 44.0847 13.2932 44.2679 13.5286 44.7293L14.4678 46.5701C14.7033 47.0314 14.52 47.5963 14.0587 47.8317Z" fill="#6567C3"/>
<path d="M14.0587 47.8317L12.9322 48.4064L11.1406 44.8948L12.267 44.3201C12.7284 44.0847 13.2932 44.2679 13.5286 44.7293L14.4678 46.5701C14.7033 47.0314 14.52 47.5963 14.0587 47.8317Z" stroke="#444E59" stroke-width="0.240338" stroke-miterlimit="10" stroke-linecap="round" stroke-linejoin="round"/>
<path d="M23.5349 52.0555H17.2222C16.7042 52.0555 16.2844 51.6357 16.2844 51.1177V38.4655C16.2844 37.9475 16.7042 37.5276 17.2222 37.5276H23.5349C24.0529 37.5276 24.4728 37.9475 24.4728 38.4655V51.1177C24.4728 51.6357 24.0529 52.0555 23.5349 52.0555Z" fill="white"/>
<path d="M24.6048 41.886H16.2844V38.4449C16.2844 37.9383 16.695 37.5276 17.2016 37.5276H23.6354C24.1685 37.5276 24.6048 37.9639 24.6048 38.4971V41.886Z" fill="#6567C3"/>
<path d="M23.5349 52.0555H17.2222C16.7042 52.0555 16.2844 51.6357 16.2844 51.1177V38.4655C16.2844 37.9475 16.7042 37.5276 17.2222 37.5276H23.5349C24.0529 37.5276 24.4728 37.9475 24.4728 38.4655V51.1177C24.4728 51.6357 24.0529 52.0555 23.5349 52.0555Z" stroke="#444E59" stroke-width="0.240338" stroke-miterlimit="10" stroke-linecap="round" stroke-linejoin="round"/>
<path d="M23.5451 52.0558H17.2552C16.7212 52.0558 16.2844 51.619 16.2844 51.085V49.2823H24.4728V51.1282C24.4728 51.6405 24.0575 52.0558 23.5451 52.0558Z" fill="#BBBFC2"/>
<path d="M23.5639 52.0558H17.2552C16.7212 52.0558 16.2844 51.619 16.2844 51.085V49.2823H24.4728V51.1469C24.4728 51.6489 24.0658 52.0558 23.5639 52.0558Z" stroke="#444E59" stroke-width="0.240338" stroke-miterlimit="10" stroke-linecap="round" stroke-linejoin="round"/>
<path d="M20.4456 51.0735C20.7033 51.0735 20.9122 50.8645 20.9122 50.6068C20.9122 50.3491 20.7033 50.1401 20.4456 50.1401C20.1878 50.1401 19.9789 50.3491 19.9789 50.6068C19.9789 50.8645 20.1878 51.0735 20.4456 51.0735Z" fill="#444E59"/>
<path opacity="0.3" d="M18.1333 43.3391H22.7559M19.0579 44.792H21.9635M18.1333 46.1126H22.7559" stroke="#444E59" stroke-width="0.240338" stroke-miterlimit="10" stroke-linecap="round" stroke-linejoin="round"/>
<path opacity="0.62" d="M20.4456 41.0905C21.0258 41.0905 21.4962 40.6201 21.4962 40.0398C21.4962 39.4595 21.0258 38.9891 20.4456 38.9891C19.8653 38.9891 19.3949 39.4595 19.3949 40.0398C19.3949 40.6201 19.8653 41.0905 20.4456 41.0905Z" fill="white"/>
<path d="M21.9635 47.5653C21.9635 47.7054 21.9078 47.8398 21.8088 47.9389C21.7097 48.0379 21.5753 48.0936 21.4352 48.0936H19.4541C19.314 48.0936 19.1796 48.0379 19.0805 47.9389C18.9815 47.8398 18.9258 47.7054 18.9258 47.5653C18.9258 47.4252 18.9815 47.2908 19.0805 47.1918C19.1796 47.0927 19.314 47.037 19.4541 47.037H21.4352C21.5753 47.037 21.7097 47.0927 21.8088 47.1918C21.9078 47.2908 21.9635 47.4252 21.9635 47.5653Z" fill="#ED8B3B"/>
<path d="M72.4145 50.3387H49.6984V36.6765C49.6984 36.4819 49.7757 36.2953 49.9133 36.1577C50.0509 36.0201 50.2375 35.9428 50.4321 35.9428H71.7052C71.8933 35.9428 72.0738 36.0176 72.2069 36.1506C72.34 36.2837 72.4147 36.4642 72.4147 36.6524V50.3387H72.4145Z" fill="#BBBFC2"/>
<path d="M72.4719 50.3625H49.7558V36.6698C49.7558 36.4708 49.8348 36.28 49.9755 36.1393C50.1163 35.9986 50.3071 35.9195 50.5061 35.9195H71.7217C71.9207 35.9195 72.1115 35.9986 72.2522 36.1393C72.3929 36.28 72.4719 36.4708 72.4719 36.6698V50.3625Z" stroke="#444E59" stroke-width="0.240338" stroke-miterlimit="10" stroke-linecap="round" stroke-linejoin="round"/>
<path opacity="0.71" d="M71.2259 37.1317V49.1502H51.0191V37.1317H71.2259Z" fill="#5D5D5D"/>
<path opacity="0.32" d="M55.9622 46.8682H54.2173C54.1685 46.8682 54.1216 46.8488 54.0871 46.8142C54.0526 46.7797 54.0332 46.7329 54.0332 46.6841V40.7128C54.0332 40.6111 54.1156 40.5287 54.2173 40.5287H55.9622C56.0639 40.5287 56.1463 40.6111 56.1463 40.7128V46.6841C56.1463 46.7329 56.1269 46.7797 56.0924 46.8142C56.0579 46.8488 56.0111 46.8682 55.9622 46.8682ZM68.5594 48.0747H58.4799C58.3804 48.0747 58.285 48.0352 58.2146 47.9648C58.1443 47.8945 58.1047 47.799 58.1047 47.6996V39.9972C58.1047 39.8977 58.1443 39.8023 58.2146 39.7319C58.285 39.6616 58.3804 39.6221 58.4799 39.6221H68.5594C68.6589 39.6221 68.7543 39.6616 68.8247 39.7319C68.8951 39.8023 68.9346 39.8977 68.9346 39.9972V47.6996C68.9346 47.799 68.8951 47.8945 68.8247 47.9648C68.7543 48.0352 68.6589 48.0747 68.5594 48.0747Z" fill="#848484"/>
<path d="M71.21 37.1816V49.1005H51.0178V37.1816H71.21Z" stroke="#444E59" stroke-width="0.240338" stroke-miterlimit="10" stroke-linecap="round" stroke-linejoin="round"/>
<path d="M74.9512 50.3627H47.2765V51.2456C47.2765 51.4445 47.3555 51.6354 47.4962 51.7761C47.6369 51.9168 47.8278 51.9958 48.0268 51.9958H74.2009C74.3999 51.9958 74.5907 51.9168 74.7315 51.7761C74.8722 51.6354 74.9512 51.4445 74.9512 51.2456V50.3627Z" fill="white"/>
<path opacity="0.8" d="M48.3331 52.0558H73.8947C74.4079 52.0558 74.8354 51.6595 74.931 51.1313H47.2968C47.3923 51.6595 47.8198 52.0558 48.3331 52.0558Z" fill="#BBBFC2"/>
<path d="M74.9512 50.3627H47.2765V51.2456C47.2765 51.4445 47.3555 51.6354 47.4962 51.7761C47.6369 51.9168 47.8278 51.9958 48.0268 51.9958H74.2009C74.3999 51.9958 74.5907 51.9168 74.7315 51.7761C74.8722 51.6354 74.9512 51.4445 74.9512 51.2456V50.3627Z" stroke="#444E59" stroke-width="0.240338" stroke-miterlimit="10" stroke-linecap="round" stroke-linejoin="round"/>
<path d="M53.5284 40.0371H55.6416V42.1502H53.5284V40.0371Z" fill="#F09F54"/>
<path d="M53.5642 40.0595H55.6774V42.1726H53.5642V40.0595Z" stroke="#444E59" stroke-width="0.240338" stroke-miterlimit="10" stroke-linecap="round" stroke-linejoin="round"/>
<path d="M53.5642 40.0595H55.6774V42.1726H53.5642V40.0595Z" stroke="#444E59" stroke-width="0.240338" stroke-miterlimit="10" stroke-linecap="round" stroke-linejoin="round"/>
<path d="M53.5284 42.1506H55.6416V44.2637H53.5284V42.1506Z" fill="#8D91DB"/>
<path d="M53.5642 42.173H55.6774V44.2861H53.5642V42.173Z" stroke="#444E59" stroke-width="0.240338" stroke-miterlimit="10" stroke-linecap="round" stroke-linejoin="round"/>
<path d="M53.5284 44.2636H55.6416V46.3768H53.5284V44.2636Z" fill="#6567C3"/>
<path d="M53.5642 44.286H55.6774V46.3992H53.5642V44.286Z" stroke="#444E59" stroke-width="0.240338" stroke-miterlimit="10" stroke-linecap="round" stroke-linejoin="round"/>
<path d="M67.9452 47.4334H57.8657C57.7662 47.4334 57.6708 47.3939 57.6004 47.3235C57.5301 47.2532 57.4905 47.1578 57.4905 47.0583V39.3559C57.4905 39.2564 57.5301 39.161 57.6004 39.0906C57.6708 39.0203 57.7662 38.9808 57.8657 38.9808H67.9452C68.0447 38.9808 68.1401 39.0203 68.2105 39.0906C68.2809 39.161 68.3204 39.2564 68.3204 39.3559V47.0583C68.3204 47.1578 68.2809 47.2532 68.2105 47.3235C68.1401 47.3939 68.0447 47.4334 67.9452 47.4334Z" fill="white"/>
<path d="M67.9452 47.4334H57.8657C57.7662 47.4334 57.6708 47.3939 57.6004 47.3235C57.5301 47.2532 57.4905 47.1577 57.4905 47.0583V39.3559C57.4905 39.2564 57.5301 39.161 57.6004 39.0906C57.6708 39.0203 57.7662 38.9808 57.8657 38.9808H67.9452C68.0447 38.9808 68.1401 39.0203 68.2105 39.0906C68.2809 39.161 68.3204 39.2564 68.3204 39.3559V47.0583C68.3204 47.1577 68.2809 47.2532 68.2105 47.3235C68.1401 47.3939 68.0447 47.4334 67.9452 47.4334Z" stroke="#444E59" stroke-width="0.240338" stroke-miterlimit="10" stroke-linecap="round" stroke-linejoin="round"/>
<g opacity="0.3">
<path d="M65.1504 45.2017V45.3424H65.0098" stroke="#444E59" stroke-width="0.120169" stroke-linejoin="round"/>
<path d="M64.8311 45.3423H60.9" stroke="#444E59" stroke-width="0.120169" stroke-linejoin="round" stroke-dasharray="0.17 0.11"/>
<path d="M60.8106 45.3424H60.6699V45.2017" stroke="#444E59" stroke-width="0.120169" stroke-linejoin="round"/>
<path d="M60.6699 45.0142V41.3511" stroke="#444E59" stroke-width="0.120169" stroke-linejoin="round" stroke-dasharray="0.18 0.12"/>
<path d="M60.67 41.2569V41.1162H60.8107" stroke="#444E59" stroke-width="0.120169" stroke-linejoin="round"/>
<path d="M60.9893 41.1163H64.9205" stroke="#444E59" stroke-width="0.120169" stroke-linejoin="round" stroke-dasharray="0.17 0.11"/>
<path d="M65.0098 41.1163H65.1504V41.2569" stroke="#444E59" stroke-width="0.120169" stroke-linejoin="round"/>
<path d="M65.1505 41.4448V45.108" stroke="#444E59" stroke-width="0.120169" stroke-linejoin="round" stroke-dasharray="0.18 0.12"/>
</g>
<path d="M60.3584 40.7847H61.0215V41.4479H60.3584V40.7847Z" fill="white"/>
<path d="M60.33 40.7633H60.9904V41.4237H60.33V40.7633Z" stroke="#444E59" stroke-width="0.0600845" stroke-miterlimit="10" stroke-linejoin="round"/>
<path d="M60.3584 45.0108H61.0215V45.674H60.3584V45.0108Z" fill="white"/>
<path d="M60.33 44.9899H60.9904V45.6502H60.33V44.9899Z" stroke="#444E59" stroke-width="0.0600845" stroke-miterlimit="10" stroke-linejoin="round"/>
<path d="M64.8189 40.7847H65.4821V41.4479H64.8189V40.7847Z" fill="white"/>
<path d="M64.8205 40.7633H65.4808V41.4237H64.8205V40.7633Z" stroke="#444E59" stroke-width="0.0600845" stroke-miterlimit="10" stroke-linejoin="round"/>
<path d="M64.8189 45.0108H65.4821V45.674H64.8189V45.0108Z" fill="white"/>
<path d="M64.8205 44.9899H65.4808V45.6502H64.8205V44.9899Z" stroke="#444E59" stroke-width="0.0600845" stroke-miterlimit="10" stroke-linejoin="round"/>
<path d="M54.6324 43.2635L55.2931 44.6908L55.9455 45.0259L56.3948 44.5766L56.0596 43.9243L54.6324 43.2635Z" fill="white"/>
<path d="M54.6324 43.2635L55.2931 44.6908L55.9455 45.0259L56.3948 44.5766L56.0596 43.9243L54.6324 43.2635Z" stroke="#444E59" stroke-width="0.0600845" stroke-miterlimit="10" stroke-linejoin="round"/>
<path d="M55.4674 44.2493C55.5668 44.2493 55.6474 44.1687 55.6474 44.0693C55.6474 43.9699 55.5668 43.8893 55.4674 43.8893C55.368 43.8893 55.2874 43.9699 55.2874 44.0693C55.2874 44.1687 55.368 44.2493 55.4674 44.2493Z" fill="#444E59"/>
<path d="M54.6324 43.2635L55.3709 44.0021" stroke="#444E59" stroke-width="0.0600845" stroke-miterlimit="10" stroke-linecap="round" stroke-linejoin="round"/>
<path d="M55.9446 45.0261L56.3974 44.5733L56.7217 44.8976L56.2689 45.3503L55.9446 45.0261Z" fill="white"/>
<path d="M55.9446 45.0261L56.3974 44.5733L56.7217 44.8976L56.2689 45.3503L55.9446 45.0261Z" stroke="#444E59" stroke-width="0.0600845" stroke-miterlimit="10" stroke-linejoin="round"/>
</svg>
