<svg width="38" height="43" viewBox="0 0 38 43" fill="none" xmlns="http://www.w3.org/2000/svg">
<path d="M17.2711 23.5422C23.4961 23.5422 28.5422 18.4961 28.5422 12.2711C28.5422 6.04615 23.4961 1 17.2711 1C11.0461 1 6 6.04615 6 12.2711C6 18.4961 11.0461 23.5422 17.2711 23.5422Z" stroke="#2D2B2D" stroke-width="2" stroke-linejoin="round"/>
<path d="M21.0218 7.85738C20.5297 7.36427 19.945 6.97321 19.3014 6.70663C18.6577 6.44005 17.9678 6.30321 17.2711 6.30396C16.5745 6.30321 15.8845 6.44005 15.2409 6.70663C14.5973 6.97321 14.0126 7.36427 13.5205 7.85738M25.3744 20.3743L31 25.9999" stroke="#2D2B2D" stroke-width="2" stroke-linecap="round" stroke-linejoin="round"/>
<path d="M1.8 37.13H5.5V37.76H1.8V37.13ZM1.88 40.36H6.09V41H1.14V34H5.94V34.64H1.88V40.36ZM6.73297 41L8.95297 38.12L8.94297 38.47L6.83297 35.75H7.63297L9.36297 38L9.06297 37.99L10.793 35.75H11.573L9.44297 38.5L9.45297 38.12L11.693 41H10.883L9.05297 38.6L9.33297 38.64L7.53297 41H6.73297ZM15.5848 41.05C15.1314 41.05 14.7214 40.9467 14.3548 40.74C13.9881 40.5267 13.6948 40.2233 13.4748 39.83C13.2614 39.43 13.1548 38.9433 13.1548 38.37C13.1548 37.7967 13.2614 37.3133 13.4748 36.92C13.6881 36.52 13.9781 36.2167 14.3448 36.01C14.7114 35.8033 15.1248 35.7 15.5848 35.7C16.0848 35.7 16.5314 35.8133 16.9248 36.04C17.3248 36.26 17.6381 36.5733 17.8648 36.98C18.0914 37.38 18.2048 37.8433 18.2048 38.37C18.2048 38.9033 18.0914 39.37 17.8648 39.77C17.6381 40.17 17.3248 40.4833 16.9248 40.71C16.5314 40.9367 16.0848 41.05 15.5848 41.05ZM12.8748 42.94V35.75H13.5548V37.33L13.4848 38.38L13.5848 39.44V42.94H12.8748ZM15.5348 40.42C15.9081 40.42 16.2414 40.3367 16.5348 40.17C16.8281 39.9967 17.0614 39.7567 17.2348 39.45C17.4081 39.1367 17.4948 38.7767 17.4948 38.37C17.4948 37.9633 17.4081 37.6067 17.2348 37.3C17.0614 36.9933 16.8281 36.7533 16.5348 36.58C16.2414 36.4067 15.9081 36.32 15.5348 36.32C15.1614 36.32 14.8248 36.4067 14.5248 36.58C14.2314 36.7533 13.9981 36.9933 13.8248 37.3C13.6581 37.6067 13.5748 37.9633 13.5748 38.37C13.5748 38.7767 13.6581 39.1367 13.8248 39.45C13.9981 39.7567 14.2314 39.9967 14.5248 40.17C14.8248 40.3367 15.1614 40.42 15.5348 40.42ZM19.6521 41V33.58H20.3621V41H19.6521ZM24.4777 41.05C23.971 41.05 23.5143 40.9367 23.1077 40.71C22.7077 40.4767 22.391 40.16 22.1577 39.76C21.9243 39.3533 21.8077 38.89 21.8077 38.37C21.8077 37.8433 21.9243 37.38 22.1577 36.98C22.391 36.58 22.7077 36.2667 23.1077 36.04C23.5077 35.8133 23.9643 35.7 24.4777 35.7C24.9977 35.7 25.4577 35.8133 25.8577 36.04C26.2643 36.2667 26.581 36.58 26.8077 36.98C27.041 37.38 27.1577 37.8433 27.1577 38.37C27.1577 38.89 27.041 39.3533 26.8077 39.76C26.581 40.16 26.2643 40.4767 25.8577 40.71C25.451 40.9367 24.991 41.05 24.4777 41.05ZM24.4777 40.42C24.8577 40.42 25.1943 40.3367 25.4877 40.17C25.781 39.9967 26.011 39.7567 26.1777 39.45C26.351 39.1367 26.4377 38.7767 26.4377 38.37C26.4377 37.9567 26.351 37.5967 26.1777 37.29C26.011 36.9833 25.781 36.7467 25.4877 36.58C25.1943 36.4067 24.861 36.32 24.4877 36.32C24.1143 36.32 23.781 36.4067 23.4877 36.58C23.1943 36.7467 22.961 36.9833 22.7877 37.29C22.6143 37.5967 22.5277 37.9567 22.5277 38.37C22.5277 38.7767 22.6143 39.1367 22.7877 39.45C22.961 39.7567 23.1943 39.9967 23.4877 40.17C23.781 40.3367 24.111 40.42 24.4777 40.42ZM28.6072 41V35.75H29.2872V37.18L29.2172 36.93C29.3639 36.53 29.6105 36.2267 29.9572 36.02C30.3039 35.8067 30.7339 35.7 31.2472 35.7V36.39C31.2205 36.39 31.1939 36.39 31.1672 36.39C31.1405 36.3833 31.1139 36.38 31.0872 36.38C30.5339 36.38 30.1005 36.55 29.7872 36.89C29.4739 37.2233 29.3172 37.7 29.3172 38.32V41H28.6072ZM34.7239 41.05C34.1772 41.05 33.6972 40.9367 33.2839 40.71C32.8706 40.4767 32.5472 40.16 32.3139 39.76C32.0806 39.3533 31.9639 38.89 31.9639 38.37C31.9639 37.85 32.0739 37.39 32.2939 36.99C32.5206 36.59 32.8272 36.2767 33.2139 36.05C33.6072 35.8167 34.0472 35.7 34.5339 35.7C35.0272 35.7 35.4639 35.8133 35.8439 36.04C36.2306 36.26 36.5339 36.5733 36.7539 36.98C36.9739 37.38 37.0839 37.8433 37.0839 38.37C37.0839 38.4033 37.0806 38.44 37.0739 38.48C37.0739 38.5133 37.0739 38.55 37.0739 38.59H32.5039V38.06H36.6939L36.4139 38.27C36.4139 37.89 36.3306 37.5533 36.1639 37.26C36.0039 36.96 35.7839 36.7267 35.5039 36.56C35.2239 36.3933 34.9006 36.31 34.5339 36.31C34.1739 36.31 33.8506 36.3933 33.5639 36.56C33.2772 36.7267 33.0539 36.96 32.8939 37.26C32.7339 37.56 32.6539 37.9033 32.6539 38.29V38.4C32.6539 38.8 32.7406 39.1533 32.9139 39.46C33.0939 39.76 33.3406 39.9967 33.6539 40.17C33.9739 40.3367 34.3372 40.42 34.7439 40.42C35.0639 40.42 35.3606 40.3633 35.6339 40.25C35.9139 40.1367 36.1539 39.9633 36.3539 39.73L36.7539 40.19C36.5206 40.47 36.2272 40.6833 35.8739 40.83C35.5272 40.9767 35.1439 41.05 34.7239 41.05Z" fill="#2D2B2D"/>
</svg>
