<svg width="32" height="42" viewBox="0 0 32 42" fill="none" xmlns="http://www.w3.org/2000/svg">
<path d="M16.3835 0.365987L27.6314 11.6161C28.4187 12.4036 27.8613 13.7499 26.7478 13.7499H25.498V21.25C25.498 22.2445 25.103 23.1984 24.3999 23.9016C23.6967 24.6049 22.7431 25 21.7487 25H20.4989V16.2499C20.499 15.2934 20.1336 14.373 19.4775 13.6771C18.8214 12.9811 17.9243 12.5622 16.9696 12.5061L16.7496 12.4999H14.2501C13.2557 12.4999 12.3021 12.895 11.5989 13.5982C10.8958 14.3015 10.5008 15.2553 10.5008 16.2499V25H9.25103C8.25665 25 7.303 24.6049 6.59987 23.9016C5.89674 23.1984 5.50172 22.2445 5.50172 21.25V13.7499H4.25195C3.13966 13.7499 2.58101 12.4036 3.36837 11.6161L14.6163 0.365987C14.8506 0.131646 15.1685 0 15.4999 0C15.8313 0 16.1491 0.131646 16.3835 0.365987ZM16.7496 14.9999C17.0811 14.9999 17.399 15.1316 17.6334 15.366C17.8677 15.6004 17.9994 15.9184 17.9994 16.2499V25H13.0003V16.2499C13.0004 15.9437 13.1128 15.6482 13.3162 15.4194C13.5196 15.1906 13.7999 15.0445 14.1039 15.0086L14.2501 14.9999H16.7496Z" fill="#2D2B2D"/>
<path d="M6.26 33H6.99V40H6.26V33ZM1.88 40H1.14V33H1.88V40ZM6.33 36.77H1.8V36.12H6.33V36.77ZM11.2648 40.05C10.7581 40.05 10.3014 39.9367 9.89477 39.71C9.49477 39.4767 9.1781 39.16 8.94477 38.76C8.71143 38.3533 8.59477 37.89 8.59477 37.37C8.59477 36.8433 8.71143 36.38 8.94477 35.98C9.1781 35.58 9.49477 35.2667 9.89477 35.04C10.2948 34.8133 10.7514 34.7 11.2648 34.7C11.7848 34.7 12.2448 34.8133 12.6448 35.04C13.0514 35.2667 13.3681 35.58 13.5948 35.98C13.8281 36.38 13.9448 36.8433 13.9448 37.37C13.9448 37.89 13.8281 38.3533 13.5948 38.76C13.3681 39.16 13.0514 39.4767 12.6448 39.71C12.2381 39.9367 11.7781 40.05 11.2648 40.05ZM11.2648 39.42C11.6448 39.42 11.9814 39.3367 12.2748 39.17C12.5681 38.9967 12.7981 38.7567 12.9648 38.45C13.1381 38.1367 13.2248 37.7767 13.2248 37.37C13.2248 36.9567 13.1381 36.5967 12.9648 36.29C12.7981 35.9833 12.5681 35.7467 12.2748 35.58C11.9814 35.4067 11.6481 35.32 11.2748 35.32C10.9014 35.32 10.5681 35.4067 10.2748 35.58C9.98143 35.7467 9.7481 35.9833 9.57477 36.29C9.40143 36.5967 9.31477 36.9567 9.31477 37.37C9.31477 37.7767 9.40143 38.1367 9.57477 38.45C9.7481 38.7567 9.98143 38.9967 10.2748 39.17C10.5681 39.3367 10.8981 39.42 11.2648 39.42ZM21.9543 34.7C22.381 34.7 22.751 34.7833 23.0643 34.95C23.3843 35.11 23.631 35.3567 23.8043 35.69C23.9843 36.0233 24.0743 36.4433 24.0743 36.95V40H23.3643V37.02C23.3643 36.4667 23.231 36.05 22.9643 35.77C22.7043 35.4833 22.3343 35.34 21.8543 35.34C21.4943 35.34 21.181 35.4167 20.9143 35.57C20.6543 35.7167 20.451 35.9333 20.3043 36.22C20.1643 36.5 20.0943 36.84 20.0943 37.24V40H19.3843V37.02C19.3843 36.4667 19.251 36.05 18.9843 35.77C18.7176 35.4833 18.3443 35.34 17.8643 35.34C17.511 35.34 17.201 35.4167 16.9343 35.57C16.6676 35.7167 16.461 35.9333 16.3143 36.22C16.1743 36.5 16.1043 36.84 16.1043 37.24V40H15.3943V34.75H16.0743V36.17L15.9643 35.92C16.1243 35.54 16.381 35.2433 16.7343 35.03C17.0943 34.81 17.5176 34.7 18.0043 34.7C18.5176 34.7 18.9543 34.83 19.3143 35.09C19.6743 35.3433 19.9076 35.7267 20.0143 36.24L19.7343 36.13C19.8876 35.7033 20.1576 35.36 20.5443 35.1C20.9376 34.8333 21.4076 34.7 21.9543 34.7ZM28.2298 40.05C27.6831 40.05 27.2031 39.9367 26.7898 39.71C26.3764 39.4767 26.0531 39.16 25.8198 38.76C25.5864 38.3533 25.4698 37.89 25.4698 37.37C25.4698 36.85 25.5798 36.39 25.7998 35.99C26.0264 35.59 26.3331 35.2767 26.7198 35.05C27.1131 34.8167 27.5531 34.7 28.0398 34.7C28.5331 34.7 28.9698 34.8133 29.3498 35.04C29.7364 35.26 30.0398 35.5733 30.2598 35.98C30.4798 36.38 30.5898 36.8433 30.5898 37.37C30.5898 37.4033 30.5864 37.44 30.5798 37.48C30.5798 37.5133 30.5798 37.55 30.5798 37.59H26.0098V37.06H30.1998L29.9198 37.27C29.9198 36.89 29.8364 36.5533 29.6698 36.26C29.5098 35.96 29.2898 35.7267 29.0098 35.56C28.7298 35.3933 28.4064 35.31 28.0398 35.31C27.6798 35.31 27.3564 35.3933 27.0698 35.56C26.7831 35.7267 26.5598 35.96 26.3998 36.26C26.2398 36.56 26.1598 36.9033 26.1598 37.29V37.4C26.1598 37.8 26.2464 38.1533 26.4198 38.46C26.5998 38.76 26.8464 38.9967 27.1598 39.17C27.4798 39.3367 27.8431 39.42 28.2498 39.42C28.5698 39.42 28.8664 39.3633 29.1398 39.25C29.4198 39.1367 29.6598 38.9633 29.8598 38.73L30.2598 39.19C30.0264 39.47 29.7331 39.6833 29.3798 39.83C29.0331 39.9767 28.6498 40.05 28.2298 40.05Z" fill="#2D2B2D"/>
</svg>
