<svg width="25" height="25" viewBox="0 0 25 25" fill="none" xmlns="http://www.w3.org/2000/svg">
<path d="M13.3835 0.365987L24.6314 11.6161C25.4187 12.4036 24.8613 13.7499 23.7478 13.7499H22.498V21.25C22.498 22.2445 22.103 23.1984 21.3999 23.9016C20.6967 24.6049 19.7431 25 18.7487 25H17.4989V16.2499C17.499 15.2934 17.1336 14.373 16.4775 13.6771C15.8214 12.9811 14.9243 12.5622 13.9696 12.5061L13.7496 12.4999H11.2501C10.2557 12.4999 9.30207 12.895 8.59894 13.5982C7.89581 14.3015 7.50079 15.2553 7.50079 16.2499V25H6.25103C5.25665 25 4.303 24.6049 3.59987 23.9016C2.89674 23.1984 2.50172 22.2445 2.50172 21.25V13.7499H1.25195C0.139659 13.7499 -0.418988 12.4036 0.368366 11.6161L11.6163 0.365987C11.8506 0.131646 12.1685 0 12.4999 0C12.8313 0 13.1491 0.131646 13.3835 0.365987ZM13.7496 14.9999C14.0811 14.9999 14.399 15.1316 14.6334 15.366C14.8677 15.6004 14.9994 15.9184 14.9994 16.2499V25H10.0003V16.2499C10.0004 15.9437 10.1128 15.6482 10.3162 15.4194C10.5196 15.1906 10.7999 15.0445 11.1039 15.0086L11.2501 14.9999H13.7496Z" fill="#6366F1"/>
</svg>
