<svg width="82" height="82" viewBox="0 0 82 82" fill="none" xmlns="http://www.w3.org/2000/svg">
<path d="M0 5C0 2.23858 2.23858 0 5 0H77C79.7614 0 82 2.23858 82 5V77C82 79.7614 79.7614 82 77 82H5C2.23858 82 0 79.7614 0 77V5Z" fill="white"/>
<path d="M14.05 71V64H15.05V70.13H18.84V71H14.05ZM23.1375 71V69.88L23.0875 69.67V67.76C23.0875 67.3533 22.9675 67.04 22.7275 66.82C22.4942 66.5933 22.1408 66.48 21.6675 66.48C21.3542 66.48 21.0475 66.5333 20.7475 66.64C20.4475 66.74 20.1942 66.8767 19.9875 67.05L19.5875 66.33C19.8608 66.11 20.1875 65.9433 20.5675 65.83C20.9542 65.71 21.3575 65.65 21.7775 65.65C22.5042 65.65 23.0642 65.8267 23.4575 66.18C23.8508 66.5333 24.0475 67.0733 24.0475 67.8V71H23.1375ZM21.3975 71.06C21.0042 71.06 20.6575 70.9933 20.3575 70.86C20.0642 70.7267 19.8375 70.5433 19.6775 70.31C19.5175 70.07 19.4375 69.8 19.4375 69.5C19.4375 69.2133 19.5042 68.9533 19.6375 68.72C19.7775 68.4867 20.0008 68.3 20.3075 68.16C20.6208 68.02 21.0408 67.95 21.5675 67.95H23.2475V68.64H21.6075C21.1275 68.64 20.8042 68.72 20.6375 68.88C20.4708 69.04 20.3875 69.2333 20.3875 69.46C20.3875 69.72 20.4908 69.93 20.6975 70.09C20.9042 70.2433 21.1908 70.32 21.5575 70.32C21.9175 70.32 22.2308 70.24 22.4975 70.08C22.7708 69.92 22.9675 69.6867 23.0875 69.38L23.2775 70.04C23.1508 70.3533 22.9275 70.6033 22.6075 70.79C22.2875 70.97 21.8842 71.06 21.3975 71.06ZM28.6541 65.65C29.0874 65.65 29.4674 65.7333 29.7941 65.9C30.1274 66.0667 30.3874 66.32 30.5741 66.66C30.7607 67 30.8541 67.43 30.8541 67.95V71H29.8941V68.06C29.8941 67.5467 29.7674 67.16 29.5141 66.9C29.2674 66.64 28.9174 66.51 28.4641 66.51C28.1241 66.51 27.8274 66.5767 27.5741 66.71C27.3207 66.8433 27.1241 67.04 26.9841 67.3C26.8507 67.56 26.7841 67.8833 26.7841 68.27V71H25.8241V65.7H26.7441V67.13L26.5941 66.75C26.7674 66.4033 27.0341 66.1333 27.3941 65.94C27.7541 65.7467 28.1741 65.65 28.6541 65.65ZM34.9507 73C34.464 73 33.9907 72.93 33.5307 72.79C33.0774 72.6567 32.7074 72.4633 32.4207 72.21L32.8807 71.47C33.1274 71.6833 33.4307 71.85 33.7907 71.97C34.1507 72.0967 34.5274 72.16 34.9207 72.16C35.5474 72.16 36.0074 72.0133 36.3007 71.72C36.594 71.4267 36.7407 70.98 36.7407 70.38V69.26L36.8407 68.21L36.7907 67.15V65.7H37.7007V70.28C37.7007 71.2133 37.4674 71.9 37.0007 72.34C36.534 72.78 35.8507 73 34.9507 73ZM34.8307 70.78C34.3174 70.78 33.8574 70.6733 33.4507 70.46C33.0507 70.24 32.7307 69.9367 32.4907 69.55C32.2574 69.1633 32.1407 68.7167 32.1407 68.21C32.1407 67.6967 32.2574 67.25 32.4907 66.87C32.7307 66.4833 33.0507 66.1833 33.4507 65.97C33.8574 65.7567 34.3174 65.65 34.8307 65.65C35.284 65.65 35.6974 65.7433 36.0707 65.93C36.444 66.11 36.7407 66.39 36.9607 66.77C37.1874 67.15 37.3007 67.63 37.3007 68.21C37.3007 68.7833 37.1874 69.26 36.9607 69.64C36.7407 70.02 36.444 70.3067 36.0707 70.5C35.6974 70.6867 35.284 70.78 34.8307 70.78ZM34.9407 69.94C35.294 69.94 35.6074 69.8667 35.8807 69.72C36.154 69.5733 36.3674 69.37 36.5207 69.11C36.6807 68.85 36.7607 68.55 36.7607 68.21C36.7607 67.87 36.6807 67.57 36.5207 67.31C36.3674 67.05 36.154 66.85 35.8807 66.71C35.6074 66.5633 35.294 66.49 34.9407 66.49C34.5874 66.49 34.2707 66.5633 33.9907 66.71C33.7174 66.85 33.5007 67.05 33.3407 67.31C33.1874 67.57 33.1107 67.87 33.1107 68.21C33.1107 68.55 33.1874 68.85 33.3407 69.11C33.5007 69.37 33.7174 69.5733 33.9907 69.72C34.2707 69.8667 34.5874 69.94 34.9407 69.94ZM41.765 71.06C41.3117 71.06 40.9117 70.9767 40.565 70.81C40.225 70.6433 39.9583 70.39 39.765 70.05C39.5783 69.7033 39.485 69.27 39.485 68.75V65.7H40.445V68.64C40.445 69.16 40.5683 69.55 40.815 69.81C41.0683 70.07 41.4217 70.2 41.875 70.2C42.2083 70.2 42.4983 70.1333 42.745 70C42.9917 69.86 43.1817 69.66 43.315 69.4C43.4483 69.1333 43.515 68.8133 43.515 68.44V65.7H44.475V71H43.565V69.57L43.715 69.95C43.5417 70.3033 43.2817 70.5767 42.935 70.77C42.5883 70.9633 42.1983 71.06 41.765 71.06ZM49.5926 71V69.88L49.5426 69.67V67.76C49.5426 67.3533 49.4226 67.04 49.1826 66.82C48.9492 66.5933 48.5959 66.48 48.1226 66.48C47.8092 66.48 47.5026 66.5333 47.2026 66.64C46.9026 66.74 46.6492 66.8767 46.4426 67.05L46.0426 66.33C46.3159 66.11 46.6426 65.9433 47.0226 65.83C47.4092 65.71 47.8126 65.65 48.2326 65.65C48.9592 65.65 49.5192 65.8267 49.9126 66.18C50.3059 66.5333 50.5026 67.0733 50.5026 67.8V71H49.5926ZM47.8526 71.06C47.4592 71.06 47.1126 70.9933 46.8126 70.86C46.5192 70.7267 46.2926 70.5433 46.1326 70.31C45.9726 70.07 45.8926 69.8 45.8926 69.5C45.8926 69.2133 45.9592 68.9533 46.0926 68.72C46.2326 68.4867 46.4559 68.3 46.7626 68.16C47.0759 68.02 47.4959 67.95 48.0226 67.95H49.7026V68.64H48.0626C47.5826 68.64 47.2592 68.72 47.0926 68.88C46.9259 69.04 46.8426 69.2333 46.8426 69.46C46.8426 69.72 46.9459 69.93 47.1526 70.09C47.3592 70.2433 47.6459 70.32 48.0126 70.32C48.3726 70.32 48.6859 70.24 48.9526 70.08C49.2259 69.92 49.4226 69.6867 49.5426 69.38L49.7326 70.04C49.6059 70.3533 49.3826 70.6033 49.0626 70.79C48.7426 70.97 48.3392 71.06 47.8526 71.06ZM54.5991 73C54.1125 73 53.6391 72.93 53.1791 72.79C52.7258 72.6567 52.3558 72.4633 52.0691 72.21L52.5291 71.47C52.7758 71.6833 53.0791 71.85 53.4391 71.97C53.7991 72.0967 54.1758 72.16 54.5691 72.16C55.1958 72.16 55.6558 72.0133 55.9491 71.72C56.2425 71.4267 56.3891 70.98 56.3891 70.38V69.26L56.4891 68.21L56.4391 67.15V65.7H57.3491V70.28C57.3491 71.2133 57.1158 71.9 56.6491 72.34C56.1825 72.78 55.4991 73 54.5991 73ZM54.4791 70.78C53.9658 70.78 53.5058 70.6733 53.0991 70.46C52.6991 70.24 52.3791 69.9367 52.1391 69.55C51.9058 69.1633 51.7891 68.7167 51.7891 68.21C51.7891 67.6967 51.9058 67.25 52.1391 66.87C52.3791 66.4833 52.6991 66.1833 53.0991 65.97C53.5058 65.7567 53.9658 65.65 54.4791 65.65C54.9325 65.65 55.3458 65.7433 55.7191 65.93C56.0925 66.11 56.3891 66.39 56.6091 66.77C56.8358 67.15 56.9491 67.63 56.9491 68.21C56.9491 68.7833 56.8358 69.26 56.6091 69.64C56.3891 70.02 56.0925 70.3067 55.7191 70.5C55.3458 70.6867 54.9325 70.78 54.4791 70.78ZM54.5891 69.94C54.9425 69.94 55.2558 69.8667 55.5291 69.72C55.8025 69.5733 56.0158 69.37 56.1691 69.11C56.3291 68.85 56.4091 68.55 56.4091 68.21C56.4091 67.87 56.3291 67.57 56.1691 67.31C56.0158 67.05 55.8025 66.85 55.5291 66.71C55.2558 66.5633 54.9425 66.49 54.5891 66.49C54.2358 66.49 53.9191 66.5633 53.6391 66.71C53.3658 66.85 53.1491 67.05 52.9891 67.31C52.8358 67.57 52.7591 67.87 52.7591 68.21C52.7591 68.55 52.8358 68.85 52.9891 69.11C53.1491 69.37 53.3658 69.5733 53.6391 69.72C53.9191 69.8667 54.2358 69.94 54.5891 69.94ZM61.5434 71.06C60.9768 71.06 60.4768 70.9433 60.0434 70.71C59.6168 70.4767 59.2834 70.1567 59.0434 69.75C58.8101 69.3433 58.6934 68.8767 58.6934 68.35C58.6934 67.8233 58.8068 67.3567 59.0334 66.95C59.2668 66.5433 59.5834 66.2267 59.9834 66C60.3901 65.7667 60.8468 65.65 61.3534 65.65C61.8668 65.65 62.3201 65.7633 62.7134 65.99C63.1068 66.2167 63.4134 66.5367 63.6334 66.95C63.8601 67.3567 63.9734 67.8333 63.9734 68.38C63.9734 68.42 63.9701 68.4667 63.9634 68.52C63.9634 68.5733 63.9601 68.6233 63.9534 68.67H59.4434V67.98H63.4534L63.0634 68.22C63.0701 67.88 63.0001 67.5767 62.8534 67.31C62.7068 67.0433 62.5034 66.8367 62.2434 66.69C61.9901 66.5367 61.6934 66.46 61.3534 66.46C61.0201 66.46 60.7234 66.5367 60.4634 66.69C60.2034 66.8367 60.0001 67.0467 59.8534 67.32C59.7068 67.5867 59.6334 67.8933 59.6334 68.24V68.4C59.6334 68.7533 59.7134 69.07 59.8734 69.35C60.0401 69.6233 60.2701 69.8367 60.5634 69.99C60.8568 70.1433 61.1934 70.22 61.5734 70.22C61.8868 70.22 62.1701 70.1667 62.4234 70.06C62.6834 69.9533 62.9101 69.7933 63.1034 69.58L63.6334 70.2C63.3934 70.48 63.0934 70.6933 62.7334 70.84C62.3801 70.9867 61.9834 71.06 61.5434 71.06ZM66.8265 71.06C66.3865 71.06 65.9665 71 65.5665 70.88C65.1732 70.76 64.8632 70.6133 64.6365 70.44L65.0365 69.68C65.2632 69.8333 65.5432 69.9633 65.8765 70.07C66.2098 70.1767 66.5498 70.23 66.8965 70.23C67.3432 70.23 67.6632 70.1667 67.8565 70.04C68.0565 69.9133 68.1565 69.7367 68.1565 69.51C68.1565 69.3433 68.0965 69.2133 67.9765 69.12C67.8565 69.0267 67.6965 68.9567 67.4965 68.91C67.3032 68.8633 67.0865 68.8233 66.8465 68.79C66.6065 68.75 66.3665 68.7033 66.1265 68.65C65.8865 68.59 65.6665 68.51 65.4665 68.41C65.2665 68.3033 65.1065 68.16 64.9865 67.98C64.8665 67.7933 64.8065 67.5467 64.8065 67.24C64.8065 66.92 64.8965 66.64 65.0765 66.4C65.2565 66.16 65.5098 65.9767 65.8365 65.85C66.1698 65.7167 66.5632 65.65 67.0165 65.65C67.3632 65.65 67.7132 65.6933 68.0665 65.78C68.4265 65.86 68.7198 65.9767 68.9465 66.13L68.5365 66.89C68.2965 66.73 68.0465 66.62 67.7865 66.56C67.5265 66.5 67.2665 66.47 67.0065 66.47C66.5865 66.47 66.2732 66.54 66.0665 66.68C65.8598 66.8133 65.7565 66.9867 65.7565 67.2C65.7565 67.38 65.8165 67.52 65.9365 67.62C66.0632 67.7133 66.2232 67.7867 66.4165 67.84C66.6165 67.8933 66.8365 67.94 67.0765 67.98C67.3165 68.0133 67.5565 68.06 67.7965 68.12C68.0365 68.1733 68.2532 68.25 68.4465 68.35C68.6465 68.45 68.8065 68.59 68.9265 68.77C69.0532 68.95 69.1165 69.19 69.1165 69.49C69.1165 69.81 69.0232 70.0867 68.8365 70.32C68.6498 70.5533 68.3865 70.7367 68.0465 70.87C67.7065 70.9967 67.2998 71.06 66.8265 71.06Z" fill="#1A1A1A"/>
<path opacity="0.37" d="M20.3452 53.5241C20.4543 53.7939 20.5748 54.0637 20.7068 54.322C22.6699 58.1735 26.6535 60.6016 30.9012 61.0378C34.2993 61.3822 37.6055 60.2744 40.4469 58.4663C43.2824 56.6639 45.5555 54.1268 48.7068 52.8066C53.1496 50.9526 58.1032 49.4889 61.5874 45.5627C65.5481 41.1026 67.0749 34.3409 65.2094 28.6353C63.3955 23.0674 57.3742 21.2651 52.6961 18.8141C44.2869 14.4 32.6404 11.4668 23.8868 16.6501C13.3998 22.855 15.3055 36.9411 18.6289 46.7164C19.3866 48.9435 19.4785 51.3429 20.3452 53.5241Z" fill="#CCE9FF"/>
<path d="M25.6949 27.1314L25.6777 27.0223H25.5687C23.4448 27.0223 22.756 26.3393 22.7503 26.3335L22.6585 26.2302L22.5666 26.3335C22.5609 26.3393 21.8778 27.0223 19.7483 27.0223H19.6392L19.622 27.1314C19.6162 27.1658 19.1685 30.5869 22.6011 32.3433L22.6585 32.372L22.7159 32.3433C26.1599 30.5869 25.6949 27.1658 25.6949 27.1314ZM25.1783 29.2495C24.7536 30.4778 23.9041 31.4307 22.6527 32.085C21.4014 31.4307 20.5519 30.4778 20.1271 29.2495C19.8171 28.3483 19.8344 27.5619 19.8573 27.2806C21.6253 27.2577 22.4116 26.787 22.6527 26.5918C22.8938 26.7812 23.6802 27.2577 25.4481 27.2806C25.4711 27.5676 25.4883 28.3483 25.1783 29.2495ZM29.0644 22.7345L28.9438 22.4188C28.8347 22.4073 28.7314 22.3786 28.6281 22.3442L28.3813 22.5738L27.6695 22.0629L27.8073 21.753C27.7384 21.6669 27.681 21.575 27.6351 21.4774L27.2964 21.466L27.1529 20.5992L27.4686 20.4787C27.4801 20.3696 27.5088 20.2663 27.5432 20.163L27.3136 19.9161L27.8245 19.1986L28.1345 19.3364C28.2206 19.2675 28.3124 19.2101 28.41 19.1642L28.4215 18.8255L29.2882 18.682L29.4088 18.9977C29.5178 19.0092 29.6211 19.0379 29.7245 19.0724L29.9713 18.8428L30.683 19.3536L30.5453 19.6636C30.6142 19.7497 30.6716 19.8415 30.7175 19.9391L31.0561 19.9506L31.1996 20.8173L30.8839 20.9379C30.8667 21.0469 30.8438 21.1503 30.8093 21.2536L31.0389 21.5004L30.5281 22.2179L30.2181 22.0801C30.132 22.149 30.0402 22.2064 29.9426 22.2523L29.9311 22.591L29.0644 22.7345ZM28.5707 22.0687L28.6396 22.0974C28.7659 22.149 28.9036 22.1777 29.0414 22.1892L29.116 22.1949L29.2193 22.4647L29.6958 22.3844L29.7072 22.0974L29.7761 22.0687C29.9024 22.0113 30.0172 21.9366 30.1263 21.8505L30.1837 21.8046L30.4477 21.9252L30.729 21.5348L30.5281 21.3225L30.5568 21.2536C30.6084 21.1273 30.6371 20.9895 30.6486 20.8518L30.6543 20.7772L30.9241 20.6738L30.8438 20.1974L30.5568 20.1859L30.5281 20.117C30.4707 19.9908 30.396 19.876 30.3099 19.7669L30.264 19.7095L30.3846 19.4455L29.9942 19.1642L29.7819 19.3594L29.713 19.3307C29.5867 19.279 29.4489 19.2503 29.3112 19.2388L29.2366 19.2331L29.1332 18.9633L28.6568 19.0437L28.6453 19.3307L28.5764 19.3594C28.4502 19.4168 28.3354 19.4914 28.2263 19.5775L28.1689 19.6234L27.9049 19.5029L27.6236 19.8932L27.8245 20.1056L27.7958 20.1744C27.7441 20.3007 27.7154 20.4385 27.704 20.5763L27.6982 20.6509L27.4284 20.7542L27.5088 21.2306L27.7958 21.2421L27.8245 21.311C27.8819 21.4373 27.9565 21.5521 28.0426 21.6611L28.0885 21.7185L27.968 21.9826L28.3583 22.2638L28.5707 22.0687ZM29.1677 21.6669C28.9725 21.6669 28.7773 21.6037 28.6166 21.4889C28.1861 21.1847 28.0885 20.5877 28.3928 20.1572C28.697 19.7267 29.294 19.6291 29.7245 19.9334C29.9311 20.0826 30.0689 20.3007 30.1148 20.5533C30.155 20.8059 30.0976 21.0584 29.9541 21.2651C29.8048 21.4717 29.5867 21.6095 29.3341 21.6554C29.271 21.6611 29.2193 21.6669 29.1677 21.6669ZM29.1677 19.9965C28.9438 19.9965 28.7257 20.0998 28.5879 20.295C28.4789 20.45 28.4329 20.6394 28.4674 20.8288C28.5018 21.0182 28.5994 21.179 28.7544 21.288C28.9094 21.3971 29.0988 21.443 29.2882 21.4086C29.4776 21.3741 29.6384 21.2765 29.7474 21.1216C29.8565 20.9666 29.9024 20.7772 29.868 20.5877C29.8335 20.3983 29.7359 20.2376 29.581 20.1285C29.4547 20.0424 29.3112 19.9965 29.1677 19.9965ZM56.5821 32.0908L56.3123 31.3848C56.0253 31.3503 55.7383 31.2872 55.4686 31.1896L54.9175 31.7062L53.4251 30.6443L53.7351 29.9555C53.5571 29.7316 53.4021 29.4848 53.2759 29.2208L52.5239 29.1978L52.2197 27.3897L52.9257 27.1199C52.9602 26.8329 53.0233 26.5459 53.1209 26.2761L52.6043 25.7251L53.6662 24.2327L54.355 24.5426C54.5788 24.3647 54.8257 24.2097 55.0897 24.0834L55.1127 23.3315L56.9208 23.0273L57.1906 23.7333C57.4776 23.7677 57.7646 23.8309 58.0344 23.9284L58.5854 23.4118L60.0778 24.4737L59.7678 25.1625C59.9458 25.3864 60.1008 25.6332 60.2271 25.8973L60.979 25.9202L61.2832 27.7283L60.5772 27.9981C60.5428 28.2851 60.4796 28.5721 60.382 28.8419L60.8986 29.393L59.8367 30.8854L59.1479 30.5754C58.9241 30.7534 58.6772 30.9083 58.4132 31.0346L58.3902 31.7866L56.5821 32.0908ZM55.3882 30.8222L55.48 30.8567C55.7843 30.9715 56.1057 31.0461 56.4329 31.0748L56.5362 31.0863L56.783 31.7292L58.0688 31.511L58.0918 30.8222L58.1836 30.7821C58.4821 30.65 58.7633 30.4721 59.0159 30.2597L59.0905 30.1966L59.7219 30.4778L60.4796 29.4159L60.0089 28.9108L60.0434 28.819C60.1582 28.5147 60.2328 28.1933 60.2615 27.8661L60.2672 27.7628L60.9101 27.516L60.692 26.2302L60.0032 26.2072L59.963 26.1154C59.831 25.8169 59.653 25.5357 59.4407 25.2831L59.3775 25.2085L59.6588 24.5771L58.5969 23.8194L58.0918 24.2901L57.9999 24.2556C57.6957 24.1408 57.3742 24.0662 57.0471 24.0375L56.9437 24.0318L56.6969 23.3889L55.4112 23.607L55.3882 24.2958L55.2964 24.336C54.9979 24.468 54.7166 24.6459 54.464 24.8583L54.3894 24.9215L53.758 24.6402L53.0118 25.7021L53.4825 26.2072L53.4481 26.2991C53.3333 26.6033 53.2586 26.9247 53.2299 27.2519L53.2242 27.3552L52.5813 27.6021L52.7994 28.8878L53.4882 28.9108L53.5284 29.0026C53.6604 29.3011 53.8384 29.5824 54.0508 29.8349L54.1139 29.9096L53.8326 30.541L54.8946 31.2987L55.3882 30.8222ZM56.7428 29.6398C56.3238 29.6398 55.9048 29.5135 55.5374 29.2552C54.6018 28.5894 54.3837 27.2864 55.0495 26.3507C55.7154 25.4151 57.0184 25.197 57.954 25.8628C58.8896 26.5287 59.1077 27.8317 58.4419 28.7673C58.0344 29.3356 57.3915 29.6398 56.7428 29.6398ZM56.7486 25.7997C56.1975 25.7997 55.6522 26.058 55.3136 26.5402C55.0381 26.9247 54.9347 27.3897 55.0093 27.8546C55.0897 28.3196 55.3423 28.7214 55.7269 28.9969C56.519 29.5594 57.6211 29.3757 58.1836 28.5836C58.4534 28.199 58.5624 27.7341 58.4878 27.2691C58.4075 26.8042 58.1549 26.4024 57.7703 26.1269C57.4546 25.903 57.0987 25.7997 56.7486 25.7997ZM28.6338 45.0059C28.3583 44.231 28.0426 43.3585 28.3928 42.463C28.8634 41.2576 27.8647 40.6377 26.9865 40.0809C26.2288 39.6102 25.517 39.1625 25.7581 38.4221C26.0221 37.6184 26.0049 36.9985 25.7064 36.591C25.4539 36.2466 25.0061 36.0629 24.4092 36.0686C23.9328 36.0744 23.508 35.4889 23.0545 34.8747C22.5207 34.1515 21.9754 33.4053 21.2866 33.5717C21.166 33.6004 21.0685 33.6693 21.0111 33.7784C20.77 34.2318 21.1488 35.3109 21.5564 36.459C21.9926 37.6988 22.492 39.0994 22.1648 39.6963C21.8089 40.3507 22.4518 40.9477 23.1349 41.5848C23.8581 42.2564 24.679 43.0198 24.4608 43.9784C24.2542 44.8739 24.2083 45.2068 24.3346 45.4019C24.4321 45.5569 24.633 45.5914 24.9373 45.6488C25.1439 45.6889 25.4079 45.7349 25.7294 45.8382C27.1127 46.2687 27.5145 47.1641 27.5203 47.1756L27.5375 47.2158L27.5777 47.2101C28.2435 47.1067 28.6338 46.9173 28.8175 46.6131C28.829 46.5959 28.8347 46.5787 28.8462 46.5614C29.0414 46.1539 28.852 45.6201 28.6338 45.0059Z" fill="#FFBE55"/>
<path d="M25.098 43.2954C25.3276 43.6512 25.4941 43.9612 25.4768 44.3974C25.4654 44.805 25.4022 45.2068 25.3678 45.6086C25.362 45.6947 25.3563 45.775 25.3506 45.8554C25.2358 45.7578 25.1267 45.6602 25.0119 45.5627C24.9602 45.5569 24.9086 45.5569 24.8512 45.5569C25.0119 45.689 25.1784 45.8325 25.3391 45.976C25.3219 46.2572 25.3161 46.5385 25.3161 46.8197C25.3161 46.9862 25.3104 47.1641 25.3219 47.3306C25.1726 47.2388 25.0176 47.1469 24.8741 47.0551C24.4264 46.7796 24.0074 46.5213 23.6859 46.3835C23.4391 46.2802 23.1636 46.1883 22.8996 46.1022C22.2108 45.8784 21.5047 45.6488 21.2694 45.1609C21.1488 44.9083 21.1603 44.6041 21.3038 44.2367C21.6654 43.2896 21.3268 43.1289 20.7585 42.8534C20.3452 42.6525 19.7827 42.3827 19.2202 41.6996C18.9734 41.4011 18.7552 41.1428 18.5601 40.919C17.9803 40.2359 17.6589 39.8628 17.6991 39.6447C17.7106 39.593 17.7393 39.5471 17.7967 39.5012C17.8254 39.4782 17.8598 39.4553 17.9057 39.4323C18.1238 39.3118 18.342 39.4036 18.5888 39.5069C18.9217 39.6447 19.3292 39.8226 19.8975 39.5299C20.3452 39.3003 20.8446 39.0879 21.1431 39.2601C21.3497 39.3749 21.4703 39.6734 21.5105 40.1613C21.5219 40.3163 21.5736 40.4253 21.6597 40.4885C21.786 40.5803 21.9811 40.5688 22.205 40.5229C22.36 40.7353 22.5609 40.8386 22.802 40.9247C23.1406 41.0453 23.3932 41.1543 23.64 41.4298C24.1681 42.0268 24.679 42.6352 25.098 43.2954Z" fill="#2A94F4"/>
<path d="M23.2669 44.2425C22.9225 44.0129 22.624 43.4561 22.337 42.9165C21.9467 42.1818 21.5391 41.4241 20.9824 41.4413C20.0869 41.4643 19.289 40.4081 19.2776 40.4024L19.2029 40.4598C19.2374 40.5057 20.041 41.5619 20.9824 41.5389C21.4817 41.5274 21.8778 42.2564 22.2509 42.9682C22.5436 43.5135 22.8479 44.0817 23.2095 44.3286C23.4276 44.4721 23.8294 44.7648 24.3058 45.1379V45.0174C23.8868 44.6672 23.5137 44.4032 23.2669 44.2425Z" fill="white"/>
<path d="M53.5169 51.3544C53.5169 51.3544 54.0335 50.0686 53.0922 48.2433C52.1451 46.4179 51.3816 46.6992 53.6604 45.2929C55.9392 43.8866 53.6719 39.4667 55.6121 38.9042C57.5522 38.3417 59.234 31.1839 60.7092 32.0965C62.1844 33.0092 60.2156 36.5164 61.2717 37.5725C62.3222 38.6287 62.4657 39.9661 60.2902 41.051C58.1147 42.1359 61.8343 46.2802 58.8839 47.543C55.9335 48.8058 56.783 53.7595 53.5169 51.3544Z" fill="#FFBE55"/>
<path d="M54.4181 52.7148C54.4124 52.6975 54.0967 51.0559 55.1012 48.9321C56.1229 46.7681 56.6108 44.4032 56.4099 42.6008C56.3009 41.625 56.9265 41.2462 57.5292 40.8788C58.1262 40.5172 58.7404 40.1383 58.7059 39.1797C58.6772 38.313 59.0446 36.281 59.0561 36.1949L59.1881 36.2179C59.1824 36.2408 58.8093 38.3245 58.838 39.174C58.8724 40.2129 58.2238 40.609 57.5981 40.9879C57.0011 41.3495 56.4444 41.6939 56.5419 42.5836C56.7486 44.4032 56.2549 46.7968 55.2217 48.9837C54.2402 51.0674 54.5444 52.6688 54.5501 52.6861L54.4181 52.7148Z" fill="white"/>
<path d="M62.2533 42.0497C63.0741 41.6594 63.9466 41.8374 63.4931 42.6582C63.0397 43.479 62.3623 43.5422 62.4886 44.1908C62.6149 44.8394 62.9478 45.5454 61.8802 45.9587C60.8125 46.3663 60.3131 46.2974 59.6645 47.497C59.0101 48.6967 58.7863 49.5864 57.667 49.2994C56.5477 49.0067 57.4776 47.5315 58.0573 46.9116C58.0573 46.9116 58.8437 46.2457 58.8322 45.046C58.8207 43.8464 58.3271 43.0428 59.8769 43.1231C61.4267 43.192 61.6965 42.3138 62.2533 42.0497Z" fill="#0E538C"/>
<path d="M57.489 50.1375C57.535 49.9825 58.6141 46.2687 59.4981 45.8669C60.3993 45.4536 60.8872 44.3744 61.0995 43.7717C61.3751 42.9854 62.5518 42.8304 62.5977 42.8246L62.6149 42.9567C62.6034 42.9567 61.4726 43.1059 61.2258 43.8119C60.9618 44.5753 60.4566 45.5741 59.5555 45.9874C58.7289 46.3662 57.6325 50.1375 57.6211 50.1776L57.489 50.1375ZM29.0586 47.1469C27.2907 46.7049 27.2677 45.7521 27.2448 44.8336C27.2275 44.0817 27.2103 43.3699 26.2517 42.9337C24.9832 42.354 24.9545 41.2806 24.9258 40.3335C24.9028 39.6274 24.8856 38.9616 24.3575 38.6C23.089 37.7332 22.0156 35.6324 22.0041 35.6094L22.1017 35.5577C22.1132 35.5807 23.1693 37.6529 24.4206 38.5081C24.9947 38.8984 25.0176 39.593 25.0348 40.3277C25.0635 41.2863 25.0922 42.2851 26.2976 42.8304C27.3136 43.2953 27.3366 44.076 27.3538 44.8279C27.3768 45.7463 27.3997 46.6188 29.0873 47.0378L29.0586 47.1469Z" fill="white"/>
<path d="M26.6765 46.2974H55.7154V25.3347C55.7154 25.0363 55.4743 24.7894 55.1701 24.7894H27.2218C26.9233 24.7894 26.6765 25.0305 26.6765 25.3347V46.2974Z" fill="#F7F7F7"/>
<path d="M54.6345 42.3892H27.7022L27.7022 25.8407L54.6345 25.8407V42.3892Z" fill="#0B4870" stroke="white" stroke-width="0.5" stroke-miterlimit="10"/>
<path d="M55.7154 43.192H26.688L23.508 55.0682H58.8896L55.7154 43.192Z" fill="#F2F2F2"/>
<path d="M27.7843 45.2757H29.5695C29.6441 45.2757 29.7015 45.3331 29.6843 45.3962L29.5121 46.1711C29.5006 46.217 29.4547 46.2515 29.3973 46.2515H27.5834C27.5088 46.2515 27.4514 46.1941 27.4686 46.1252L27.6695 45.3503C27.681 45.3101 27.7269 45.2757 27.7843 45.2757ZM30.3846 45.2757H31.7335L31.5555 46.2572H30.1779L30.3846 45.2757ZM32.4051 45.2757H33.754L33.6162 46.2572H32.2386L32.4051 45.2757ZM34.4313 45.2757H35.7802L35.6769 46.2572H34.2993L34.4313 45.2757ZM36.4518 45.2757H37.8007L37.7376 46.2572H36.36L36.4518 45.2757ZM38.4723 45.2757H39.8212L39.7982 46.2572H38.4206L38.4723 45.2757ZM54.6592 45.2757H52.633L52.8511 46.2572H54.9118L54.6592 45.2757ZM51.9614 45.2757H50.6125L50.7904 46.2572H52.168L51.9614 45.2757ZM49.9409 45.2757H48.592L48.7298 46.2572H50.1074L49.9409 45.2757ZM47.9147 45.2757H46.5658L46.6691 46.2572H48.0467L47.9147 45.2757ZM45.8942 45.2757H44.5453L44.6084 46.2572H45.986L45.8942 45.2757ZM43.8737 45.2757H42.5248L42.5477 46.2572H43.9253L43.8737 45.2757ZM40.4985 45.2757H41.8474L41.8647 46.2572H40.4985V45.2757ZM27.1931 46.9862H30.0057L29.845 47.9965H26.975L27.1931 46.9862ZM55.0955 46.9862H51.617L51.8122 47.9965H55.3652L55.0955 46.9862ZM50.9167 46.9862H49.5276L49.6826 47.9965H51.1061L50.9167 46.9862ZM48.8273 46.9862H47.4382L47.553 47.9965H48.9766L48.8273 46.9862ZM46.738 46.9862H45.3489L45.4292 47.9965H46.847L46.738 46.9862ZM44.6486 46.9862H43.2595L43.2997 47.9965H44.7175L44.6486 46.9862ZM26.7683 48.7828H29.6498L29.4375 49.7873H26.5043L26.7683 48.7828ZM30.3674 48.7828H31.8081L31.6416 49.7873H30.1722L30.3674 48.7828ZM32.5313 48.7828H43.3284L43.3686 49.7873H32.3706L32.5313 48.7828ZM44.0516 48.7828H45.4924L45.5727 49.7873H44.1033L44.0516 48.7828ZM46.2099 48.7828H47.6506L47.7712 49.7873H46.3017L46.2099 48.7828ZM48.3739 48.7828H49.8146L49.9696 49.7873H48.5059L48.3739 48.7828ZM50.5321 48.7828H51.9729L52.168 49.7873H50.7043L50.5321 48.7828ZM52.6904 48.7828H55.5719L55.8359 49.7873H52.9028L52.6904 48.7828ZM42.5649 46.9862H41.1816V47.9965H42.5879L42.5649 46.9862ZM40.4756 46.9862H39.0807L39.0406 47.9965H40.4641L40.4756 46.9862ZM38.3862 46.9862H36.9914L36.911 47.9965H38.3345L38.3862 46.9862ZM36.2968 46.9862H34.902L34.7814 47.9965H36.205L36.2968 46.9862ZM34.2074 46.9862H32.8126L32.6519 47.9965H34.0754L34.2074 46.9862ZM32.1181 46.9862H30.7232L30.5281 47.9965H31.9459L32.1181 46.9862ZM27.8475 44.6615L28.0771 43.789H28.7314L28.5191 44.6615H27.8475ZM29.3858 43.789H30.6945L30.5166 44.6615H29.1792L29.3858 43.789ZM31.3546 43.789H32.6634L32.5141 44.6615H31.1824L31.3546 43.789ZM33.3177 43.789H34.6265L34.5117 44.6615H33.18L33.3177 43.789ZM35.2808 43.789H36.5896L36.5092 44.6615H35.1775L35.2808 43.789ZM37.2439 43.789H38.5527L38.5067 44.6615H37.175L37.2439 43.789ZM39.207 43.789H40.5158L40.5043 44.6615H39.1726L39.207 43.789ZM41.1701 43.789H42.4788L42.5018 44.6615H41.1701V43.789ZM43.1332 43.789H44.4419L44.4993 44.6615H43.1677L43.1332 43.789ZM45.0963 43.789H46.4108L46.4969 44.6615H45.1652L45.0963 43.789ZM47.0651 43.789H48.3739L48.5002 44.6615H47.1685L47.0651 43.789ZM49.0282 43.789H50.337L50.4977 44.6615H49.166L49.0282 43.789ZM50.9913 43.789H52.3001L52.4952 44.6615H51.1635L50.9913 43.789ZM52.9544 43.789H54.2632L54.4928 44.6615H53.1611L52.9544 43.789Z" fill="#0B4870" stroke="white" stroke-width="0.5" stroke-miterlimit="10"/>
<path d="M57.9655 55.9923H24.4321C23.9213 55.9923 23.508 55.579 23.508 55.0682H58.8896C58.8896 55.579 58.4763 55.9923 57.9655 55.9923ZM45.3144 51.2281C45.28 51.0214 45.0963 50.8665 44.8897 50.8665H37.5137C37.3013 50.8665 37.1234 51.0214 37.0889 51.2281L36.6297 54.012C36.5838 54.276 36.7905 54.5171 37.0545 54.5171H45.3431C45.6129 54.5171 45.8138 54.276 45.7679 54.012L45.3144 51.2281Z" fill="#D3D3D3"/>
<path d="M29.5178 27.2462H32.5199V27.5561H29.5178V27.2462ZM33.3637 29.5594H35.5276V29.8694H33.3637V29.5594ZM35.8663 29.5594H37.3013V29.8694H35.8663V29.5594ZM29.5523 35.3798H30.9873V35.6898H29.5523V35.3798ZM37.5883 29.5594H41.0611V29.8694H37.5883V29.5594ZM29.5523 34.2146H31.7851V34.5245H29.5523V34.2146ZM32.6634 36.5335H34.0238V36.8435H32.6634V36.5335ZM29.5523 36.5335H32.2501V36.8435H29.5523V36.5335ZM29.5523 37.693H31.0389V38.003H29.5523V37.693ZM33.1054 27.2462H35.2349V27.5561H33.1054V27.2462ZM33.1054 30.7189H35.2349V31.0288H33.1054V30.7189ZM32.0377 31.8726H32.9504V32.1826H32.0377V31.8726ZM31.1308 33.0493H33.1742V33.3593H31.1308V33.0493ZM33.4842 33.0493H36.3083V33.3593H33.4842V33.0493ZM29.5523 31.8841H31.6818V32.1941H29.5523V31.8841ZM29.5523 33.0493H30.8151V33.3593H29.5523V33.0493ZM33.3809 31.8841H34.5748V32.1941H33.3809V31.8841ZM29.5924 38.8468H30.7864V39.1567H29.5924V38.8468ZM29.5465 29.5594H31.6761V29.8694H29.5465V29.5594ZM31.4293 35.3798H33.5588V35.6898H31.4293V35.3798ZM31.458 37.693H33.5875V38.003H31.458V37.693ZM35.2406 37.693H37.3702V38.003H35.2406V37.693ZM29.5465 30.7189H32.583V31.0288H29.5465V30.7189ZM43.7761 27.2462H45.9056V27.5561H43.7761V27.2462ZM36.1878 38.8468H38.3173V39.1567H36.1878V38.8468ZM46.5658 27.2462H47.9893V27.5561H46.5658V27.2462ZM51.3931 28.4056H52.8167V28.7156H51.3931V28.4056ZM35.8089 27.2462H38.524V27.5561H35.8089V27.2462ZM46.3821 28.4056H49.0971V28.7156H46.3821V28.4056ZM43.0528 29.5594H45.7679V29.8694H43.0528V29.5594ZM39.5227 30.7189H42.2378V31.0288H39.5227V30.7189ZM46.1066 29.5594H48.0352V29.8694H46.1066V29.5594ZM40.5272 27.2462H43.2423V27.5561H40.5272V27.2462ZM37.4333 30.7189H39.0233V31.0288H37.4333V30.7189ZM36.1878 35.397H37.7777V35.707H36.1878V35.397ZM39.0233 27.2462H40.0164V27.5561H39.0233V27.2462ZM35.8089 30.7189H36.8019V31.0288H35.8089V30.7189ZM49.7515 28.4056H50.7445V28.7156H49.7515V28.4056ZM29.5178 28.4056H31.0734V28.7156H29.5178V28.4056ZM33.6679 34.2203H34.8962V34.5303H33.6679V34.2203ZM31.458 28.4056H31.9573V28.7156H31.458V28.4056ZM41.7556 28.4056H45.9056V28.7156H41.7556V28.4056ZM37.7777 37.693H41.9278V38.003H37.7777V37.693ZM32.3247 28.4056H32.8356V28.7156H32.3247V28.4056ZM40.0164 28.4056H41.371V28.7156H40.0164V28.4056ZM41.3768 29.5594H42.7314V29.8694H41.3768V29.5594ZM34.3969 38.8468H35.7515V39.1567H34.3969V38.8468ZM36.7732 28.4056H39.6605V28.7156H36.7732V28.4056ZM34.0812 35.397H35.7687V35.707H34.0812V35.397ZM33.9778 37.693H34.8216V38.003H33.9778V37.693ZM35.3669 28.4056H36.36V28.7156H35.3669V28.4056ZM32.0262 29.5594H33.0192V29.8694H32.0262V29.5594ZM32.2214 34.2203H33.2144V34.5303H32.2214V34.2203ZM33.2603 28.4056H34.9938V28.7156H33.2603V28.4056Z" fill="#F7F7F7"/>
<path d="M47.7941 30.7304C47.7941 30.7304 48.2992 31.5856 48.5116 31.7234C48.7986 31.9128 48.6207 32.1022 48.4829 32.108C48.3451 32.108 47.6449 32.1596 47.4899 31.9817C47.3349 31.8038 47.2603 31.2814 47.1168 31.1437C46.9733 31.0059 46.824 30.4606 47.1857 30.3286C47.5014 30.208 47.7941 30.7304 47.7941 30.7304Z" fill="#FFB750"/>
<path d="M47.5702 30.3573C47.5702 30.3573 48.15 31.3618 48.2476 31.5053C48.3451 31.6545 48.0581 31.6545 47.8802 31.5856C47.7023 31.5168 47.2545 30.7993 47.1914 30.6672C47.1168 30.5123 47.1799 30.3343 47.1799 30.3343L47.5702 30.3573Z" fill="#FFE3CA"/>
<path d="M46.9848 30.8911L47.1225 31.9186L47.1914 31.9243L47.1684 31.1838L46.9848 30.8911ZM42.783 30.7304C42.783 30.7304 43.2882 31.5856 43.5006 31.7234C43.7876 31.9128 43.6096 32.1022 43.4719 32.108C43.3341 32.108 42.6338 32.1596 42.4788 31.9817C42.3238 31.8038 42.2492 31.2814 42.1057 31.1437C41.9622 31.0059 41.8072 30.4434 42.1746 30.3286C42.496 30.2253 42.783 30.7304 42.783 30.7304Z" fill="#FFB750"/>
<path d="M42.5936 30.3573C42.5936 30.3573 43.1389 31.356 43.2423 31.5053C43.3398 31.6545 43.0528 31.6545 42.8749 31.5856C42.6969 31.5168 42.2492 30.7993 42.1861 30.6672C42.1115 30.5123 42.1746 30.3343 42.1746 30.3343L42.5936 30.3573Z" fill="#FFE3CA"/>
<path d="M41.9795 30.8911L42.1115 31.9186L42.1861 31.9243L42.1631 31.1838L41.9795 30.8911Z" fill="#FFB750"/>
<path d="M40.5444 22.9411L45.1135 25.0248C45.1135 25.0248 45.6244 25.1912 45.6818 25.7595C45.8597 27.5274 47.1799 30.3286 47.1799 30.3286C47.6047 30.5352 47.5702 30.3573 47.5702 30.3573C47.3005 29.4963 46.979 25.9604 46.8585 24.5426C46.8355 24.2441 46.8183 24.0375 46.8126 23.9686C46.8126 23.9227 46.7609 23.8653 46.6748 23.7964C46.0491 23.2855 43.4661 22.2351 43.4661 22.2351C41.5432 22.1834 40.5444 22.9411 40.5444 22.9411Z" fill="#FFE3CA"/>
<path d="M39.6834 23.8366C39.8269 25.0707 41.5891 24.9329 41.5891 24.9329H43.7244C43.7244 24.9329 43.1619 26.1843 42.9438 27.2347C42.7142 28.354 42.1689 30.3286 42.1689 30.3286C42.1689 30.3286 42.2033 30.3975 42.5936 30.3573C42.5936 30.3573 44.2697 27.0166 44.9126 26.1728C45.0504 25.9948 45.4464 25.0076 45.5153 24.4221C45.5383 24.2269 45.5268 24.0719 45.4522 24.0088C45.3775 23.9456 45.2053 23.8308 44.9815 23.6873C44.3099 23.2626 43.1504 22.614 42.5018 22.4705C41.635 22.2753 40.2632 21.9079 40.2632 21.9079C40.2632 21.9079 39.5399 22.6025 39.6834 23.8366Z" fill="#FFE3CA"/>
<path d="M41.1357 14.3196C41.1357 14.3196 40.8142 13.7111 40.9692 13.0683C41.1242 12.4196 41.7269 11.7768 42.6051 12.0752C43.4833 12.3737 44.1951 13.051 43.667 13.8432C43.1389 14.6296 44.1434 14.9912 43.8851 15.3643C43.6268 15.7374 43.7244 16.1334 43.8335 16.2195C43.9425 16.3056 44.2927 16.6156 44.2525 16.9887C44.2123 17.3561 42.5477 15.9153 42.5477 15.9153C42.5477 15.9153 41.6465 14.0843 41.1357 14.3196Z" fill="#0E538C"/>
<path d="M43.8163 22.0801C43.8163 22.0801 43.6842 22.723 40.2689 21.9137C40.2689 21.9137 41.4112 21.5348 43.8163 22.0801Z" fill="#EB4747"/>
<path d="M40.2287 22.0916C40.1771 22.1949 40.1254 22.2925 40.068 22.3958C41.3136 22.4303 42.5649 22.4705 43.8105 22.5049C43.6154 21.8448 43.6785 20.9493 43.7129 20.272C43.7531 19.4397 44.2123 18.8657 44.1664 18.0277C44.4132 18.0678 44.4534 18.0736 44.7002 18.1138C44.3214 17.0346 44.1951 16.5008 43.0184 16.0875C42.6338 15.9498 42.387 15.9268 41.9737 15.9612C40.6133 16.076 40.2058 16.0875 39.5342 17.3216C40.5789 17.4881 40.4067 17.8612 40.7224 18.9059C40.8774 19.411 41.0381 19.9793 40.9577 20.5131C40.8773 21.0354 40.2287 21.6152 40.2287 22.0916Z" fill="white"/>
<path d="M42.3985 16.3458C41.8417 16.2425 41.9622 15.9326 41.9622 15.9326C41.9622 15.9326 41.9852 15.7604 41.9967 15.5365C41.9967 15.4791 42.0024 15.4217 42.0024 15.3586C42.0024 15.2667 41.9967 15.1749 41.9852 15.083C41.9393 14.7099 42.9954 14.9338 42.9954 14.9338C42.9954 14.9338 42.9323 15.6915 43.0815 15.9153C43.225 16.1449 42.9553 16.4549 42.3985 16.3458Z" fill="#FFE3CA"/>
<path d="M41.3366 15.9325C41.3366 15.9325 42.4616 17.2298 42.8749 17.5283C42.8749 17.5283 43.3513 17.0978 43.0586 15.9612C43.0586 15.9612 42.519 15.6857 41.3366 15.9325ZM41.371 12.81C41.371 12.81 40.7855 13.935 41.3653 14.9969C41.945 16.0588 43.0815 14.532 43.1504 14.354C43.225 14.1761 43.6154 13.1601 42.8404 12.8559C42.0655 12.5459 41.5375 12.5057 41.371 12.81Z" fill="#FFE3CA"/>
<path d="M42.4961 15.1117C42.4961 15.1117 42.3927 15.3356 41.9967 15.5365C41.9967 15.4791 42.0024 15.4217 42.0024 15.3585C42.0024 15.3585 42.2722 15.3298 42.4961 15.1117Z" fill="#FCD2B1"/>
<path d="M36.601 21.0814C36.601 21.0814 36.3255 21.2019 36.1935 21.1502C36.0614 21.0928 35.8605 21.0814 35.7974 21.0814C35.7113 21.0814 35.4415 20.9838 35.4473 21.0928C35.453 21.1962 35.8835 21.2708 35.9696 21.3052C36.0557 21.3397 35.7056 21.5291 35.6711 21.6152C35.6367 21.7013 36.0385 22.2638 36.2624 22.1031C36.4862 21.9424 36.6068 21.6209 36.6527 21.598C36.6986 21.575 36.8191 21.4889 36.8191 21.4889L36.601 21.0814Z" fill="#FFE3CA"/>
<path d="M35.717 21.5635C35.717 21.5635 35.0684 22.1031 35.0569 22.1777C35.0455 22.2523 35.0799 22.2868 35.143 22.2351C35.2062 22.1892 35.7859 21.73 35.7859 21.73C35.7859 21.73 35.1373 22.4992 35.1143 22.5566C35.1029 22.591 35.166 22.6599 35.2004 22.6369C35.2349 22.614 35.9294 21.8907 35.9294 21.8907C35.9294 21.8907 35.321 22.6082 35.321 22.6656C35.3152 22.7115 35.3899 22.7632 35.4415 22.7115C35.4932 22.6599 36.0959 22.0285 36.0959 22.0285C36.0959 22.0285 35.6883 22.5795 35.717 22.6312C35.7343 22.6599 35.7859 22.723 35.8835 22.5795C35.9811 22.436 36.2566 22.1146 36.2566 22.1146L35.717 21.5635Z" fill="#FFE3CA"/>
<path d="M43.5006 24.9272H41.5891C41.5891 24.9272 39.8269 25.0707 39.6834 23.8308C39.5399 22.5967 40.2632 21.9079 40.2632 21.9079C40.2632 21.9079 41.1931 22.1548 42.0081 22.3499C42.4157 22.2638 42.9036 22.2064 43.4776 22.2236C43.4776 22.2236 46.9216 23.3602 46.8183 23.9629C46.8183 23.9686 45.3775 23.1994 43.5006 24.9272Z" fill="#0E538C"/>
<path d="M42.255 22.7919L45.9056 22.7345L44.0631 23.6701L42.255 22.7919Z" fill="#F2F2F2"/>
<path d="M43.3915 22.3212C43.3915 22.3212 42.5707 22.6369 41.5662 22.3499L41.5202 21.9768L43.5924 22.0916L43.3915 22.3212Z" fill="white"/>
<path d="M44.0631 23.6701L42.255 22.9698V22.7919L44.2066 23.4922L44.0631 23.6701Z" fill="#D3D3D3"/>
<path d="M43.3743 22.4991C43.3628 22.6312 43.5006 22.7287 43.6268 22.6771L43.8392 22.5852C43.9024 22.5565 43.9425 22.4934 43.9311 22.4245C43.845 21.8735 43.6555 19.7267 43.9311 19.3536C44.0344 19.2158 44.0975 19.0953 44.132 18.992C44.3156 19.4627 44.5395 20.0711 44.6313 20.3983L46.3534 22.6943L46.9331 22.8435C46.2099 21.1043 45.6301 20.1859 45.6301 20.1859C45.5153 19.8817 45.1939 18.9633 44.9069 18.1482C44.7232 17.6316 44.5625 17.1552 44.4706 16.9026C44.4247 16.7706 44.3386 16.6615 44.2181 16.5926C43.9483 16.4319 43.5063 16.1794 43.1045 15.9842H43.0988C43.0873 15.9785 43.0758 15.9727 43.0586 15.967C43.8277 17.1207 43.5293 20.3983 43.3743 22.4991C43.3743 22.4934 43.3743 22.4934 43.3743 22.4991ZM40.5272 16.0588C40.2804 16.099 39.672 16.6902 39.3505 17.2872C38.9831 17.9702 38.6043 18.7452 38.323 18.9977C37.8064 19.4684 36.3542 21.1273 36.2853 21.0871C36.2566 21.0699 36.6814 21.5807 36.7388 21.6037C36.7675 21.6152 39.1209 19.5717 39.3505 19.2618C39.5629 18.969 40.1369 17.7292 40.3091 17.7579C40.3206 17.7866 40.533 18.24 40.7281 18.9001C40.7339 18.9116 40.7339 18.9231 40.7396 18.9346C40.8774 19.3938 40.8659 19.8989 40.7913 20.4614C40.7339 20.8862 40.4182 21.5807 40.2287 21.9194C40.2058 21.9596 40.2115 22.0399 40.2345 22.0973C40.2517 22.1318 40.2689 22.1605 40.2976 22.172L40.9922 22.4303L41.1529 22.4877C41.2677 22.5336 41.394 22.5106 41.4858 22.4417C41.5604 22.3901 41.6178 22.304 41.6293 22.2007C41.7843 21.0182 41.9794 19.8071 42.1344 19.3536C42.8175 17.3561 41.8704 15.8522 41.8704 15.8522C41.8704 15.8522 40.7453 15.9785 40.5272 16.0588Z" fill="#FFBE55"/>
<path d="M44.0631 23.6701L45.1479 20.7083L48.6436 20.7657L47.6104 23.4979L44.0631 23.6701Z" fill="#FFBE55"/>
<path d="M46.2673 22.017C46.1582 22.2294 46.1926 22.4647 46.3419 22.5336C46.4911 22.6082 46.692 22.4934 46.8011 22.281C46.9102 22.0687 46.8757 21.8333 46.7265 21.7644C46.5772 21.6898 46.3706 21.8046 46.2673 22.017Z" fill="#F2F0F0"/>
<path d="M44.1434 16.4205C43.8851 16.0301 43.7015 15.7202 43.6785 15.1634C43.6613 14.796 43.5809 14.2966 43.3284 14.0498C43.5924 13.361 43.2824 13.1544 43.1561 12.9305C43.0012 12.6492 41.8532 11.9719 41.3997 12.6837C40.9462 13.3897 41.107 14.1302 41.107 14.1302C41.1529 13.7399 41.5547 13.2118 41.5547 13.2118C41.6178 13.6193 42.4616 14.2852 42.829 14.5549C42.8232 14.5607 42.8175 14.5722 42.8175 14.5779C42.6108 14.8764 42.8691 15.1749 42.9151 15.4906C42.961 15.8063 42.0483 16.6558 43.0643 17.0806C44.0803 17.5111 44.4017 16.805 44.1434 16.4205ZM25.6662 49.8562C25.6662 49.8562 25.6433 50.0973 24.5182 50.0973C23.3932 50.0973 21.7573 49.8046 21.7573 49.8046L24.369 49.552C24.369 49.552 25.3735 49.5003 25.6662 49.8562Z" fill="#0E538C"/>
<path d="M22.8019 49.9423C22.1648 49.9423 21.895 50.2695 21.6425 50.3728C21.3899 50.4761 21.1373 50.6311 21.1373 50.6254C21.2808 50.3441 21.4817 50.3384 21.5851 50.2465C21.6884 50.1547 21.6597 50.2006 21.4358 50.1834C21.3095 50.1719 21.0799 50.4072 20.9192 50.5393C20.7757 50.6483 20.6896 50.6598 20.6896 50.6598C20.6896 50.6598 20.8561 50.4245 21.0627 50.235C21.3153 50.0054 21.631 49.816 21.7056 49.7816C21.8434 49.7242 22.2681 49.7127 22.5666 49.7529C22.911 49.7988 23.2611 49.9423 22.8019 49.9423Z" fill="#0E538C"/>
<path d="M21.7458 49.7931C21.7458 49.7931 21.2579 49.9193 21.1718 49.9882C21.1144 50.0341 20.8618 50.3039 20.8618 50.3039C20.8618 50.3039 21.0455 50.2752 21.1488 50.1719C21.2579 50.0628 21.7458 49.7931 21.7458 49.7931ZM24.7421 49.3625C24.7421 49.3625 25.9705 49.4429 25.8844 50.2006C25.8384 50.6311 25.5572 50.7803 25.1841 50.7459C24.4953 50.6885 23.7146 50.5852 23.7146 50.5852L23.3645 49.4085L24.7421 49.3625Z" fill="#0E538C"/>
<path d="M25.0004 49.4659L26.2058 45.5799C26.2058 45.5799 26.3838 45.0116 26.6765 45.1149C27.0955 45.2699 26.8889 45.7349 26.8544 46.0104C26.7798 46.5729 26.8315 46.8197 26.4412 48.1744C26.2001 49.0124 25.9934 49.9768 25.7868 50.5278C25.6433 50.9066 25.3965 50.3613 25.0234 50.2121C24.3231 49.9308 25.0004 49.4659 25.0004 49.4659ZM25.0922 43.4675C25.3276 44.1449 26.0566 44.495 26.7282 44.2482C27.394 44.0014 27.7499 43.2494 27.5145 42.5721C27.2792 41.8948 26.5502 41.5446 25.8786 41.7914C25.2128 42.0383 24.8569 42.7902 25.0922 43.4675Z" fill="#0E538C"/>
<path d="M23.772 43.5307C24.1394 44.0817 24.8741 44.2195 25.4079 43.8406L25.3333 43.192C25.8671 42.8074 25.9992 42.0497 25.6318 41.4987L25.3792 41.1256C25.0119 40.5745 24.2772 40.4368 23.7433 40.8156L23.5022 40.9878C22.9684 41.3724 22.8364 42.1301 23.2038 42.6811L23.772 43.5307Z" fill="#0E538C"/>
<path d="M23.2899 41.7226C23.353 41.8144 23.4219 41.9005 23.5023 41.9866C24.0303 42.5606 24.7364 42.7787 25.1841 42.5434C25.3907 42.8247 25.6261 43.0485 25.8385 43.2207C26.0853 43.4216 26.7167 43.502 26.7167 43.502C27.084 43.9038 25.7064 46.2515 25.6089 46.24C25.408 46.2228 25.1496 44.9255 25.3391 44.4548C25.4252 44.2424 25.5629 43.9899 25.5228 43.8751C25.3793 43.479 25.1783 43.5479 25.1783 43.5479C25.1783 43.5479 24.9143 43.8579 24.7077 43.8464C24.4953 43.8292 24.1279 43.4962 24.1107 43.4905C24.0476 43.4388 23.9902 43.3757 23.9385 43.3011L23.3875 42.4745C23.244 42.2449 23.2095 41.9694 23.2899 41.7226Z" fill="#FFE3CA"/>
<path d="M27.5031 51.6127C27.5031 51.6127 27.0553 52.1522 26.9176 52.2096C26.7339 52.29 26.1714 52.1178 26.1714 52.1178C26.1714 52.1178 26.0221 49.6438 25.8499 48.6795C25.6777 47.7152 25.4252 47.4626 25.4137 47.1584C25.3965 46.6705 24.9889 46.4753 25.0578 46.0965C25.1267 45.7176 25.2472 44.363 25.2874 44.5409C25.6375 46.0793 26.068 44.7992 26.1656 44.5983C26.2173 44.4893 27.5031 51.6127 27.5031 51.6127Z" fill="#F2F0F0"/>
<path d="M25.4653 44.0817C25.4653 44.0817 24.92 44.6787 24.9602 44.914C24.9947 45.1494 24.7249 45.8841 24.9947 46.9058C25.2989 48.0711 25.4596 48.8632 25.517 49.6266C25.5744 50.39 25.3161 51.0903 25.4194 52.026C25.4998 52.7607 25.6663 52.8009 25.6663 52.8009C25.6663 52.8009 25.9934 52.8812 26.223 52.5942C26.4526 52.313 26.1082 49.8103 25.9934 49.1904C25.8786 48.5647 25.5113 47.1067 25.4137 46.6762C25.2931 46.1482 25.3161 45.6086 25.3218 45.4536C25.3505 44.9083 25.4194 44.5696 25.4768 44.363C25.4826 44.3343 25.5113 44.0129 25.4653 44.0817ZM26.4182 44.782C26.7167 45.643 27.6466 46.085 28.4961 45.7693C29.3456 45.4536 29.7933 44.5008 29.4949 43.6398C29.1964 42.7787 28.2665 42.3368 27.417 42.6525C26.5674 42.9624 26.1197 43.921 26.4182 44.782Z" fill="#0E538C"/>
<path d="M23.4965 59.5798L23.8007 62.0079L22.4805 62.6335L21.7515 62.7943L23.0488 61.7898L22.624 59.5971L23.4965 59.5798Z" fill="#FCBAA2"/>
<path d="M23.8868 62.3753L23.5998 62.4499L23.4047 62.2719L22.3485 62.8L21.4129 63.0239C21.4129 63.0239 21.4014 62.9493 21.4301 62.9091C21.5449 62.7541 22.205 62.4154 22.205 62.4154C22.205 62.4154 22.2165 62.6393 22.3083 62.645C22.4002 62.6508 23.2095 62.226 23.3989 62.1112C23.7204 61.9103 23.7835 61.7783 23.8065 61.7955C23.8754 61.83 23.8868 62.3753 23.8868 62.3753Z" fill="#0E538C"/>
<path d="M20.3108 56.2047L19.2603 58.2711L17.8139 58.2022L17.0906 57.9899L18.6921 57.7201L19.5646 55.9521L20.3108 56.2047Z" fill="#FCBAA2"/>
<path d="M19.1742 58.6385L18.8872 58.5696L18.7954 58.317L17.4924 58.2998L16.7175 58.1161C16.7175 58.1161 16.8093 58.0128 16.8667 57.9841C17.0389 57.9095 17.6531 57.8751 17.6531 57.8751C17.6531 57.8751 17.59 58.053 17.6703 58.0989C17.7507 58.1506 18.6462 58.1793 18.8643 58.1621C19.2431 58.1334 19.3522 58.053 19.3637 58.076C19.4038 58.1563 19.1742 58.6385 19.1742 58.6385Z" fill="#0E538C"/>
<path d="M27.9737 50.0227L27.1931 50.3728L27.1988 51.4462L21.8204 50.568C21.8204 50.568 21.3095 50.4015 20.9824 51.2453C20.5174 52.4392 19.335 56.153 19.335 56.153L20.0812 56.9624L22.4288 52.7664C22.4288 52.7664 27.239 55.1026 28.8233 54.5975C29.4317 54.4023 29.8966 53.2888 29.8105 52.1637C29.7417 51.2797 29.5695 50.4704 29.5695 50.4704L27.9737 50.0227Z" fill="#FFB750"/>
<path d="M27.2907 54.5745L23.4391 54.2875L23.772 60.4409L22.6355 60.481L21.7975 53.2715C21.7975 53.2715 22.0213 52.1981 22.756 52.3589C23.4965 52.5253 25.2759 53.9374 27.2907 54.5745Z" fill="#FFB750"/>
<path d="M29.8852 56.1186C29.8852 56.1186 27.8647 53.8513 27.3423 52.5713C26.7167 51.0387 26.7683 49.1158 26.6535 48.4786C26.4411 47.3076 26.1828 45.0346 26.1369 44.7533C26.0852 44.4721 26.2632 44.1564 26.2632 44.1564C26.2632 44.1564 26.1312 43.3068 26.51 43.3987C27.0553 43.5307 27.5949 43.8292 27.7843 43.921C28.1402 44.0817 28.8692 48.3638 28.9094 48.5704C29.0586 49.3167 29.6039 49.994 29.9942 50.6885C30.9126 52.3359 31.148 54.2818 31.148 54.2818C31.148 54.2818 31.0332 55.7053 29.8852 56.1186Z" fill="#2A94F4"/>
<path d="M27.8015 50.1891C27.8015 50.1891 27.7843 50.4647 26.4986 50.4015C25.2128 50.3326 23.33 49.9021 23.33 49.9021L26.3091 49.7644C26.3091 49.7644 27.4514 49.7701 27.8015 50.1891Z" fill="#FFE3CA"/>
<path d="M24.3403 50.0514C23.7261 50.0399 23.4621 50.3556 23.221 50.4532C22.9799 50.5508 22.7331 50.6943 22.7331 50.6943C22.8708 50.4245 23.066 50.4187 23.1693 50.3326C23.2669 50.2465 23.2439 50.2924 23.0258 50.2695C22.8995 50.258 22.6814 50.4819 22.5264 50.6082C22.3887 50.7172 22.3026 50.723 22.3026 50.723C22.3026 50.723 22.4633 50.4934 22.6642 50.3097C22.911 50.0915 23.2095 49.9079 23.2841 49.8792C23.4162 49.8275 23.8237 49.8218 24.1164 49.8677C24.4436 49.9136 24.7823 50.0628 24.3403 50.0514Z" fill="#FFE3CA"/>
<path d="M23.3128 49.8849C23.3128 49.8849 22.8421 49.9997 22.7618 50.0629C22.7044 50.1088 22.4633 50.3671 22.4633 50.3671C22.4633 50.3671 22.6355 50.3384 22.7388 50.2408C22.8421 50.149 23.3128 49.8849 23.3128 49.8849Z" fill="#FFE3CA"/>
<path d="M26.7741 49.8849L28.6798 48.8804C28.6798 48.8804 28.6855 50.0973 28.697 50.5622C28.7085 51.0272 28.9036 51.6815 28.5363 51.7791C28.1689 51.8767 27.9795 51.825 28.3583 52.0489C28.7372 52.267 28.6511 52.4966 28.5076 52.6861C28.3641 52.8755 28.9897 54.8041 28.8405 54.9132C28.2493 54.167 27.6121 53.2428 27.3366 52.5712C26.9865 51.6988 26.8487 50.7 26.7741 49.8849Z" fill="#0E538C"/>
<path d="M27.3883 49.397L27.3136 45.5167C27.3136 45.5167 27.3194 44.3056 27.3423 43.9497C27.3653 43.5823 27.991 44.0128 27.991 44.0128C27.991 44.0128 28.8692 45.201 28.8864 48.0653C28.8979 49.9825 28.7946 50.9813 27.9106 50.9009C27.0898 50.8263 26.1542 50.7 26.1542 50.7L25.7466 49.6381L27.3883 49.397Z" fill="#2A94F4"/>
<path d="M27.1931 51.4462L20.6322 50.6254L20.6495 50.4876L27.2103 51.3084L27.1931 51.4462Z" fill="#D3D3D3"/>
<path d="M24.3173 50.9411C24.3059 51.0501 24.2198 51.1305 24.1279 51.119L20.7642 50.7C20.6724 50.6885 20.5576 50.6024 20.4772 50.3154L19.18 46.9575C19.1972 46.8197 19.3063 46.7508 19.3981 46.7853L22.8364 47.3248C22.9282 47.3593 22.9914 47.4396 23.0258 47.5889L24.3173 50.9411Z" fill="#D3D3D3"/>
<path d="M23.8926 51.0329L23.927 51.0387L27.2103 51.4519C27.084 51.5036 26.8831 51.5208 26.6593 51.4921L23.9098 51.1477L23.8753 51.142L21.1259 50.7976C20.902 50.7689 20.7126 50.7 20.5978 50.6254L23.8926 51.0329Z" fill="#D3D3D3"/>
<path d="M27.3883 49.397L27.3136 45.5167C27.3136 45.5167 27.371 45.1895 27.4858 44.8968C27.5145 45.3216 27.7097 48.381 27.7327 48.7828C27.7614 49.219 28.1173 49.265 28.1919 49.4085C28.2722 49.5462 28.2034 49.5749 27.9393 49.5233C27.681 49.4659 27.7728 49.5118 27.8302 49.6495C27.8876 49.793 27.7441 49.7529 27.239 49.5692C26.8717 49.4372 26.1656 49.5692 25.8098 49.6495L27.3883 49.397Z" fill="#0E538C"/>
<path d="M50.0729 39.8743C49.4415 40.0407 48.2763 40.6262 48.0294 41.6307C47.6621 43.1404 48.3968 45.3503 47.2373 47.52C46.8642 48.2088 53.6489 49.1387 53.6489 49.1387L54.9577 41.5159C54.9577 41.5159 53.3218 39.8628 52.9888 39.748C52.2943 39.5184 51.3357 39.5414 50.0729 39.8743Z" fill="#CCE9FF"/>
<path d="M54.9634 41.5217C55.1988 42.1301 55.7958 45.7521 55.1299 46.6074C55.0553 46.7049 55.4743 46.8599 55.3997 47.3076C55.3882 47.3823 55.2619 47.7439 55.2619 47.7439L54.7224 47.8874L53.5457 46.527C53.5457 46.527 54.0221 45.7865 54.6477 42.9796C54.8314 42.1531 54.9118 41.3839 54.9634 41.5217Z" fill="#2A94F4"/>
<path d="M50.5092 45.8497C50.5092 45.8497 51.0774 47.3478 52.4493 47.7496C52.6846 47.8185 52.8339 48.0825 52.7191 48.1686C52.5698 48.2777 52.3747 48.3007 52.0303 48.3007C51.3128 48.3007 50.337 48.0711 49.6654 47.3937C48.6666 46.395 48.3509 45.9358 48.4542 45.4364C48.5461 44.9255 50.5092 45.8497 50.5092 45.8497Z" fill="#FCD2B1"/>
<path d="M48.2246 41.1256C47.9319 41.6192 47.7654 42.4114 47.7711 43.5479C47.7711 44.4261 48.5059 45.8669 48.6149 46.3088C48.6321 46.3835 48.6781 46.6992 48.6781 46.6992L49.4874 47.5257L51.1118 46.3835L50.6182 45.5971L50.469 45.6143C50.469 45.6143 50.3771 45.1781 50.4001 45.0116C50.423 44.8451 49.9524 42.5778 49.717 41.1256C49.585 40.2818 48.5116 40.6377 48.2246 41.1256Z" fill="#2A94F4"/>
<path d="M49.6826 45.5799L50.159 45.4306L50.3542 45.379C50.3657 45.5167 50.4805 45.6086 50.4805 45.6086L50.1074 45.6545L49.6768 45.7923L49.1717 46.1539L49.6826 45.5799Z" fill="#0E538C"/>
<path d="M52.346 47.7439L53.1725 47.5085C53.1725 47.5085 53.4079 47.8357 53.362 47.9161C53.316 47.9964 53.362 48.4786 53.362 48.4786L52.9602 48.8345L52.633 48.7197C52.633 48.7197 52.61 48.5704 52.7191 48.5589C52.8339 48.5417 52.6445 48.4614 52.5871 48.4269C52.5297 48.3867 52.0532 48.1342 52.346 47.7439Z" fill="#FCD2B1"/>
<path d="M51.0717 39.7997C50.9798 40.0694 51.1176 40.3737 51.3816 40.4655L51.8523 40.6377C52.1164 40.7353 52.4034 40.586 52.4952 40.3163L52.9142 39.0764C53.0061 38.8066 52.8683 38.5024 52.6043 38.4048L52.1336 38.2326C51.8696 38.135 51.5825 38.2843 51.4907 38.5541L51.0717 39.7997Z" fill="#FF957E"/>
<path d="M53.1266 40.8903C53.0807 41.0682 52.897 41.1773 52.7248 41.1256L51.307 40.7181C51.1348 40.6664 51.0315 40.4827 51.0774 40.299L51.6572 38.1236C51.7031 37.9456 51.8868 37.8366 52.059 37.8882L53.4767 38.29C53.6489 38.3417 53.7523 38.5254 53.7063 38.7091L53.1266 40.8903Z" fill="#FCD2B1"/>
<path d="M53.8614 38.4909C53.8728 38.4794 53.7293 38.3187 53.804 38.003C53.9015 37.5783 53.5858 37.4061 53.3505 37.4003C53.2127 37.3946 52.7478 37.6184 52.501 37.6931C52.2541 37.7677 52.2771 37.6701 51.8294 37.5897C51.5309 37.5323 51.462 37.6988 51.3587 37.9284C51.2554 38.1637 51.2439 39.0592 51.2439 39.0592C51.2841 39.1166 51.3472 39.1625 51.3874 39.1166C51.4276 39.0707 51.5883 38.3532 51.7203 38.1408C51.8466 37.9284 52.3632 38.2671 52.6445 38.4335C52.92 38.6 53.1668 38.6287 53.6088 38.5368C53.6605 38.5942 53.7064 38.6574 53.7064 38.6861C53.7064 38.7435 53.5801 39.151 53.5801 39.151C53.5801 39.151 53.8269 38.996 53.8958 38.8755C53.9302 38.8353 53.9417 38.6402 53.8614 38.4909Z" fill="#FFBE55"/>
<path d="M51.5251 39.8456C51.5079 39.903 51.4505 39.9431 51.3931 39.9259L51.0889 39.8398C51.0315 39.8226 50.9971 39.7595 51.0143 39.7021L51.1693 39.1223C51.1865 39.0649 51.2439 39.0247 51.3013 39.042L51.6055 39.1281C51.6629 39.1453 51.6973 39.2084 51.6801 39.2658L51.5251 39.8456Z" fill="#FCD2B1"/>
<path d="M51.3357 39.2945C51.3357 39.2945 51.1061 40.1498 51.0315 40.4368C50.9626 40.6951 50.911 41.2921 52.3173 41.6939C53.1496 41.9292 53.2873 41.2863 53.3447 41.0797C53.3849 40.919 53.339 40.3966 53.2759 40.2818C53.2759 40.2761 53.184 40.6377 53.184 40.6377C53.184 40.6377 53.1037 40.2416 52.7076 40.1326C52.0705 39.9489 51.8179 40.299 51.5424 40.2072C51.3242 40.1326 51.2611 39.7193 51.3357 39.2945Z" fill="#FFBE55"/>
<path d="M52.2943 40.609L52.7305 40.7353C52.7879 40.7525 52.8511 40.718 52.8626 40.6549L52.8798 40.5918L52.2312 40.4081L52.2139 40.4712C52.2025 40.5344 52.2369 40.5918 52.2943 40.609Z" fill="#FCD2B1"/>
<path d="M59.2111 49.3052C59.0102 49.8849 55.4743 52.0145 54.2861 51.8882L50.7101 52.0661C47.6736 51.6815 46.2328 46.791 46.2328 46.791C46.3534 45.5626 49.3497 47.3421 50.4173 47.8931C52.1049 48.7656 53.1783 48.8115 53.1783 48.8115C54.3091 48.932 55.6178 48.0251 57.0471 47.9964C58.6141 47.9562 59.5325 48.3925 59.2111 49.3052Z" fill="#0B4870"/>
<path d="M51.439 48.7197C51.439 48.7139 51.439 48.7139 51.439 48.7197V48.559L57.5866 48.4442V48.6049L57.5694 48.6336C57.4948 48.7713 57.3513 48.7943 57.1906 48.8L51.8408 48.9034C51.6801 48.9091 51.5366 48.8861 51.4562 48.7541L51.439 48.7197Z" fill="#D3D3D3"/>
<path d="M52.92 48.7139L52.9027 48.7426C52.8798 48.7771 52.8511 48.8058 52.8166 48.823L51.881 48.8402C51.726 48.8459 51.5883 48.8287 51.5079 48.7197L51.4907 48.6967L51.485 48.691V48.6163L52.9085 48.5876L52.92 48.7139ZM53.7523 48.6565L56.8232 48.5991V48.4901L53.7465 48.5532L53.7523 48.6565ZM52.9544 48.5245L53.6949 45.379C53.7121 45.2986 53.7925 45.2297 53.8728 45.224L58.1893 45.1436C58.2697 45.1436 58.3156 45.2068 58.2984 45.2929L57.5579 48.4384L52.9544 48.5245Z" fill="#D3D3D3"/>
<path d="M50.1705 52.8755C50.5952 52.9501 50.9224 52.4392 50.9224 52.4392L52.0245 51.5438L51.7892 50.9353L49.6424 51.9341C49.6424 51.9341 49.74 52.8009 50.1705 52.8755Z" fill="#FCD2B1"/>
<path d="M50.9167 52.4048C50.9167 52.4048 50.9167 52.4564 50.8363 52.6918C50.756 52.9271 50.6527 53.0075 50.5493 53.0419C50.1361 53.1682 49.8433 53.1051 48.856 53.3002C47.8687 53.4954 47.5703 53.3462 47.2833 52.8755C46.9963 52.4048 47.2947 52.0317 47.7769 51.9972C48.4715 51.9456 48.8618 52.0259 49.2234 51.9685C49.6022 51.9111 49.6252 51.8193 49.8491 51.6758C50.0557 51.5438 50.2509 52.3359 50.0557 52.5196C49.8778 52.6803 50.7732 52.7033 50.9167 52.4048Z" fill="#FFB750"/>
<path d="M50.7101 52.8583C50.3025 52.9845 50.004 52.9214 49.0167 53.1166C48.0295 53.3117 47.731 53.1625 47.444 52.6918C47.312 52.4737 47.3062 52.2785 47.3808 52.1293C47.1627 52.2843 47.0881 52.554 47.2833 52.8755C47.5703 53.3462 47.8687 53.4954 48.856 53.3002C49.8433 53.1051 50.1418 53.1682 50.5493 53.0419C50.6297 53.019 50.7101 52.9616 50.7789 52.8296C50.756 52.841 50.733 52.8525 50.7101 52.8583Z" fill="white"/>
<path d="M50.9167 52.422V52.4105C50.9167 52.4163 50.911 52.422 50.9052 52.4277C50.911 52.422 50.9167 52.422 50.9167 52.422Z" fill="#E9D6B8"/>
<path d="M48.7872 52.7721C48.7585 52.7836 48.7297 52.7205 48.7183 52.6344C48.701 52.4564 48.6609 52.2842 48.6035 52.1063C48.5748 52.0202 48.5748 51.9456 48.6092 51.9341C48.6436 51.9226 48.701 51.9858 48.724 52.0719C48.7814 52.2441 48.8159 52.422 48.8331 52.5942C48.8446 52.6803 48.8159 52.7607 48.7872 52.7721ZM49.0914 52.7147C49.0569 52.7205 49.0282 52.6631 49.0168 52.5827C48.9995 52.4163 48.9594 52.2498 48.902 52.0891C48.8733 52.0087 48.8732 51.9398 48.9134 51.9341C48.9479 51.9284 49.0053 51.9915 49.034 52.0719C49.0856 52.2326 49.1258 52.399 49.143 52.5598C49.1488 52.6401 49.1258 52.709 49.0914 52.7147ZM49.4128 52.7033C49.3784 52.709 49.3439 52.6459 49.3325 52.5598C49.3038 52.3876 49.2636 52.2211 49.2004 52.0489C49.1717 51.9628 49.1717 51.8939 49.2062 51.8939C49.2464 51.8939 49.3038 51.9571 49.3325 52.0432C49.3956 52.2096 49.4358 52.3818 49.4587 52.5483C49.4702 52.6286 49.4473 52.6975 49.4128 52.7033Z" fill="white"/>
<path d="M50.2451 51.4118C50.2451 51.4118 57.8048 48.1916 58.2353 48.1859C59.6932 48.1744 59.3603 49.7012 58.6198 50.4245C57.7474 51.274 51.1119 52.8295 51.1119 52.8295L50.2451 51.4118Z" fill="#0E538C"/>
<path d="M53.2414 51.9743L51.175 49.9423L52.059 49.0411L54.3091 51.4979L53.2414 51.9743Z" fill="#FCD2B1"/>
<path d="M53.6662 50.3785C53.6662 50.3785 48.414 45.3904 48.0639 45.2412C46.8642 44.7361 46.1238 46.1079 46.1639 46.5844C46.2213 47.1986 51.5538 52.1924 51.5538 52.1924L53.6662 50.3785Z" fill="#0E538C"/>
<path d="M56.7773 52.1293C56.8978 52.2441 56.9208 52.5942 56.9208 52.5942C56.9208 52.5942 55.1701 53.283 54.5559 53.2945C54.3952 53.3002 54.1082 53.2314 53.8326 53.151C53.7867 53.1395 53.6777 53.0132 53.6317 53.0018C53.5456 52.9788 53.5284 53.0592 53.4595 53.0362C53.2759 52.9731 53.1381 52.9214 53.1324 52.9099C52.7593 52.0948 52.8855 51.693 52.8855 51.693C52.8855 51.693 53.6891 51.9341 53.5514 51.7447C53.2586 51.3429 54.1024 50.9353 54.2861 51.1477C55.0438 52.003 56.4214 51.7906 56.7773 52.1293Z" fill="#FFB750"/>
<path d="M56.8749 52.3015C56.3353 52.5253 55.2045 52.9788 54.9807 52.996C54.0565 53.0649 53.4136 52.7262 52.9831 52.5253C53.0233 52.6401 53.0692 52.7722 53.1324 52.9099C53.1381 52.9214 53.2701 52.9731 53.4595 53.0362C53.5342 53.0592 53.5514 52.9731 53.6317 53.0018C53.6777 53.0132 53.781 53.1395 53.8326 53.151C54.1082 53.2314 54.3952 53.2945 54.5559 53.2945C55.1701 53.283 56.9208 52.5942 56.9208 52.5942C56.9208 52.5942 56.9208 52.4335 56.8749 52.3015ZM55.6408 51.7734C55.658 51.8078 55.5891 51.8423 55.4915 51.8652C55.2906 51.9054 55.0955 51.9686 54.9003 52.0489C54.8027 52.0891 54.7166 52.1006 54.7051 52.0661C54.6937 52.0317 54.7568 51.9686 54.8544 51.9284C55.0438 51.848 55.2447 51.7906 55.4399 51.7504C55.5317 51.7217 55.6235 51.739 55.6408 51.7734ZM55.2447 51.6299C55.2619 51.6643 55.193 51.7103 55.0955 51.739C54.9003 51.7964 54.7109 51.8767 54.5215 51.9743C54.4296 52.0202 54.3435 52.0374 54.332 52.003C54.3206 51.9686 54.3837 51.8939 54.4755 51.848C54.6592 51.7562 54.8486 51.6758 55.0438 51.6242C55.1414 51.584 55.2332 51.5955 55.2447 51.6299ZM54.8659 51.5036C54.8773 51.5381 54.8142 51.5897 54.7224 51.6242C54.5329 51.6988 54.3493 51.7906 54.1713 51.8997C54.0852 51.9571 54.0049 51.9743 53.9934 51.9341C53.9819 51.8997 54.0393 51.8193 54.1311 51.7619C54.3091 51.6529 54.4928 51.561 54.6764 51.4921C54.7683 51.4634 54.8544 51.4692 54.8659 51.5036Z" fill="white"/>
</svg>
