<svg width="38" height="38" viewBox="0 0 38 38" fill="none" xmlns="http://www.w3.org/2000/svg">
<rect width="37.6515" height="37.6515" rx="18.8258" fill="#0F4B8A"/>
<rect x="13.4575" y="6.1583" width="10.7366" height="15.2592" rx="1.10307" fill="white"/>
<rect x="14.3767" y="7.2246" width="8.82457" height="11.2146" rx="0.551536" fill="#104C8A"/>
<circle cx="18.8074" cy="20.0386" r="0.680228" fill="#104C8B"/>
<path d="M19.6206 10.4809L19.6224 11.0284C19.8162 10.9471 20.0244 10.906 20.2343 10.9076C20.4694 10.9064 20.6698 10.9276 20.8469 10.9597L20.8453 10.4314C20.6429 10.3974 20.438 10.3808 20.2328 10.3817C20.0249 10.3828 19.8184 10.4163 19.6206 10.4809ZM19.6236 11.6208L19.6254 12.1683C19.8192 12.087 20.0274 12.0459 20.2374 12.0475C20.4724 12.0463 20.6728 12.0675 20.8499 12.0996L20.8483 11.5713C20.646 11.5373 20.4411 11.5206 20.2358 11.5216C20.0279 11.5221 19.8213 11.5556 19.6236 11.6208ZM19.6272 12.7605L19.6289 13.308C19.8227 13.2267 20.0309 13.1856 20.2409 13.1871C20.4759 13.186 20.6764 13.2072 20.8534 13.2392L20.8519 12.711C20.6495 12.6769 20.4446 12.6603 20.2393 12.6613C20.0314 12.6618 19.8248 12.6952 19.6272 12.7605ZM16.8282 12.729L16.8298 13.2573C17.0316 13.2191 17.2364 13.1999 17.4417 13.1999C17.6516 13.1965 17.86 13.2358 18.0542 13.3154L18.0524 12.7679C17.8545 12.705 17.6479 12.6734 17.4401 12.674C17.235 12.6746 17.0303 12.693 16.8282 12.729ZM16.8217 10.4495L16.8232 10.9777C17.0251 10.9402 17.2299 10.921 17.4351 10.9203C17.6451 10.9169 17.8534 10.9562 18.0476 11.0358L18.0463 10.4881C17.8482 10.4253 17.6415 10.3937 17.4336 10.3945C17.2284 10.3951 17.0237 10.4135 16.8217 10.4495ZM16.8247 11.5894L16.8263 12.1176C17.028 12.0794 17.2329 12.0602 17.4382 12.0602C17.6481 12.0568 17.8565 12.0961 18.0507 12.1757L18.0494 11.628C17.8514 11.5651 17.6449 11.5335 17.4371 11.5341C17.2318 11.5348 17.0269 11.5533 16.8247 11.5894ZM20.2291 9.16582C19.7065 9.16563 19.2045 9.37117 18.8311 9.73817C18.4556 9.37481 17.9525 9.17403 17.4301 9.17902C16.4251 9.1837 15.6939 9.66999 15.6939 9.66999L15.7102 14.6965C15.7107 14.851 15.8878 14.9437 16.0102 14.8498C16.2736 14.6474 16.7292 14.419 17.445 14.4157C18.1294 14.4126 18.5095 14.7787 18.6961 15.0476C18.7701 15.1543 18.9279 15.1459 19.002 15.0388C19.1889 14.7689 19.5659 14.4059 20.2442 14.4029C20.9609 14.3995 21.4178 14.6243 21.6826 14.8245C21.8059 14.9175 21.9811 14.8237 21.9809 14.6693L21.968 9.6411C21.968 9.6411 21.234 9.1615 20.2291 9.16582ZM18.5817 14.1608C18.2474 13.9301 17.8499 13.8087 17.4438 13.8133C16.9455 13.8154 16.5666 13.9104 16.3075 14.0088L16.2954 10.0229C16.4661 9.93487 16.8444 9.78339 17.432 9.78079C17.9852 9.77837 18.3512 10.0498 18.5707 10.2969L18.5817 14.1608ZM21.38 13.9858C21.1201 13.8897 20.7405 13.7982 20.2421 13.8007C19.836 13.7998 19.4393 13.9247 19.1063 14.1584L19.0953 10.2945C19.3129 10.0451 19.6772 9.77025 20.2308 9.76795C20.818 9.76524 21.1973 9.91325 21.3685 9.99968L21.38 13.9858Z" fill="white"/>
<path d="M4.59791 29.4932V24.3455H5.33329V28.8534H8.12039V29.4932H4.59791ZM10.5465 29.5373C10.1298 29.5373 9.76211 29.4515 9.44344 29.28C9.12968 29.1084 8.88455 28.873 8.70806 28.574C8.53647 28.2749 8.45068 27.9318 8.45068 27.5445C8.45068 27.1572 8.53402 26.814 8.7007 26.5149C8.87229 26.2159 9.10516 25.983 9.39932 25.8163C9.69837 25.6447 10.0342 25.5589 10.4068 25.5589C10.7843 25.5589 11.1177 25.6423 11.4069 25.809C11.6962 25.9756 11.9217 26.211 12.0835 26.5149C12.2501 26.814 12.3335 27.1645 12.3335 27.5665C12.3335 27.5959 12.331 27.6302 12.3261 27.6695C12.3261 27.7087 12.3237 27.7455 12.3188 27.7798H9.00221V27.2724H11.9511L11.6643 27.4489C11.6692 27.1988 11.6177 26.9758 11.5099 26.7797C11.402 26.5836 11.2525 26.4316 11.0613 26.3237C10.875 26.211 10.6568 26.1546 10.4068 26.1546C10.1617 26.1546 9.9435 26.211 9.7523 26.3237C9.5611 26.4316 9.41157 26.586 9.30372 26.787C9.19586 26.9831 9.14193 27.2086 9.14193 27.4636V27.5812C9.14193 27.8411 9.20076 28.0739 9.31843 28.2798C9.44099 28.4808 9.61013 28.6377 9.82584 28.7505C10.0415 28.8632 10.2891 28.9196 10.5686 28.9196C10.799 28.9196 11.0074 28.8804 11.1936 28.802C11.3848 28.7235 11.5515 28.6059 11.6937 28.449L12.0835 28.9049C11.907 29.1108 11.6864 29.2677 11.4216 29.3756C11.1618 29.4834 10.8701 29.5373 10.5465 29.5373ZM15.6255 29.4932V28.6696L15.5887 28.5152V27.1106C15.5887 26.8115 15.5005 26.5811 15.324 26.4193C15.1524 26.2526 14.8925 26.1693 14.5445 26.1693C14.314 26.1693 14.0885 26.2085 13.8679 26.287C13.6473 26.3605 13.461 26.461 13.309 26.5885L13.0149 26.059C13.2159 25.8972 13.4561 25.7746 13.7355 25.6913C14.0199 25.603 14.3165 25.5589 14.6253 25.5589C15.1597 25.5589 15.5715 25.6888 15.8608 25.9487C16.15 26.2085 16.2947 26.6056 16.2947 27.14V29.4932H15.6255ZM14.3459 29.5373C14.0567 29.5373 13.8017 29.4883 13.5811 29.3903C13.3654 29.2922 13.1987 29.1574 13.081 28.9858C12.9634 28.8093 12.9046 28.6108 12.9046 28.3901C12.9046 28.1793 12.9536 27.9881 13.0516 27.8165C13.1546 27.645 13.3188 27.5077 13.5443 27.4047C13.7748 27.3018 14.0836 27.2503 14.4709 27.2503H15.7064V27.7577H14.5003C14.1474 27.7577 13.9096 27.8165 13.787 27.9342C13.6645 28.0519 13.6032 28.194 13.6032 28.3607C13.6032 28.5519 13.6792 28.7064 13.8311 28.824C13.9831 28.9368 14.1939 28.9932 14.4636 28.9932C14.7283 28.9932 14.9587 28.9343 15.1548 28.8167C15.3558 28.699 15.5005 28.5274 15.5887 28.3019L15.7284 28.7872C15.6353 29.0177 15.471 29.2015 15.2357 29.3388C15.0004 29.4712 14.7038 29.5373 14.3459 29.5373ZM17.6011 29.4932V25.5957H18.2777V26.6546L18.2115 26.3899C18.3193 26.1203 18.5007 25.9144 18.7557 25.7722C19.0106 25.63 19.3244 25.5589 19.697 25.5589V26.2428C19.6675 26.2379 19.6381 26.2355 19.6087 26.2355C19.5842 26.2355 19.5597 26.2355 19.5352 26.2355C19.1577 26.2355 18.8586 26.3482 18.638 26.5738C18.4174 26.7993 18.3071 27.1253 18.3071 27.5518V29.4932H17.6011ZM22.6482 25.5589C22.9669 25.5589 23.2463 25.6202 23.4865 25.7428C23.7316 25.8653 23.9228 26.0516 24.0601 26.3017C24.1974 26.5517 24.266 26.8679 24.266 27.2503V29.4932H23.5601V27.3312C23.5601 26.9537 23.4669 26.6694 23.2806 26.4782C23.0992 26.287 22.8418 26.1914 22.5085 26.1914C22.2584 26.1914 22.0403 26.2404 21.854 26.3384C21.6677 26.4365 21.5231 26.5811 21.4201 26.7723C21.322 26.9635 21.273 27.2013 21.273 27.4856V29.4932H20.5671V25.5957H21.2436V26.6473L21.1333 26.3678C21.2608 26.1129 21.4569 25.9144 21.7216 25.7722C21.9863 25.63 22.2952 25.5589 22.6482 25.5589ZM25.5725 29.4932V25.5957H26.2785V29.4932H25.5725ZM25.9255 24.8456C25.7882 24.8456 25.673 24.8015 25.5799 24.7132C25.4916 24.625 25.4475 24.5171 25.4475 24.3897C25.4475 24.2573 25.4916 24.147 25.5799 24.0587C25.673 23.9705 25.7882 23.9264 25.9255 23.9264C26.0628 23.9264 26.1755 23.9705 26.2638 24.0587C26.3569 24.1421 26.4035 24.2475 26.4035 24.375C26.4035 24.5073 26.3594 24.6201 26.2711 24.7132C26.1829 24.8015 26.0677 24.8456 25.9255 24.8456ZM27.7294 29.4932V25.2501C27.7294 24.8677 27.8397 24.5637 28.0603 24.3382C28.2858 24.1078 28.6045 23.9926 29.0163 23.9926C29.1683 23.9926 29.3129 24.0122 29.4502 24.0514C29.5923 24.0857 29.7125 24.1421 29.8105 24.2205L29.5973 24.7574C29.5237 24.6985 29.4404 24.6544 29.3472 24.625C29.2541 24.5907 29.156 24.5735 29.0531 24.5735C28.8472 24.5735 28.6903 24.6323 28.5824 24.75C28.4746 24.8628 28.4206 25.0319 28.4206 25.2574V25.7795L28.4353 26.1031V29.4932H27.7294ZM27.0675 26.1766V25.5957H29.5531V26.1766H27.0675ZM30.4599 30.964C30.2736 30.964 30.0922 30.9321 29.9157 30.8684C29.7392 30.8095 29.5872 30.7213 29.4598 30.6036L29.7613 30.0742C29.8593 30.1673 29.9672 30.2384 30.0848 30.2874C30.2025 30.3365 30.3275 30.361 30.4599 30.361C30.6315 30.361 30.7736 30.3168 30.8864 30.2286C30.9992 30.1404 31.1046 29.9835 31.2026 29.758L31.4453 29.2211L31.5188 29.1329L33.0484 25.5957H33.7397L31.8498 29.883C31.737 30.1575 31.6095 30.3732 31.4674 30.5301C31.3301 30.687 31.1781 30.7973 31.0114 30.861C30.8447 30.9297 30.6609 30.964 30.4599 30.964ZM31.3865 29.6182L29.6068 25.5957H30.3422L31.8571 29.0667L31.3865 29.6182Z" fill="white"/>
</svg>
