<svg width="58" height="43" viewBox="0 0 58 43" fill="none" xmlns="http://www.w3.org/2000/svg">
<path d="M1.14 41V34H1.75L4.95 39.46H4.63L7.8 34H8.41V41H7.7V35.11H7.87L4.95 40.11H4.6L1.66 35.11H1.85V41H1.14ZM10.5808 42.99C10.3341 42.99 10.0974 42.95 9.87078 42.87C9.65078 42.79 9.46078 42.67 9.30078 42.51L9.63078 41.98C9.76411 42.1067 9.90745 42.2033 10.0608 42.27C10.2208 42.3433 10.3974 42.38 10.5908 42.38C10.8241 42.38 11.0241 42.3133 11.1908 42.18C11.3641 42.0533 11.5274 41.8267 11.6808 41.5L12.0208 40.73L12.1008 40.62L14.2608 35.75H14.9608L12.3308 41.63C12.1841 41.97 12.0208 42.24 11.8408 42.44C11.6674 42.64 11.4774 42.78 11.2708 42.86C11.0641 42.9467 10.8341 42.99 10.5808 42.99ZM11.9808 41.15L9.56078 35.75H10.3008L12.4408 40.57L11.9808 41.15ZM21.7679 41.06C21.2412 41.06 20.7546 40.9733 20.3079 40.8C19.8612 40.62 19.4746 40.37 19.1479 40.05C18.8212 39.73 18.5646 39.3533 18.3779 38.92C18.1979 38.4867 18.1079 38.0133 18.1079 37.5C18.1079 36.9867 18.1979 36.5133 18.3779 36.08C18.5646 35.6467 18.8212 35.27 19.1479 34.95C19.4812 34.63 19.8712 34.3833 20.3179 34.21C20.7646 34.03 21.2512 33.94 21.7779 33.94C22.2846 33.94 22.7612 34.0267 23.2079 34.2C23.6546 34.3667 24.0312 34.62 24.3379 34.96L23.8679 35.43C23.5812 35.1367 23.2646 34.9267 22.9179 34.8C22.5712 34.6667 22.1979 34.6 21.7979 34.6C21.3779 34.6 20.9879 34.6733 20.6279 34.82C20.2679 34.96 19.9546 35.1633 19.6879 35.43C19.4212 35.69 19.2112 35.9967 19.0579 36.35C18.9112 36.6967 18.8379 37.08 18.8379 37.5C18.8379 37.92 18.9112 38.3067 19.0579 38.66C19.2112 39.0067 19.4212 39.3133 19.6879 39.58C19.9546 39.84 20.2679 40.0433 20.6279 40.19C20.9879 40.33 21.3779 40.4 21.7979 40.4C22.1979 40.4 22.5712 40.3333 22.9179 40.2C23.2646 40.0667 23.5812 39.8533 23.8679 39.56L24.3379 40.03C24.0312 40.37 23.6546 40.6267 23.2079 40.8C22.7612 40.9733 22.2812 41.06 21.7679 41.06ZM27.671 41.05C27.1643 41.05 26.7077 40.9367 26.301 40.71C25.901 40.4767 25.5843 40.16 25.351 39.76C25.1177 39.3533 25.001 38.89 25.001 38.37C25.001 37.8433 25.1177 37.38 25.351 36.98C25.5843 36.58 25.901 36.2667 26.301 36.04C26.701 35.8133 27.1577 35.7 27.671 35.7C28.191 35.7 28.651 35.8133 29.051 36.04C29.4577 36.2667 29.7743 36.58 30.001 36.98C30.2343 37.38 30.351 37.8433 30.351 38.37C30.351 38.89 30.2343 39.3533 30.001 39.76C29.7743 40.16 29.4577 40.4767 29.051 40.71C28.6443 40.9367 28.1843 41.05 27.671 41.05ZM27.671 40.42C28.051 40.42 28.3877 40.3367 28.681 40.17C28.9743 39.9967 29.2043 39.7567 29.371 39.45C29.5443 39.1367 29.631 38.7767 29.631 38.37C29.631 37.9567 29.5443 37.5967 29.371 37.29C29.2043 36.9833 28.9743 36.7467 28.681 36.58C28.3877 36.4067 28.0543 36.32 27.681 36.32C27.3077 36.32 26.9743 36.4067 26.681 36.58C26.3877 36.7467 26.1543 36.9833 25.981 37.29C25.8077 37.5967 25.721 37.9567 25.721 38.37C25.721 38.7767 25.8077 39.1367 25.981 39.45C26.1543 39.7567 26.3877 39.9967 26.681 40.17C26.9743 40.3367 27.3043 40.42 27.671 40.42ZM33.9705 41.05C33.5239 41.05 33.1339 40.9667 32.8005 40.8C32.4672 40.6333 32.2072 40.3833 32.0205 40.05C31.8405 39.7167 31.7505 39.3 31.7505 38.8V35.75H32.4605V38.72C32.4605 39.28 32.5972 39.7033 32.8705 39.99C33.1505 40.27 33.5405 40.41 34.0405 40.41C34.4072 40.41 34.7239 40.3367 34.9905 40.19C35.2639 40.0367 35.4705 39.8167 35.6105 39.53C35.7572 39.2433 35.8305 38.9 35.8305 38.5V35.75H36.5405V41H35.8605V39.56L35.9705 39.82C35.8039 40.2067 35.5439 40.51 35.1905 40.73C34.8439 40.9433 34.4372 41.05 33.9705 41.05ZM38.5193 41V35.75H39.1993V37.18L39.1293 36.93C39.276 36.53 39.5226 36.2267 39.8693 36.02C40.216 35.8067 40.646 35.7 41.1593 35.7V36.39C41.1326 36.39 41.106 36.39 41.0793 36.39C41.0526 36.3833 41.026 36.38 40.9993 36.38C40.446 36.38 40.0126 36.55 39.6993 36.89C39.386 37.2233 39.2293 37.7 39.2293 38.32V41H38.5193ZM43.9234 41.05C43.4901 41.05 43.0801 40.99 42.6934 40.87C42.3068 40.7433 42.0034 40.5867 41.7834 40.4L42.1034 39.84C42.3168 40 42.5901 40.14 42.9234 40.26C43.2568 40.3733 43.6068 40.43 43.9734 40.43C44.4734 40.43 44.8334 40.3533 45.0534 40.2C45.2734 40.04 45.3834 39.83 45.3834 39.57C45.3834 39.3767 45.3201 39.2267 45.1934 39.12C45.0734 39.0067 44.9134 38.9233 44.7134 38.87C44.5134 38.81 44.2901 38.76 44.0434 38.72C43.7968 38.68 43.5501 38.6333 43.3034 38.58C43.0634 38.5267 42.8434 38.45 42.6434 38.35C42.4434 38.2433 42.2801 38.1 42.1534 37.92C42.0334 37.74 41.9734 37.5 41.9734 37.2C41.9734 36.9133 42.0534 36.6567 42.2134 36.43C42.3734 36.2033 42.6068 36.0267 42.9134 35.9C43.2268 35.7667 43.6068 35.7 44.0534 35.7C44.3934 35.7 44.7334 35.7467 45.0734 35.84C45.4134 35.9267 45.6934 36.0433 45.9134 36.19L45.6034 36.76C45.3701 36.6 45.1201 36.4867 44.8534 36.42C44.5868 36.3467 44.3201 36.31 44.0534 36.31C43.5801 36.31 43.2301 36.3933 43.0034 36.56C42.7834 36.72 42.6734 36.9267 42.6734 37.18C42.6734 37.38 42.7334 37.5367 42.8534 37.65C42.9801 37.7633 43.1434 37.8533 43.3434 37.92C43.5501 37.98 43.7734 38.03 44.0134 38.07C44.2601 38.11 44.5034 38.16 44.7434 38.22C44.9901 38.2733 45.2134 38.35 45.4134 38.45C45.6201 38.5433 45.7834 38.68 45.9034 38.86C46.0301 39.0333 46.0934 39.2633 46.0934 39.55C46.0934 39.8567 46.0068 40.1233 45.8334 40.35C45.6668 40.57 45.4201 40.7433 45.0934 40.87C44.7734 40.99 44.3834 41.05 43.9234 41.05ZM49.6263 41.05C49.0796 41.05 48.5996 40.9367 48.1863 40.71C47.7729 40.4767 47.4496 40.16 47.2163 39.76C46.9829 39.3533 46.8663 38.89 46.8663 38.37C46.8663 37.85 46.9763 37.39 47.1963 36.99C47.4229 36.59 47.7296 36.2767 48.1163 36.05C48.5096 35.8167 48.9496 35.7 49.4363 35.7C49.9296 35.7 50.3663 35.8133 50.7463 36.04C51.1329 36.26 51.4363 36.5733 51.6563 36.98C51.8763 37.38 51.9863 37.8433 51.9863 38.37C51.9863 38.4033 51.9829 38.44 51.9763 38.48C51.9763 38.5133 51.9763 38.55 51.9763 38.59H47.4063V38.06H51.5963L51.3163 38.27C51.3163 37.89 51.2329 37.5533 51.0663 37.26C50.9063 36.96 50.6863 36.7267 50.4063 36.56C50.1263 36.3933 49.8029 36.31 49.4363 36.31C49.0763 36.31 48.7529 36.3933 48.4663 36.56C48.1796 36.7267 47.9563 36.96 47.7963 37.26C47.6363 37.56 47.5563 37.9033 47.5563 38.29V38.4C47.5563 38.8 47.6429 39.1533 47.8163 39.46C47.9963 39.76 48.2429 39.9967 48.5563 40.17C48.8763 40.3367 49.2396 40.42 49.6463 40.42C49.9663 40.42 50.2629 40.3633 50.5363 40.25C50.8163 40.1367 51.0563 39.9633 51.2563 39.73L51.6563 40.19C51.4229 40.47 51.1296 40.6833 50.7763 40.83C50.4296 40.9767 50.0463 41.05 49.6263 41.05ZM54.8414 41.05C54.4081 41.05 53.9981 40.99 53.6114 40.87C53.2247 40.7433 52.9214 40.5867 52.7014 40.4L53.0214 39.84C53.2347 40 53.5081 40.14 53.8414 40.26C54.1747 40.3733 54.5247 40.43 54.8914 40.43C55.3914 40.43 55.7514 40.3533 55.9714 40.2C56.1914 40.04 56.3014 39.83 56.3014 39.57C56.3014 39.3767 56.2381 39.2267 56.1114 39.12C55.9914 39.0067 55.8314 38.9233 55.6314 38.87C55.4314 38.81 55.2081 38.76 54.9614 38.72C54.7147 38.68 54.4681 38.6333 54.2214 38.58C53.9814 38.5267 53.7614 38.45 53.5614 38.35C53.3614 38.2433 53.1981 38.1 53.0714 37.92C52.9514 37.74 52.8914 37.5 52.8914 37.2C52.8914 36.9133 52.9714 36.6567 53.1314 36.43C53.2914 36.2033 53.5247 36.0267 53.8314 35.9C54.1447 35.7667 54.5247 35.7 54.9714 35.7C55.3114 35.7 55.6514 35.7467 55.9914 35.84C56.3314 35.9267 56.6114 36.0433 56.8314 36.19L56.5214 36.76C56.2881 36.6 56.0381 36.4867 55.7714 36.42C55.5047 36.3467 55.2381 36.31 54.9714 36.31C54.4981 36.31 54.1481 36.3933 53.9214 36.56C53.7014 36.72 53.5914 36.9267 53.5914 37.18C53.5914 37.38 53.6514 37.5367 53.7714 37.65C53.8981 37.7633 54.0614 37.8533 54.2614 37.92C54.4681 37.98 54.6914 38.03 54.9314 38.07C55.1781 38.11 55.4214 38.16 55.6614 38.22C55.9081 38.2733 56.1314 38.35 56.3314 38.45C56.5381 38.5433 56.7014 38.68 56.8214 38.86C56.9481 39.0333 57.0114 39.2633 57.0114 39.55C57.0114 39.8567 56.9247 40.1233 56.7514 40.35C56.5847 40.57 56.3381 40.7433 56.0114 40.87C55.6914 40.99 55.3014 41.05 54.8414 41.05Z" fill="#2D2B2D"/>
<path d="M28.5 26C35.4037 26 41 20.4037 41 13.5C41 6.59625 35.4037 1 28.5 1C21.5963 1 16 6.59625 16 13.5C16 20.4037 21.5963 26 28.5 26Z" stroke="#2D2B2D" stroke-width="2" stroke-linejoin="round"/>
<path d="M26 13.4999V9.16992L29.75 11.3349L33.5 13.4999L29.75 15.6649L26 17.8299V13.4999Z" stroke="#2D2B2D" stroke-width="2" stroke-linejoin="round"/>
</svg>
