<svg width="22" height="24" viewBox="0 0 22 24" fill="none" xmlns="http://www.w3.org/2000/svg">
<g clip-path="url(#clip0_7_1840)">
<path d="M20.8888 16.3862H0.626373L3.59563 11.6354V6.66641C3.59563 4.1277 5.66104 2.06228 8.19975 2.06228H13.3154C15.8542 2.06228 17.9196 4.1277 17.9196 6.66641V11.6354L20.8888 16.3862ZM2.47232 15.3631H19.0428L16.8964 11.9288V6.66641C16.8964 4.69185 15.29 3.08542 13.3154 3.08542H8.19975C6.22519 3.08542 4.61876 4.69185 4.61876 6.66641V11.9288L2.47232 15.3631Z" fill="#6366F1"/>
<path d="M19.9659 15.8747H1.54935C0.984274 15.8747 0.526215 16.3327 0.526215 16.8978V17.9209C0.526215 18.486 0.984274 18.9441 1.54935 18.9441H19.9659C20.5309 18.9441 20.989 18.486 20.989 17.9209V16.8978C20.989 16.3327 20.5309 15.8747 19.9659 15.8747Z" fill="#0F4B8A"/>
<path d="M19.9658 19.4556H1.54933C0.703088 19.4556 0.0146179 18.7672 0.0146179 17.9209V16.8978C0.0146179 16.0516 0.703088 15.3631 1.54933 15.3631H19.9658C20.8121 15.3631 21.5005 16.0516 21.5005 16.8978V17.9209C21.5005 18.7672 20.8121 19.4556 19.9658 19.4556ZM1.54933 16.3862C1.26725 16.3862 1.03776 16.6157 1.03776 16.8978V17.9209C1.03776 18.203 1.26725 18.4325 1.54933 18.4325H19.9658C20.2479 18.4325 20.4774 18.203 20.4774 17.9209V16.8978C20.4774 16.6157 20.2479 16.3862 19.9658 16.3862H1.54933Z" fill="#6366F1"/>
<path d="M10.7576 23.5482C9.34719 23.5482 8.19974 22.4008 8.19974 20.9904V20.4788H13.3154V20.9904C13.3154 22.4008 12.168 23.5482 10.7576 23.5482ZM9.31046 21.5019C9.52153 22.0974 10.0906 22.5251 10.7576 22.5251C11.4246 22.5251 11.9935 22.0974 12.2047 21.5019H9.31046Z" fill="#6366F1"/>
<path d="M17.408 11.2705H4.10718V12.2937H17.408V11.2705Z" fill="#6366F1"/>
<path d="M13.3154 3.08543H8.19974V1.55072C8.19974 0.704479 8.88821 0.0160084 9.73445 0.0160084H11.7807C12.627 0.0160084 13.3154 0.704479 13.3154 1.55072V3.08543ZM9.22288 2.06229H12.2923V1.55072C12.2923 1.26864 12.0628 1.03915 11.7807 1.03915H9.73445C9.45237 1.03915 9.22288 1.26864 9.22288 1.55072V2.06229Z" fill="#6366F1"/>
</g>
<defs>
<clipPath id="clip0_7_1840">
<rect width="21.5152" height="23.5642" fill="white"/>
</clipPath>
</defs>
</svg>
