<svg width="22" height="22" viewBox="0 0 22 22" fill="none" xmlns="http://www.w3.org/2000/svg">
<path d="M10.7576 21.5152C16.6988 21.5152 21.5152 16.6988 21.5152 10.7576C21.5152 4.81633 16.6988 0 10.7576 0C4.81633 0 0 4.81633 0 10.7576C0 16.6988 4.81633 21.5152 10.7576 21.5152Z" fill="#6366F1"/>
<path d="M10.7576 19.7222C15.7086 19.7222 19.7222 15.7086 19.7222 10.7576C19.7222 5.80654 15.7086 1.79293 10.7576 1.79293C5.80652 1.79293 1.79291 5.80654 1.79291 10.7576C1.79291 15.7086 5.80652 19.7222 10.7576 19.7222Z" fill="#E5E7EB"/>
<path d="M10.7576 10.9499C12.9855 10.9499 14.7917 9.14374 14.7917 6.91577C14.7917 4.68781 12.9855 2.88168 10.7576 2.88168C8.5296 2.88168 6.72348 4.68781 6.72348 6.91577C6.72348 9.14374 8.5296 10.9499 10.7576 10.9499Z" fill="#6366F1"/>
<path d="M13.0628 12.2946H8.45229C5.92605 12.2946 3.87673 14.3273 3.84491 16.8459C5.53475 18.763 8.00137 19.9786 10.7575 19.9786C13.5137 19.9786 15.9804 18.763 17.6702 16.8459C17.6384 14.3268 15.589 12.2946 13.0628 12.2946Z" fill="#6366F1"/>
</svg>
