<svg width="82" height="82" viewBox="0 0 82 82" fill="none" xmlns="http://www.w3.org/2000/svg">
<path d="M0 5C0 2.23858 2.23858 0 5 0H77C79.7614 0 82 2.23858 82 5V77C82 79.7614 79.7614 82 77 82H5C2.23858 82 0 79.7614 0 77V5Z" fill="white"/>
<path opacity="0.63" d="M50.2102 12.9759C44.9186 9.48861 37.4824 10.1934 32.8044 15.3695C30.2466 18.2006 29.2078 22.0949 26.5528 24.8653C23.5638 27.988 19.9915 31.0196 18.6367 35.2723C17.1968 39.7924 18.4605 44.9746 21.6804 48.4315C25.599 52.6356 31.3584 51.372 36.8019 51.3051C59.0923 51.0257 75.6598 36.1472 54.5784 17.8057C52.8165 16.2626 51.9599 14.1241 50.2102 12.9759Z" fill="#E5E7EB"/>
<path d="M60.1981 15.3877H22.5917C21.8384 15.3877 21.2248 15.9952 21.2248 16.7486V42.6477H61.565V16.7486C61.565 15.9952 60.9514 15.3877 60.1981 15.3877Z" fill="#0F4B8A"/>
<path d="M60.1495 15.9586H22.6404C22.1726 15.9586 21.7959 16.3353 21.7959 16.8031V42.2648H60.9939V16.8031C60.9939 16.3353 60.6173 15.9586 60.1495 15.9586Z" fill="#0F4B8A"/>
<path d="M23.2054 17.842H59.5845V41.3596H23.2054V17.842Z" fill="#0F4B8A"/>
<path d="M41.6015 17.0159C41.6015 17.1313 41.5103 17.2224 41.3949 17.2224C41.2795 17.2224 41.1883 17.1313 41.1883 17.0159C41.1883 16.9004 41.2795 16.8093 41.3949 16.8093C41.5103 16.8154 41.6015 16.9065 41.6015 17.0159Z" fill="#F6F6F6"/>
<path d="M27.7679 19.1422H31.4131V19.7862H27.7679V19.1422Z" fill="#F59E0D"/>
<path d="M24.4751 19.1422H25.9757V19.7862H24.4751V19.1422ZM24.4751 20.3209H25.9757V20.9648H24.4751V20.3209ZM24.4751 21.7182H25.9757V22.3622H24.4751V21.7182ZM24.4751 23.1094H25.9757V23.7534H24.4751V23.1094ZM24.4751 24.5068H25.9757V25.1507H24.4751V24.5068ZM24.4751 25.898H25.9757V26.542H24.4751V25.898ZM32.1665 19.1422H44.3961V19.7862H32.1665V19.1422Z" fill="#E5E7EB"/>
<path d="M29.0559 20.3207H32.7011V20.9647H29.0559V20.3207Z" fill="#F59E0D"/>
<path d="M33.4544 20.3207H45.684V20.9647H33.4544V20.3207Z" fill="#E5E7EB"/>
<path d="M31.2066 21.7183H34.8518V22.3622H31.2066V21.7183Z" fill="#F59E0D"/>
<path d="M35.6051 21.7183H47.8347V22.3622H35.6051V21.7183Z" fill="#E5E7EB"/>
<path d="M33.3512 23.1095H36.9964V23.7535H33.3512V23.1095Z" fill="#F59E0D"/>
<path d="M37.7497 23.1095H49.9793V23.7535H37.7497V23.1095Z" fill="#E5E7EB"/>
<path d="M31.2066 24.5067H34.8518V25.1507H31.2066V24.5067Z" fill="#F59E0D"/>
<path d="M35.6051 24.5067H54.2746V25.1507H35.6051V24.5067Z" fill="#E5E7EB"/>
<path d="M29.0559 25.8979H32.7011V26.5419H29.0559V25.8979Z" fill="#F59E0D"/>
<path d="M33.4544 25.8979H41.3949V26.5419H33.4544V25.8979Z" fill="#E5E7EB"/>
<path opacity="0.4" d="M27.7679 27.7266H31.4131V28.3705H27.7679V27.7266Z" fill="#F59E0D"/>
<path opacity="0.4" d="M24.4751 27.7266H25.9757V28.3705H24.4751V27.7266ZM24.4751 28.9052H25.9757V29.5492H24.4751V28.9052ZM24.4751 30.3025H25.9757V30.9465H24.4751V30.3025ZM24.4751 31.6938H25.9757V32.3377H24.4751V31.6938ZM24.4751 33.0911H25.9757V33.7351H24.4751V33.0911ZM24.4751 34.4823H25.9757V35.1263H24.4751V34.4823ZM32.1665 27.7266H44.3961V28.3705H32.1665V27.7266Z" fill="#E5E7EB"/>
<path opacity="0.4" d="M29.0559 28.9051H32.7011V29.549H29.0559V28.9051Z" fill="#F59E0D"/>
<path opacity="0.4" d="M33.4544 28.9051H45.684V29.549H33.4544V28.9051Z" fill="#E5E7EB"/>
<path opacity="0.4" d="M31.2066 30.3026H34.8518V30.9466H31.2066V30.3026Z" fill="#F59E0D"/>
<path opacity="0.4" d="M35.6051 30.3026H47.8347V30.9466H35.6051V30.3026Z" fill="#E5E7EB"/>
<path opacity="0.4" d="M27.7679 36.305H31.4131V36.9489H27.7679V36.305Z" fill="#F59E0D"/>
<path opacity="0.4" d="M24.4751 36.305H25.9757V36.9489H24.4751V36.305ZM24.4751 37.4897H25.9757V38.1336H24.4751V37.4897ZM24.4751 38.8809H25.9757V39.5249H24.4751V38.8809ZM32.1665 36.305H44.3961V36.9489H32.1665V36.305Z" fill="#E5E7EB"/>
<path opacity="0.4" d="M29.0559 37.4897H32.7011V38.1337H29.0559V37.4897Z" fill="#F59E0D"/>
<path opacity="0.4" d="M33.4544 37.4897H45.684V38.1337H33.4544V37.4897Z" fill="#E5E7EB"/>
<path opacity="0.4" d="M31.2066 38.881H34.8518V39.525H31.2066V38.881Z" fill="#F59E0D"/>
<path opacity="0.4" d="M35.6051 38.881H47.8347V39.525H35.6051V38.881Z" fill="#E5E7EB"/>
<path opacity="0.4" d="M33.3512 31.6938H36.9964V32.3378H33.3512V31.6938Z" fill="#F59E0D"/>
<path opacity="0.4" d="M37.7497 31.6938H56.4192V32.3378H37.7497V31.6938Z" fill="#E5E7EB"/>
<path opacity="0.4" d="M31.2066 33.091H34.8518V33.735H31.2066V33.091Z" fill="#F59E0D"/>
<path opacity="0.4" d="M35.6051 33.091H47.8347V33.735H35.6051V33.091Z" fill="#E5E7EB"/>
<path opacity="0.4" d="M29.0559 34.4823H32.7011V35.1263H29.0559V34.4823Z" fill="#F59E0D"/>
<path opacity="0.4" d="M33.4544 34.4823H45.684V35.1263H33.4544V34.4823Z" fill="#E5E7EB"/>
<path d="M64.2442 42.186H18.5456C18.2843 42.186 18.0656 42.3986 18.0656 42.6659V43.2856C18.0656 43.5468 18.2782 43.7656 18.5456 43.7656H64.2503C64.5115 43.7656 64.7302 43.5529 64.7302 43.2856V42.6659C64.7242 42.3986 64.5115 42.186 64.2442 42.186Z" fill="#D3D3D3"/>
<path d="M45.3135 42.8723H37.4764C37.3731 42.8723 37.288 42.9574 37.288 43.0607C37.288 43.164 37.3731 43.249 37.4764 43.249H45.3196C45.4229 43.249 45.5079 43.164 45.5079 43.0607C45.5019 42.9574 45.4168 42.8723 45.3135 42.8723Z" fill="#F7F7F7"/>
<path d="M51.7594 49.0084L51.7534 49.9865C51.7534 49.9865 51.8749 50.6123 51.9782 51.2806C52.0754 51.9488 52.1543 52.6597 52.0511 52.8237C51.8506 53.1518 51.4557 52.8237 51.3889 52.4956C51.322 52.1676 51.2248 50.1202 51.2248 50.1202L51.158 48.8018L51.7594 49.0084ZM52.7558 48.8747L52.6039 49.7556C52.6039 49.7556 52.3062 52.1615 52.4703 52.526C52.6343 52.8905 53.1628 52.7265 53.1325 52.2283C53.1021 51.7362 53.2297 49.9865 53.2297 49.9865L53.5274 48.9294L52.7558 48.8747Z" fill="#0F4B8A"/>
<path d="M52.3487 38.1519L52.2758 39.2333L55.0705 40.582C55.5747 40.8554 55.8178 41.4447 55.6537 41.9915L53.7218 49.1786L52.7619 48.8749L53.6063 42.2649C53.6671 41.8579 53.3876 41.4812 52.9806 41.4144L51.9842 41.2564L50.9271 40.175L52.1543 41.2746C52.452 41.5419 52.5978 41.9368 52.5432 42.3317L51.7594 49.0085L50.8907 49.2272L50.5018 42.6598C50.4715 42.2406 50.192 41.8882 49.7971 41.7606L48.0778 41.2139C47.8044 41.0498 47.6343 40.7521 47.6221 40.4301L47.695 38.1154L52.3487 38.1519Z" fill="#0F4B8A"/>
<path d="M47.5128 40.5759L47.9745 31.5965C47.9745 31.5965 49.8822 31.4811 50.4533 31.4811C50.7631 31.4811 51.2917 31.6269 51.7109 31.7606C52.1058 31.8882 52.4277 31.876 52.6222 32.2405L55.751 38.243L53.8251 38.4252L53.1811 37.6962L53.5092 37.2041L52.3366 34.4459L52.5675 39.458L47.5128 40.5759Z" fill="#F59E0D"/>
<path opacity="0.08" d="M52.3791 33.3523L54.4569 37.1007L53.8129 37.8602C53.8129 37.8602 53.5517 37.9148 53.3026 37.8298L53.1872 37.6961L53.5152 37.204L52.3427 34.4458L52.3791 33.3523Z" fill="#1A1A1A"/>
<path d="M50.5322 34.197C49.9004 34.197 48.7461 32.5505 48.7461 31.9187C48.7461 31.7911 48.7704 31.6696 48.8068 31.5542C49.3961 31.5238 50.1312 31.4874 50.4532 31.4874C50.593 31.4874 50.7752 31.5177 50.9757 31.5603C51.0122 31.6757 51.0365 31.7911 51.0365 31.9187C51.0304 32.5505 51.164 34.197 50.5322 34.197Z" fill="white"/>
<path opacity="0.08" d="M47.7437 33.1517L47.5128 40.6304L50.5991 39.8892L47.7437 33.1517Z" fill="#1A1A1A"/>
<path d="M50.6415 30.5638C50.5868 30.6731 50.2102 32.1434 50.2102 32.1434C50.2102 32.1434 50.0765 32.3864 49.7545 32.356C49.4325 32.3317 49.2989 31.876 49.2989 31.876L49.8639 30.0291L50.6415 30.5638Z" fill="#FCD2B1"/>
<path d="M48.661 29.6587C48.661 30.6732 49.7363 31.7972 50.7509 31.7972C51.7655 31.7972 52.3305 30.6732 52.3305 29.6587C52.3305 28.6441 51.5103 27.8239 50.4957 27.8239C49.4811 27.8178 48.661 28.6441 48.661 29.6587Z" fill="#FEF2F2"/>
<path d="M50.8699 31.8444C51.9958 31.6609 52.7598 30.5993 52.5762 29.4734C52.3927 28.3474 51.3311 27.5835 50.2052 27.767C49.0792 27.9506 48.3153 29.0122 48.4988 30.1381C48.6824 31.264 49.744 32.028 50.8699 31.8444Z" fill="#FFE3CA"/>
<path d="M50.1495 39.7131C50.2285 39.6888 50.9089 39.3546 51.3888 39.3546C51.8688 39.3546 52.4581 39.865 52.4581 39.865C52.4581 39.865 52.5371 40.1323 52.2151 40.0776C51.8931 40.0229 52.2576 40.2781 52.2576 40.2781C52.2576 40.2781 52.2394 40.2902 51.8627 40.3449C51.4861 40.3996 50.028 40.3206 50.028 40.3206L50.1495 39.7131Z" fill="#FFE3CA"/>
<path d="M47.9745 31.6028L47.7133 37.508L50.1434 39.7073L50.028 40.327L46.6076 38.4983C46.2795 38.3221 46.0912 37.9576 46.1398 37.587L46.7655 33.067C46.8141 32.502 47.1604 32.0038 47.6647 31.7547L47.9745 31.6028ZM49.9004 40.8312H56.0851V40.3756H49.9004C49.7728 40.3756 49.6756 40.4789 49.6756 40.6004C49.6695 40.728 49.7728 40.8312 49.9004 40.8312Z" fill="#F59E0D"/>
<path d="M51.5954 40.8313H57.5613C57.8226 40.8313 58.0534 40.6551 58.1263 40.3999L59.1774 36.4327C59.2746 36.0621 58.9951 35.7037 58.6124 35.7037H53.4058C53.1446 35.7037 52.9137 35.8799 52.8408 36.135L51.5954 40.8313Z" fill="#F59E0D"/>
<path opacity="0.22" d="M51.5954 40.8313H57.5613C57.8226 40.8313 58.0534 40.6551 58.1263 40.3999L59.1774 36.4327C59.2746 36.0621 58.9951 35.7037 58.6124 35.7037H53.4058C53.1446 35.7037 52.9137 35.8799 52.8408 36.135L51.5954 40.8313Z" fill="white"/>
<path d="M55.1069 38.6196C55.0401 38.8809 55.2041 39.0874 55.4714 39.0874C55.7387 39.0874 56.006 38.8748 56.0729 38.6196C56.1397 38.3584 55.9757 38.1518 55.7083 38.1518C55.441 38.1458 55.1737 38.3584 55.1069 38.6196Z" fill="white"/>
<path d="M50.5383 27.7388C51.6015 27.7388 52.4702 28.5407 52.5918 29.5674C52.2333 29.8348 51.7655 29.9502 51.322 29.8773C50.7995 29.7862 50.3317 29.4277 50.113 28.9478C50.1312 29.1786 50.1434 29.4095 50.1069 29.6343C50.0705 29.8591 49.9733 30.0838 49.791 30.2297C49.7789 30.0717 49.7607 29.9016 49.6817 29.7619C49.5966 29.6221 49.4204 29.5249 49.2746 29.5857C49.1653 29.6282 49.0984 29.7376 49.0802 29.853C49.062 29.9684 49.0924 30.0838 49.1349 30.1932C49.2017 30.3633 49.2989 30.5213 49.4204 30.6489C49.1774 30.6853 48.9162 30.7157 48.6732 30.6914C48.5456 30.418 48.4666 30.1203 48.4666 29.7983C48.4666 28.6622 49.3961 27.7388 50.5383 27.7388Z" fill="#6366F1"/>
<path d="M48.7582 30.1446C48.7582 30.4909 49.0376 30.7704 49.3839 30.7704C49.7302 30.7704 50.0097 30.4909 50.0097 30.1446C50.0097 29.7984 49.7302 29.5189 49.3839 29.5189C49.0437 29.5189 48.7582 29.7984 48.7582 30.1446ZM52.7557 48.8749L52.6464 49.5371L53.3025 49.7437L53.4848 49.0936L52.7557 48.8749ZM51.7533 49.7437L51.2065 49.847L51.1762 49.1544L51.7594 49.0086L51.7533 49.7437Z" fill="#FFE3CA"/>
<path d="M49.384 28.6925C49.894 28.6925 50.3074 28.279 50.3074 27.769C50.3074 27.259 49.894 26.8456 49.384 26.8456C48.8739 26.8456 48.4605 27.259 48.4605 27.769C48.4605 28.279 48.8739 28.6925 49.384 28.6925Z" fill="#6366F1"/>
<path d="M7.05 71V64H9.78C10.3933 64 10.9167 64.0967 11.35 64.29C11.7833 64.4833 12.1167 64.7633 12.35 65.13C12.5833 65.4967 12.7 65.9333 12.7 66.44C12.7 66.9467 12.5833 67.3833 12.35 67.75C12.1167 68.11 11.7833 68.39 11.35 68.59C10.9167 68.7833 10.3933 68.88 9.78 68.88H7.6L8.05 68.41V71H7.05ZM8.05 68.51L7.6 68.01H9.75C10.39 68.01 10.8733 67.8733 11.2 67.6C11.5333 67.3267 11.7 66.94 11.7 66.44C11.7 65.94 11.5333 65.5533 11.2 65.28C10.8733 65.0067 10.39 64.87 9.75 64.87H7.6L8.05 64.37V68.51ZM13.9315 71V65.7H14.8515V67.14L14.7615 66.78C14.9082 66.4133 15.1548 66.1333 15.5015 65.94C15.8482 65.7467 16.2748 65.65 16.7815 65.65V66.58C16.7415 66.5733 16.7015 66.57 16.6615 66.57C16.6282 66.57 16.5948 66.57 16.5615 66.57C16.0482 66.57 15.6415 66.7233 15.3415 67.03C15.0415 67.3367 14.8915 67.78 14.8915 68.36V71H13.9315ZM20.1859 71.06C19.6525 71.06 19.1792 70.9433 18.7659 70.71C18.3525 70.4767 18.0259 70.1567 17.7859 69.75C17.5459 69.3367 17.4259 68.87 17.4259 68.35C17.4259 67.8233 17.5459 67.3567 17.7859 66.95C18.0259 66.5433 18.3525 66.2267 18.7659 66C19.1792 65.7667 19.6525 65.65 20.1859 65.65C20.7125 65.65 21.1825 65.7667 21.5959 66C22.0159 66.2267 22.3425 66.5433 22.5759 66.95C22.8159 67.35 22.9359 67.8167 22.9359 68.35C22.9359 68.8767 22.8159 69.3433 22.5759 69.75C22.3425 70.1567 22.0159 70.4767 21.5959 70.71C21.1825 70.9433 20.7125 71.06 20.1859 71.06ZM20.1859 70.22C20.5259 70.22 20.8292 70.1433 21.0959 69.99C21.3692 69.8367 21.5825 69.62 21.7359 69.34C21.8892 69.0533 21.9659 68.7233 21.9659 68.35C21.9659 67.97 21.8892 67.6433 21.7359 67.37C21.5825 67.09 21.3692 66.8733 21.0959 66.72C20.8292 66.5667 20.5259 66.49 20.1859 66.49C19.8459 66.49 19.5425 66.5667 19.2759 66.72C19.0092 66.8733 18.7959 67.09 18.6359 67.37C18.4759 67.6433 18.3959 67.97 18.3959 68.35C18.3959 68.7233 18.4759 69.0533 18.6359 69.34C18.7959 69.62 19.0092 69.8367 19.2759 69.99C19.5425 70.1433 19.8459 70.22 20.1859 70.22ZM26.5835 73C26.0968 73 25.6235 72.93 25.1635 72.79C24.7102 72.6567 24.3402 72.4633 24.0535 72.21L24.5135 71.47C24.7602 71.6833 25.0635 71.85 25.4235 71.97C25.7835 72.0967 26.1602 72.16 26.5535 72.16C27.1802 72.16 27.6402 72.0133 27.9335 71.72C28.2268 71.4267 28.3735 70.98 28.3735 70.38V69.26L28.4735 68.21L28.4235 67.15V65.7H29.3335V70.28C29.3335 71.2133 29.1002 71.9 28.6335 72.34C28.1668 72.78 27.4835 73 26.5835 73ZM26.4635 70.78C25.9502 70.78 25.4902 70.6733 25.0835 70.46C24.6835 70.24 24.3635 69.9367 24.1235 69.55C23.8902 69.1633 23.7735 68.7167 23.7735 68.21C23.7735 67.6967 23.8902 67.25 24.1235 66.87C24.3635 66.4833 24.6835 66.1833 25.0835 65.97C25.4902 65.7567 25.9502 65.65 26.4635 65.65C26.9168 65.65 27.3302 65.7433 27.7035 65.93C28.0768 66.11 28.3735 66.39 28.5935 66.77C28.8202 67.15 28.9335 67.63 28.9335 68.21C28.9335 68.7833 28.8202 69.26 28.5935 69.64C28.3735 70.02 28.0768 70.3067 27.7035 70.5C27.3302 70.6867 26.9168 70.78 26.4635 70.78ZM26.5735 69.94C26.9268 69.94 27.2402 69.8667 27.5135 69.72C27.7868 69.5733 28.0002 69.37 28.1535 69.11C28.3135 68.85 28.3935 68.55 28.3935 68.21C28.3935 67.87 28.3135 67.57 28.1535 67.31C28.0002 67.05 27.7868 66.85 27.5135 66.71C27.2402 66.5633 26.9268 66.49 26.5735 66.49C26.2202 66.49 25.9035 66.5633 25.6235 66.71C25.3502 66.85 25.1335 67.05 24.9735 67.31C24.8202 67.57 24.7435 67.87 24.7435 68.21C24.7435 68.55 24.8202 68.85 24.9735 69.11C25.1335 69.37 25.3502 69.5733 25.6235 69.72C25.9035 69.8667 26.2202 69.94 26.5735 69.94ZM31.1678 71V65.7H32.0878V67.14L31.9978 66.78C32.1445 66.4133 32.3911 66.1333 32.7378 65.94C33.0845 65.7467 33.5111 65.65 34.0178 65.65V66.58C33.9778 66.5733 33.9378 66.57 33.8978 66.57C33.8645 66.57 33.8311 66.57 33.7978 66.57C33.2845 66.57 32.8778 66.7233 32.5778 67.03C32.2778 67.3367 32.1278 67.78 32.1278 68.36V71H31.1678ZM38.1004 71V69.88L38.0504 69.67V67.76C38.0504 67.3533 37.9304 67.04 37.6904 66.82C37.4571 66.5933 37.1037 66.48 36.6304 66.48C36.3171 66.48 36.0104 66.5333 35.7104 66.64C35.4104 66.74 35.1571 66.8767 34.9504 67.05L34.5504 66.33C34.8237 66.11 35.1504 65.9433 35.5304 65.83C35.9171 65.71 36.3204 65.65 36.7404 65.65C37.4671 65.65 38.0271 65.8267 38.4204 66.18C38.8137 66.5333 39.0104 67.0733 39.0104 67.8V71H38.1004ZM36.3604 71.06C35.9671 71.06 35.6204 70.9933 35.3204 70.86C35.0271 70.7267 34.8004 70.5433 34.6404 70.31C34.4804 70.07 34.4004 69.8 34.4004 69.5C34.4004 69.2133 34.4671 68.9533 34.6004 68.72C34.7404 68.4867 34.9637 68.3 35.2704 68.16C35.5837 68.02 36.0037 67.95 36.5304 67.95H38.2104V68.64H36.5704C36.0904 68.64 35.7671 68.72 35.6004 68.88C35.4337 69.04 35.3504 69.2333 35.3504 69.46C35.3504 69.72 35.4537 69.93 35.6604 70.09C35.8671 70.2433 36.1537 70.32 36.5204 70.32C36.8804 70.32 37.1937 70.24 37.4604 70.08C37.7337 69.92 37.9304 69.6867 38.0504 69.38L38.2404 70.04C38.1137 70.3533 37.8904 70.6033 37.5704 70.79C37.2504 70.97 36.8471 71.06 36.3604 71.06ZM47.417 65.65C47.8436 65.65 48.2203 65.7333 48.547 65.9C48.8736 66.0667 49.127 66.32 49.307 66.66C49.4936 67 49.587 67.43 49.587 67.95V71H48.627V68.06C48.627 67.5467 48.507 67.16 48.267 66.9C48.027 66.64 47.6903 66.51 47.257 66.51C46.937 66.51 46.657 66.5767 46.417 66.71C46.177 66.8433 45.9903 67.04 45.857 67.3C45.7303 67.56 45.667 67.8833 45.667 68.27V71H44.707V68.06C44.707 67.5467 44.587 67.16 44.347 66.9C44.1136 66.64 43.777 66.51 43.337 66.51C43.0236 66.51 42.747 66.5767 42.507 66.71C42.267 66.8433 42.0803 67.04 41.947 67.3C41.8136 67.56 41.747 67.8833 41.747 68.27V71H40.787V65.7H41.707V67.11L41.557 66.75C41.7236 66.4033 41.9803 66.1333 42.327 65.94C42.6736 65.7467 43.077 65.65 43.537 65.65C44.0436 65.65 44.4803 65.7767 44.847 66.03C45.2136 66.2767 45.4536 66.6533 45.567 67.16L45.177 67C45.337 66.5933 45.617 66.2667 46.017 66.02C46.417 65.7733 46.8836 65.65 47.417 65.65ZM57.9834 65.65C58.41 65.65 58.7867 65.7333 59.1134 65.9C59.44 66.0667 59.6934 66.32 59.8734 66.66C60.06 67 60.1534 67.43 60.1534 67.95V71H59.1934V68.06C59.1934 67.5467 59.0734 67.16 58.8334 66.9C58.5934 66.64 58.2567 66.51 57.8234 66.51C57.5034 66.51 57.2234 66.5767 56.9834 66.71C56.7434 66.8433 56.5567 67.04 56.4234 67.3C56.2967 67.56 56.2334 67.8833 56.2334 68.27V71H55.2734V68.06C55.2734 67.5467 55.1534 67.16 54.9134 66.9C54.68 66.64 54.3434 66.51 53.9034 66.51C53.59 66.51 53.3134 66.5767 53.0734 66.71C52.8334 66.8433 52.6467 67.04 52.5134 67.3C52.38 67.56 52.3134 67.8833 52.3134 68.27V71H51.3534V65.7H52.2734V67.11L52.1234 66.75C52.29 66.4033 52.5467 66.1333 52.8934 65.94C53.24 65.7467 53.6434 65.65 54.1034 65.65C54.61 65.65 55.0467 65.7767 55.4134 66.03C55.78 66.2767 56.02 66.6533 56.1334 67.16L55.7434 67C55.9034 66.5933 56.1834 66.2667 56.5834 66.02C56.9834 65.7733 57.45 65.65 57.9834 65.65ZM61.9198 71V65.7H62.8798V71H61.9198ZM62.3998 64.68C62.2131 64.68 62.0564 64.62 61.9298 64.5C61.8098 64.38 61.7498 64.2333 61.7498 64.06C61.7498 63.88 61.8098 63.73 61.9298 63.61C62.0564 63.49 62.2131 63.43 62.3998 63.43C62.5864 63.43 62.7398 63.49 62.8598 63.61C62.9864 63.7233 63.0498 63.8667 63.0498 64.04C63.0498 64.22 62.9898 64.3733 62.8698 64.5C62.7498 64.62 62.5931 64.68 62.3998 64.68ZM67.5427 65.65C67.9761 65.65 68.3561 65.7333 68.6827 65.9C69.0161 66.0667 69.2761 66.32 69.4627 66.66C69.6494 67 69.7427 67.43 69.7427 67.95V71H68.7827V68.06C68.7827 67.5467 68.6561 67.16 68.4027 66.9C68.1561 66.64 67.8061 66.51 67.3527 66.51C67.0127 66.51 66.7161 66.5767 66.4627 66.71C66.2094 66.8433 66.0127 67.04 65.8727 67.3C65.7394 67.56 65.6727 67.8833 65.6727 68.27V71H64.7127V65.7H65.6327V67.13L65.4827 66.75C65.6561 66.4033 65.9227 66.1333 66.2827 65.94C66.6427 65.7467 67.0627 65.65 67.5427 65.65ZM73.8394 73C73.3527 73 72.8794 72.93 72.4194 72.79C71.966 72.6567 71.596 72.4633 71.3094 72.21L71.7694 71.47C72.016 71.6833 72.3194 71.85 72.6794 71.97C73.0394 72.0967 73.416 72.16 73.8094 72.16C74.436 72.16 74.896 72.0133 75.1894 71.72C75.4827 71.4267 75.6294 70.98 75.6294 70.38V69.26L75.7294 68.21L75.6794 67.15V65.7H76.5894V70.28C76.5894 71.2133 76.356 71.9 75.8894 72.34C75.4227 72.78 74.7394 73 73.8394 73ZM73.7194 70.78C73.206 70.78 72.746 70.6733 72.3394 70.46C71.9394 70.24 71.6194 69.9367 71.3794 69.55C71.146 69.1633 71.0294 68.7167 71.0294 68.21C71.0294 67.6967 71.146 67.25 71.3794 66.87C71.6194 66.4833 71.9394 66.1833 72.3394 65.97C72.746 65.7567 73.206 65.65 73.7194 65.65C74.1727 65.65 74.586 65.7433 74.9594 65.93C75.3327 66.11 75.6294 66.39 75.8494 66.77C76.076 67.15 76.1894 67.63 76.1894 68.21C76.1894 68.7833 76.076 69.26 75.8494 69.64C75.6294 70.02 75.3327 70.3067 74.9594 70.5C74.586 70.6867 74.1727 70.78 73.7194 70.78ZM73.8294 69.94C74.1827 69.94 74.496 69.8667 74.7694 69.72C75.0427 69.5733 75.256 69.37 75.4094 69.11C75.5694 68.85 75.6494 68.55 75.6494 68.21C75.6494 67.87 75.5694 67.57 75.4094 67.31C75.256 67.05 75.0427 66.85 74.7694 66.71C74.496 66.5633 74.1827 66.49 73.8294 66.49C73.476 66.49 73.1594 66.5633 72.8794 66.71C72.606 66.85 72.3894 67.05 72.2294 67.31C72.076 67.57 71.9994 67.87 71.9994 68.21C71.9994 68.55 72.076 68.85 72.2294 69.11C72.3894 69.37 72.606 69.5733 72.8794 69.72C73.1594 69.8667 73.476 69.94 73.8294 69.94Z" fill="#1A1A1A"/>
</svg>
